G04 #@! TF.GenerationSoftware,KiCad,Pcbnew,(5.0.0-rc2-dev-321-g78161b592)*
G04 #@! TF.CreationDate,2018-09-15T23:15:39-06:00*
G04 #@! TF.ProjectId,trevor,747265766F722E6B696361645F706362,rev?*
G04 #@! TF.SameCoordinates,Original*
G04 #@! TF.FileFunction,Legend,Bot*
G04 #@! TF.FilePolarity,Positive*
%FSLAX46Y46*%
G04 Gerber Fmt 4.6, Leading zero omitted, Abs format (unit mm)*
G04 Created by KiCad (PCBNEW (5.0.0-rc2-dev-321-g78161b592)) date 09/15/18 23:15:39*
%MOMM*%
%LPD*%
G01*
G04 APERTURE LIST*
%ADD10C,0.300000*%
%ADD11C,0.200000*%
%ADD12C,0.120000*%
%ADD13R,3.900000X3.700000*%
%ADD14R,4.400000X4.400000*%
%ADD15R,2.200000X2.200000*%
%ADD16C,2.200000*%
%ADD17C,5.400000*%
%ADD18C,0.254000*%
G04 APERTURE END LIST*
D10*
X93820357Y-49303571D02*
X94231071Y-48589285D01*
X94677500Y-49303571D02*
X94490000Y-47803571D01*
X93918571Y-47803571D01*
X93784642Y-47875000D01*
X93722142Y-47946428D01*
X93668571Y-48089285D01*
X93695357Y-48303571D01*
X93784642Y-48446428D01*
X93865000Y-48517857D01*
X94016785Y-48589285D01*
X94588214Y-48589285D01*
X93159642Y-49160714D02*
X93097142Y-49232142D01*
X93177500Y-49303571D01*
X93240000Y-49232142D01*
X93159642Y-49160714D01*
X93177500Y-49303571D01*
X92463214Y-49303571D02*
X92275714Y-47803571D01*
X91731071Y-49160714D02*
X91668571Y-49232142D01*
X91748928Y-49303571D01*
X91811428Y-49232142D01*
X91731071Y-49160714D01*
X91748928Y-49303571D01*
X91034642Y-49303571D02*
X90847142Y-47803571D01*
X90275714Y-47803571D01*
X90141785Y-47875000D01*
X90079285Y-47946428D01*
X90025714Y-48089285D01*
X90052500Y-48303571D01*
X90141785Y-48446428D01*
X90222142Y-48517857D01*
X90373928Y-48589285D01*
X90945357Y-48589285D01*
X89516785Y-49160714D02*
X89454285Y-49232142D01*
X89534642Y-49303571D01*
X89597142Y-49232142D01*
X89516785Y-49160714D01*
X89534642Y-49303571D01*
X96820357Y-51853571D02*
X96534642Y-51853571D01*
X96382857Y-51782142D01*
X96302500Y-51710714D01*
X96132857Y-51496428D01*
X96025714Y-51210714D01*
X95954285Y-50639285D01*
X96007857Y-50496428D01*
X96070357Y-50425000D01*
X96204285Y-50353571D01*
X96490000Y-50353571D01*
X96641785Y-50425000D01*
X96722142Y-50496428D01*
X96811428Y-50639285D01*
X96856071Y-50996428D01*
X96802500Y-51139285D01*
X96740000Y-51210714D01*
X96606071Y-51282142D01*
X96320357Y-51282142D01*
X96168571Y-51210714D01*
X96088214Y-51139285D01*
X95998928Y-50996428D01*
X94195357Y-50282142D02*
X95722142Y-52210714D01*
X93793571Y-50496428D02*
X93713214Y-50425000D01*
X93561428Y-50353571D01*
X93204285Y-50353571D01*
X93070357Y-50425000D01*
X93007857Y-50496428D01*
X92954285Y-50639285D01*
X92972142Y-50782142D01*
X93070357Y-50996428D01*
X94034642Y-51853571D01*
X93106071Y-51853571D01*
X92418571Y-50353571D02*
X91490000Y-50353571D01*
X92061428Y-50925000D01*
X91847142Y-50925000D01*
X91713214Y-50996428D01*
X91650714Y-51067857D01*
X91597142Y-51210714D01*
X91641785Y-51567857D01*
X91731071Y-51710714D01*
X91811428Y-51782142D01*
X91963214Y-51853571D01*
X92391785Y-51853571D01*
X92525714Y-51782142D01*
X92588214Y-51710714D01*
X89766785Y-50282142D02*
X91293571Y-52210714D01*
X88677500Y-51853571D02*
X89534642Y-51853571D01*
X89106071Y-51853571D02*
X88918571Y-50353571D01*
X89088214Y-50567857D01*
X89248928Y-50710714D01*
X89400714Y-50782142D01*
X87990000Y-50353571D02*
X86990000Y-50353571D01*
X87820357Y-51853571D01*
D11*
X90550000Y-67950000D02*
X92750000Y-67950000D01*
X90550000Y-68750000D02*
X89350000Y-67950000D01*
X90550000Y-67150000D02*
X90550000Y-68750000D01*
X89350000Y-67950000D02*
X90550000Y-67150000D01*
X89350000Y-67150000D02*
X89350000Y-68750000D01*
X87250000Y-67950000D02*
X89350000Y-67950000D01*
D10*
X103185714Y-67714285D02*
X103257142Y-67785714D01*
X103328571Y-67928571D01*
X103328571Y-68071428D01*
X103257142Y-68214285D01*
X103185714Y-68285714D01*
X103042857Y-68357142D01*
X102900000Y-68357142D01*
X102757142Y-68285714D01*
X102685714Y-68214285D01*
X102614285Y-68071428D01*
X102614285Y-67928571D01*
X102685714Y-67785714D01*
X102757142Y-67714285D01*
X103328571Y-67714285D02*
X102757142Y-67714285D01*
X102685714Y-67642857D01*
X102685714Y-67571428D01*
X102757142Y-67428571D01*
X102900000Y-67357142D01*
X103257142Y-67357142D01*
X103471428Y-67500000D01*
X103614285Y-67714285D01*
X103685714Y-68000000D01*
X103614285Y-68285714D01*
X103471428Y-68500000D01*
X103257142Y-68642857D01*
X102971428Y-68714285D01*
X102685714Y-68642857D01*
X102471428Y-68500000D01*
X102328571Y-68285714D01*
X102257142Y-68000000D01*
X102328571Y-67714285D01*
X102471428Y-67500000D01*
X102471428Y-66071428D02*
X103971428Y-66071428D01*
X102542857Y-66071428D02*
X102471428Y-66214285D01*
X102471428Y-66500000D01*
X102542857Y-66642857D01*
X102614285Y-66714285D01*
X102757142Y-66785714D01*
X103185714Y-66785714D01*
X103328571Y-66714285D01*
X103400000Y-66642857D01*
X103471428Y-66500000D01*
X103471428Y-66214285D01*
X103400000Y-66071428D01*
X102542857Y-64785714D02*
X102471428Y-64928571D01*
X102471428Y-65214285D01*
X102542857Y-65357142D01*
X102685714Y-65428571D01*
X103257142Y-65428571D01*
X103400000Y-65357142D01*
X103471428Y-65214285D01*
X103471428Y-64928571D01*
X103400000Y-64785714D01*
X103257142Y-64714285D01*
X103114285Y-64714285D01*
X102971428Y-65428571D01*
X102471428Y-64071428D02*
X103471428Y-64071428D01*
X103185714Y-64071428D02*
X103328571Y-64000000D01*
X103400000Y-63928571D01*
X103471428Y-63785714D01*
X103471428Y-63642857D01*
X102471428Y-63142857D02*
X103971428Y-63142857D01*
X103400000Y-63142857D02*
X103471428Y-63000000D01*
X103471428Y-62714285D01*
X103400000Y-62571428D01*
X103328571Y-62500000D01*
X103185714Y-62428571D01*
X102757142Y-62428571D01*
X102614285Y-62500000D01*
X102542857Y-62571428D01*
X102471428Y-62714285D01*
X102471428Y-63000000D01*
X102542857Y-63142857D01*
X103471428Y-61928571D02*
X102471428Y-61571428D01*
X103471428Y-61214285D02*
X102471428Y-61571428D01*
X102114285Y-61714285D01*
X102042857Y-61785714D01*
X101971428Y-61928571D01*
X102542857Y-60000000D02*
X102471428Y-60142857D01*
X102471428Y-60428571D01*
X102542857Y-60571428D01*
X102614285Y-60642857D01*
X102757142Y-60714285D01*
X103185714Y-60714285D01*
X103328571Y-60642857D01*
X103400000Y-60571428D01*
X103471428Y-60428571D01*
X103471428Y-60142857D01*
X103400000Y-60000000D01*
X102471428Y-59142857D02*
X102542857Y-59285714D01*
X102614285Y-59357142D01*
X102757142Y-59428571D01*
X103185714Y-59428571D01*
X103328571Y-59357142D01*
X103400000Y-59285714D01*
X103471428Y-59142857D01*
X103471428Y-58928571D01*
X103400000Y-58785714D01*
X103328571Y-58714285D01*
X103185714Y-58642857D01*
X102757142Y-58642857D01*
X102614285Y-58714285D01*
X102542857Y-58785714D01*
X102471428Y-58928571D01*
X102471428Y-59142857D01*
X103471428Y-58000000D02*
X102471428Y-58000000D01*
X103328571Y-58000000D02*
X103400000Y-57928571D01*
X103471428Y-57785714D01*
X103471428Y-57571428D01*
X103400000Y-57428571D01*
X103257142Y-57357142D01*
X102471428Y-57357142D01*
X100635714Y-68357142D02*
X100707142Y-68428571D01*
X100778571Y-68571428D01*
X100778571Y-68714285D01*
X100707142Y-68857142D01*
X100635714Y-68928571D01*
X100492857Y-69000000D01*
X100350000Y-69000000D01*
X100207142Y-68928571D01*
X100135714Y-68857142D01*
X100064285Y-68714285D01*
X100064285Y-68571428D01*
X100135714Y-68428571D01*
X100207142Y-68357142D01*
X100778571Y-68357142D02*
X100207142Y-68357142D01*
X100135714Y-68285714D01*
X100135714Y-68214285D01*
X100207142Y-68071428D01*
X100350000Y-68000000D01*
X100707142Y-68000000D01*
X100921428Y-68142857D01*
X101064285Y-68357142D01*
X101135714Y-68642857D01*
X101064285Y-68928571D01*
X100921428Y-69142857D01*
X100707142Y-69285714D01*
X100421428Y-69357142D01*
X100135714Y-69285714D01*
X99921428Y-69142857D01*
X99778571Y-68928571D01*
X99707142Y-68642857D01*
X99778571Y-68357142D01*
X99921428Y-68142857D01*
X101350000Y-66571428D02*
X101421428Y-66714285D01*
X101421428Y-66928571D01*
X101350000Y-67142857D01*
X101207142Y-67285714D01*
X101064285Y-67357142D01*
X100778571Y-67428571D01*
X100564285Y-67428571D01*
X100278571Y-67357142D01*
X100135714Y-67285714D01*
X99992857Y-67142857D01*
X99921428Y-66928571D01*
X99921428Y-66785714D01*
X99992857Y-66571428D01*
X100064285Y-66500000D01*
X100564285Y-66500000D01*
X100564285Y-66785714D01*
X99921428Y-65857142D02*
X100921428Y-65857142D01*
X100635714Y-65857142D02*
X100778571Y-65785714D01*
X100850000Y-65714285D01*
X100921428Y-65571428D01*
X100921428Y-65428571D01*
X99921428Y-64928571D02*
X100921428Y-64928571D01*
X101421428Y-64928571D02*
X101350000Y-65000000D01*
X101278571Y-64928571D01*
X101350000Y-64857142D01*
X101421428Y-64928571D01*
X101278571Y-64928571D01*
X100921428Y-64428571D02*
X100921428Y-63857142D01*
X99921428Y-64214285D02*
X101207142Y-64214285D01*
X101350000Y-64142857D01*
X101421428Y-64000000D01*
X101421428Y-63857142D01*
X100921428Y-63571428D02*
X100921428Y-63000000D01*
X101421428Y-63357142D02*
X100135714Y-63357142D01*
X99992857Y-63285714D01*
X99921428Y-63142857D01*
X99921428Y-63000000D01*
X99992857Y-61928571D02*
X99921428Y-62071428D01*
X99921428Y-62357142D01*
X99992857Y-62500000D01*
X100135714Y-62571428D01*
X100707142Y-62571428D01*
X100850000Y-62500000D01*
X100921428Y-62357142D01*
X100921428Y-62071428D01*
X100850000Y-61928571D01*
X100707142Y-61857142D01*
X100564285Y-61857142D01*
X100421428Y-62571428D01*
X99921428Y-61214285D02*
X100921428Y-61214285D01*
X100635714Y-61214285D02*
X100778571Y-61142857D01*
X100850000Y-61071428D01*
X100921428Y-60928571D01*
X100921428Y-60785714D01*
X100778571Y-60071428D02*
X100850000Y-60214285D01*
X100921428Y-60285714D01*
X101064285Y-60357142D01*
X101135714Y-60357142D01*
X101278571Y-60285714D01*
X101350000Y-60214285D01*
X101421428Y-60071428D01*
X101421428Y-59785714D01*
X101350000Y-59642857D01*
X101278571Y-59571428D01*
X101135714Y-59500000D01*
X101064285Y-59500000D01*
X100921428Y-59571428D01*
X100850000Y-59642857D01*
X100778571Y-59785714D01*
X100778571Y-60071428D01*
X100707142Y-60214285D01*
X100635714Y-60285714D01*
X100492857Y-60357142D01*
X100207142Y-60357142D01*
X100064285Y-60285714D01*
X99992857Y-60214285D01*
X99921428Y-60071428D01*
X99921428Y-59785714D01*
X99992857Y-59642857D01*
X100064285Y-59571428D01*
X100207142Y-59500000D01*
X100492857Y-59500000D01*
X100635714Y-59571428D01*
X100707142Y-59642857D01*
X100778571Y-59785714D01*
X101421428Y-58571428D02*
X101421428Y-58428571D01*
X101350000Y-58285714D01*
X101278571Y-58214285D01*
X101135714Y-58142857D01*
X100850000Y-58071428D01*
X100492857Y-58071428D01*
X100207142Y-58142857D01*
X100064285Y-58214285D01*
X99992857Y-58285714D01*
X99921428Y-58428571D01*
X99921428Y-58571428D01*
X99992857Y-58714285D01*
X100064285Y-58785714D01*
X100207142Y-58857142D01*
X100492857Y-58928571D01*
X100850000Y-58928571D01*
X101135714Y-58857142D01*
X101278571Y-58785714D01*
X101350000Y-58714285D01*
X101421428Y-58571428D01*
X99921428Y-56642857D02*
X99921428Y-57500000D01*
X99921428Y-57071428D02*
X101421428Y-57071428D01*
X101207142Y-57214285D01*
X101064285Y-57357142D01*
X100992857Y-57500000D01*
X98085714Y-67178571D02*
X98157142Y-67250000D01*
X98228571Y-67392857D01*
X98228571Y-67535714D01*
X98157142Y-67678571D01*
X98085714Y-67750000D01*
X97942857Y-67821428D01*
X97800000Y-67821428D01*
X97657142Y-67750000D01*
X97585714Y-67678571D01*
X97514285Y-67535714D01*
X97514285Y-67392857D01*
X97585714Y-67250000D01*
X97657142Y-67178571D01*
X98228571Y-67178571D02*
X97657142Y-67178571D01*
X97585714Y-67107142D01*
X97585714Y-67035714D01*
X97657142Y-66892857D01*
X97800000Y-66821428D01*
X98157142Y-66821428D01*
X98371428Y-66964285D01*
X98514285Y-67178571D01*
X98585714Y-67464285D01*
X98514285Y-67750000D01*
X98371428Y-67964285D01*
X98157142Y-68107142D01*
X97871428Y-68178571D01*
X97585714Y-68107142D01*
X97371428Y-67964285D01*
X97228571Y-67750000D01*
X97157142Y-67464285D01*
X97228571Y-67178571D01*
X97371428Y-66964285D01*
X97371428Y-66178571D02*
X98871428Y-66178571D01*
X97371428Y-65535714D02*
X98157142Y-65535714D01*
X98300000Y-65607142D01*
X98371428Y-65750000D01*
X98371428Y-65964285D01*
X98300000Y-66107142D01*
X98228571Y-66178571D01*
X97371428Y-64178571D02*
X98157142Y-64178571D01*
X98300000Y-64250000D01*
X98371428Y-64392857D01*
X98371428Y-64678571D01*
X98300000Y-64821428D01*
X97442857Y-64178571D02*
X97371428Y-64321428D01*
X97371428Y-64678571D01*
X97442857Y-64821428D01*
X97585714Y-64892857D01*
X97728571Y-64892857D01*
X97871428Y-64821428D01*
X97942857Y-64678571D01*
X97942857Y-64321428D01*
X98014285Y-64178571D01*
X97371428Y-63464285D02*
X98371428Y-63464285D01*
X98228571Y-63464285D02*
X98300000Y-63392857D01*
X98371428Y-63250000D01*
X98371428Y-63035714D01*
X98300000Y-62892857D01*
X98157142Y-62821428D01*
X97371428Y-62821428D01*
X98157142Y-62821428D02*
X98300000Y-62750000D01*
X98371428Y-62607142D01*
X98371428Y-62392857D01*
X98300000Y-62250000D01*
X98157142Y-62178571D01*
X97371428Y-62178571D01*
X97442857Y-61535714D02*
X97371428Y-61392857D01*
X97371428Y-61107142D01*
X97442857Y-60964285D01*
X97585714Y-60892857D01*
X97657142Y-60892857D01*
X97800000Y-60964285D01*
X97871428Y-61107142D01*
X97871428Y-61321428D01*
X97942857Y-61464285D01*
X98085714Y-61535714D01*
X98157142Y-61535714D01*
X98300000Y-61464285D01*
X98371428Y-61321428D01*
X98371428Y-61107142D01*
X98300000Y-60964285D01*
X98371428Y-60464285D02*
X98371428Y-59892857D01*
X98871428Y-60250000D02*
X97585714Y-60250000D01*
X97442857Y-60178571D01*
X97371428Y-60035714D01*
X97371428Y-59892857D01*
X97442857Y-58821428D02*
X97371428Y-58964285D01*
X97371428Y-59250000D01*
X97442857Y-59392857D01*
X97585714Y-59464285D01*
X98157142Y-59464285D01*
X98300000Y-59392857D01*
X98371428Y-59250000D01*
X98371428Y-58964285D01*
X98300000Y-58821428D01*
X98157142Y-58750000D01*
X98014285Y-58750000D01*
X97871428Y-59464285D01*
X97371428Y-58107142D02*
X98371428Y-58107142D01*
X98085714Y-58107142D02*
X98228571Y-58035714D01*
X98300000Y-57964285D01*
X98371428Y-57821428D01*
X98371428Y-57678571D01*
D12*
X86885385Y-85584160D02*
G75*
G03X87800000Y-85200000I124615J984160D01*
G01*
X97714615Y-85584160D02*
G75*
G02X96800000Y-85200000I-124615J984160D01*
G01*
X87809339Y-85188671D02*
G75*
G02X96800000Y-85200000I4490661J-3711329D01*
G01*
X85550000Y-84050000D02*
G75*
G03X87000000Y-85600000I1500000J-50000D01*
G01*
X99050000Y-84050000D02*
G75*
G02X97600000Y-85600000I-1500000J-50000D01*
G01*
X85550000Y-82000000D02*
X85550000Y-84100000D01*
X99050000Y-82000000D02*
X99050000Y-84100000D01*
X99050000Y-78000000D02*
X99050000Y-76550000D01*
X99050000Y-76550000D02*
X96450000Y-73950000D01*
X96450000Y-73950000D02*
X96450000Y-73150000D01*
X96450000Y-73150000D02*
X88150000Y-73150000D01*
X88150000Y-73150000D02*
X88150000Y-73950000D01*
X88150000Y-73950000D02*
X85550000Y-76550000D01*
X85550000Y-76550000D02*
X85550000Y-78000000D01*
X91442335Y-72128608D02*
G75*
G02X88210000Y-72285516I-1672335J1078608D01*
G01*
X91442335Y-69971392D02*
G75*
G03X88210000Y-69814484I-1672335J-1078608D01*
G01*
X90811130Y-72129837D02*
G75*
G02X88729039Y-72130000I-1041130J1079837D01*
G01*
X90811130Y-69970163D02*
G75*
G03X88729039Y-69970000I-1041130J-1079837D01*
G01*
X88210000Y-72286000D02*
X88210000Y-72130000D01*
X88210000Y-69970000D02*
X88210000Y-69814000D01*
%LPC*%
D13*
X100200000Y-80000000D03*
X84400000Y-80000000D03*
D14*
X92300000Y-80000000D03*
D15*
X88500000Y-71050000D03*
D16*
X91040000Y-71050000D03*
D17*
X92000000Y-55350000D03*
D18*
G36*
X93345433Y-73935952D02*
X94717705Y-74328030D01*
X95993004Y-75112829D01*
X96973658Y-75995418D01*
X97656432Y-76970810D01*
X98142388Y-78234295D01*
X98142388Y-81883204D01*
X97658019Y-82948816D01*
X96873666Y-84125346D01*
X95598974Y-85203931D01*
X94227014Y-85889911D01*
X92859428Y-86182965D01*
X91096600Y-86085030D01*
X89331002Y-85398409D01*
X87859685Y-84319443D01*
X86979285Y-83145576D01*
X86496388Y-82083204D01*
X86496388Y-78138224D01*
X86980757Y-77072612D01*
X87570800Y-76187548D01*
X88158049Y-75502424D01*
X89138217Y-74718289D01*
X90114935Y-74229931D01*
X91191556Y-73936307D01*
X92368331Y-73838242D01*
X93345433Y-73935952D01*
X93345433Y-73935952D01*
G37*
X93345433Y-73935952D02*
X94717705Y-74328030D01*
X95993004Y-75112829D01*
X96973658Y-75995418D01*
X97656432Y-76970810D01*
X98142388Y-78234295D01*
X98142388Y-81883204D01*
X97658019Y-82948816D01*
X96873666Y-84125346D01*
X95598974Y-85203931D01*
X94227014Y-85889911D01*
X92859428Y-86182965D01*
X91096600Y-86085030D01*
X89331002Y-85398409D01*
X87859685Y-84319443D01*
X86979285Y-83145576D01*
X86496388Y-82083204D01*
X86496388Y-78138224D01*
X86980757Y-77072612D01*
X87570800Y-76187548D01*
X88158049Y-75502424D01*
X89138217Y-74718289D01*
X90114935Y-74229931D01*
X91191556Y-73936307D01*
X92368331Y-73838242D01*
X93345433Y-73935952D01*
M02*
