G04 #@! TF.GenerationSoftware,KiCad,Pcbnew,(5.0.0-rc2-dev-321-g78161b592)*
G04 #@! TF.CreationDate,2018-09-15T23:15:39-06:00*
G04 #@! TF.ProjectId,trevor,747265766F722E6B696361645F706362,rev?*
G04 #@! TF.SameCoordinates,Original*
G04 #@! TF.FileFunction,Soldermask,Top*
G04 #@! TF.FilePolarity,Negative*
%FSLAX46Y46*%
G04 Gerber Fmt 4.6, Leading zero omitted, Abs format (unit mm)*
G04 Created by KiCad (PCBNEW (5.0.0-rc2-dev-321-g78161b592)) date 09/15/18 23:15:39*
%MOMM*%
%LPD*%
G01*
G04 APERTURE LIST*
%ADD10C,0.010000*%
%ADD11R,2.200000X2.200000*%
%ADD12C,2.200000*%
G04 APERTURE END LIST*
D10*
G36*
X92563407Y-58607687D02*
X92682286Y-58650885D01*
X92802448Y-58726768D01*
X92930764Y-58838765D01*
X92931514Y-58839495D01*
X93054303Y-58988238D01*
X93144571Y-59161194D01*
X93200700Y-59353638D01*
X93221068Y-59560848D01*
X93217048Y-59672135D01*
X93187111Y-59866319D01*
X93131411Y-60027129D01*
X93050004Y-60154455D01*
X92942947Y-60248189D01*
X92902690Y-60271377D01*
X92813519Y-60304902D01*
X92708262Y-60326378D01*
X92603838Y-60333702D01*
X92517164Y-60324768D01*
X92503863Y-60320982D01*
X92341216Y-60246067D01*
X92196650Y-60136708D01*
X92074759Y-59998592D01*
X91980137Y-59837402D01*
X91917376Y-59658823D01*
X91900804Y-59574651D01*
X91886342Y-59478217D01*
X91991484Y-59499755D01*
X92104088Y-59507242D01*
X92195302Y-59478776D01*
X92265739Y-59413866D01*
X92316010Y-59312021D01*
X92339074Y-59220967D01*
X92350708Y-59144914D01*
X92349844Y-59091509D01*
X92334974Y-59042516D01*
X92321970Y-59014294D01*
X92265707Y-58940366D01*
X92184827Y-58883737D01*
X92095158Y-58854479D01*
X92067791Y-58852541D01*
X92016360Y-58852541D01*
X92057411Y-58786395D01*
X92099508Y-58736673D01*
X92161474Y-58683034D01*
X92199125Y-58656750D01*
X92264354Y-58620095D01*
X92323703Y-58600942D01*
X92396766Y-58594144D01*
X92438936Y-58593743D01*
X92563407Y-58607687D01*
X92563407Y-58607687D01*
G37*
X92563407Y-58607687D02*
X92682286Y-58650885D01*
X92802448Y-58726768D01*
X92930764Y-58838765D01*
X92931514Y-58839495D01*
X93054303Y-58988238D01*
X93144571Y-59161194D01*
X93200700Y-59353638D01*
X93221068Y-59560848D01*
X93217048Y-59672135D01*
X93187111Y-59866319D01*
X93131411Y-60027129D01*
X93050004Y-60154455D01*
X92942947Y-60248189D01*
X92902690Y-60271377D01*
X92813519Y-60304902D01*
X92708262Y-60326378D01*
X92603838Y-60333702D01*
X92517164Y-60324768D01*
X92503863Y-60320982D01*
X92341216Y-60246067D01*
X92196650Y-60136708D01*
X92074759Y-59998592D01*
X91980137Y-59837402D01*
X91917376Y-59658823D01*
X91900804Y-59574651D01*
X91886342Y-59478217D01*
X91991484Y-59499755D01*
X92104088Y-59507242D01*
X92195302Y-59478776D01*
X92265739Y-59413866D01*
X92316010Y-59312021D01*
X92339074Y-59220967D01*
X92350708Y-59144914D01*
X92349844Y-59091509D01*
X92334974Y-59042516D01*
X92321970Y-59014294D01*
X92265707Y-58940366D01*
X92184827Y-58883737D01*
X92095158Y-58854479D01*
X92067791Y-58852541D01*
X92016360Y-58852541D01*
X92057411Y-58786395D01*
X92099508Y-58736673D01*
X92161474Y-58683034D01*
X92199125Y-58656750D01*
X92264354Y-58620095D01*
X92323703Y-58600942D01*
X92396766Y-58594144D01*
X92438936Y-58593743D01*
X92563407Y-58607687D01*
G36*
X95964245Y-49107738D02*
X95947258Y-49163483D01*
X95919535Y-49247965D01*
X95882917Y-49355654D01*
X95839248Y-49481018D01*
X95804517Y-49578999D01*
X95675925Y-49944583D01*
X95561394Y-50282717D01*
X95459076Y-50600533D01*
X95367125Y-50905163D01*
X95283693Y-51203741D01*
X95206935Y-51503399D01*
X95135001Y-51811269D01*
X95066046Y-52134483D01*
X94998223Y-52480174D01*
X94929684Y-52855475D01*
X94876131Y-53164000D01*
X94817345Y-53517951D01*
X94767809Y-53836900D01*
X94726797Y-54126986D01*
X94693580Y-54394346D01*
X94667430Y-54645119D01*
X94647621Y-54885443D01*
X94633423Y-55121457D01*
X94627349Y-55262109D01*
X94614252Y-55613969D01*
X94442834Y-55612146D01*
X94309087Y-55617527D01*
X94197561Y-55638584D01*
X94150597Y-55653576D01*
X94081751Y-55676416D01*
X94042403Y-55683472D01*
X94023166Y-55675693D01*
X94018306Y-55666933D01*
X94009994Y-55625142D01*
X94006522Y-55569977D01*
X93998436Y-55514288D01*
X93976388Y-55427920D01*
X93943169Y-55319072D01*
X93901567Y-55195942D01*
X93854374Y-55066729D01*
X93804378Y-54939632D01*
X93754371Y-54822849D01*
X93746076Y-54804627D01*
X93652278Y-54600639D01*
X93689492Y-54480278D01*
X93706418Y-54412603D01*
X93725555Y-54315428D01*
X93744638Y-54201349D01*
X93761403Y-54082961D01*
X93762515Y-54074166D01*
X93830466Y-53613897D01*
X93918003Y-53169027D01*
X94028347Y-52725444D01*
X94164719Y-52269034D01*
X94197320Y-52169166D01*
X94387226Y-51639589D01*
X94595740Y-51141512D01*
X94821905Y-50676860D01*
X95064762Y-50247557D01*
X95323353Y-49855529D01*
X95403834Y-49745507D01*
X95473822Y-49654304D01*
X95552347Y-49555554D01*
X95634981Y-49454425D01*
X95717294Y-49356087D01*
X95794859Y-49265708D01*
X95863248Y-49188456D01*
X95918031Y-49129502D01*
X95954780Y-49094012D01*
X95968653Y-49086264D01*
X95964245Y-49107738D01*
X95964245Y-49107738D01*
G37*
X95964245Y-49107738D02*
X95947258Y-49163483D01*
X95919535Y-49247965D01*
X95882917Y-49355654D01*
X95839248Y-49481018D01*
X95804517Y-49578999D01*
X95675925Y-49944583D01*
X95561394Y-50282717D01*
X95459076Y-50600533D01*
X95367125Y-50905163D01*
X95283693Y-51203741D01*
X95206935Y-51503399D01*
X95135001Y-51811269D01*
X95066046Y-52134483D01*
X94998223Y-52480174D01*
X94929684Y-52855475D01*
X94876131Y-53164000D01*
X94817345Y-53517951D01*
X94767809Y-53836900D01*
X94726797Y-54126986D01*
X94693580Y-54394346D01*
X94667430Y-54645119D01*
X94647621Y-54885443D01*
X94633423Y-55121457D01*
X94627349Y-55262109D01*
X94614252Y-55613969D01*
X94442834Y-55612146D01*
X94309087Y-55617527D01*
X94197561Y-55638584D01*
X94150597Y-55653576D01*
X94081751Y-55676416D01*
X94042403Y-55683472D01*
X94023166Y-55675693D01*
X94018306Y-55666933D01*
X94009994Y-55625142D01*
X94006522Y-55569977D01*
X93998436Y-55514288D01*
X93976388Y-55427920D01*
X93943169Y-55319072D01*
X93901567Y-55195942D01*
X93854374Y-55066729D01*
X93804378Y-54939632D01*
X93754371Y-54822849D01*
X93746076Y-54804627D01*
X93652278Y-54600639D01*
X93689492Y-54480278D01*
X93706418Y-54412603D01*
X93725555Y-54315428D01*
X93744638Y-54201349D01*
X93761403Y-54082961D01*
X93762515Y-54074166D01*
X93830466Y-53613897D01*
X93918003Y-53169027D01*
X94028347Y-52725444D01*
X94164719Y-52269034D01*
X94197320Y-52169166D01*
X94387226Y-51639589D01*
X94595740Y-51141512D01*
X94821905Y-50676860D01*
X95064762Y-50247557D01*
X95323353Y-49855529D01*
X95403834Y-49745507D01*
X95473822Y-49654304D01*
X95552347Y-49555554D01*
X95634981Y-49454425D01*
X95717294Y-49356087D01*
X95794859Y-49265708D01*
X95863248Y-49188456D01*
X95918031Y-49129502D01*
X95954780Y-49094012D01*
X95968653Y-49086264D01*
X95964245Y-49107738D01*
G36*
X91921495Y-53424102D02*
X91976168Y-53432502D01*
X92054563Y-53446600D01*
X92125579Y-53460427D01*
X92368937Y-53527458D01*
X92587305Y-53626841D01*
X92785564Y-53760932D01*
X92836355Y-53803459D01*
X93083830Y-54047381D01*
X93299511Y-54318316D01*
X93481915Y-54613727D01*
X93629562Y-54931074D01*
X93740969Y-55267820D01*
X93776403Y-55413539D01*
X93798737Y-55508261D01*
X93822343Y-55596147D01*
X93843165Y-55662443D01*
X93849054Y-55677837D01*
X93867756Y-55726519D01*
X93875305Y-55754331D01*
X93874820Y-55756448D01*
X93854898Y-55767668D01*
X93807920Y-55793671D01*
X93743946Y-55828889D01*
X93742250Y-55829820D01*
X93656671Y-55879473D01*
X93568343Y-55934824D01*
X93514835Y-55970995D01*
X93465416Y-56001008D01*
X93390454Y-56040426D01*
X93298680Y-56085309D01*
X93198824Y-56131716D01*
X93099617Y-56175705D01*
X93009790Y-56213334D01*
X92938074Y-56240663D01*
X92893199Y-56253749D01*
X92887216Y-56254333D01*
X92864706Y-56243103D01*
X92863615Y-56238458D01*
X92861385Y-56201003D01*
X92855634Y-56128682D01*
X92847043Y-56028753D01*
X92836291Y-55908476D01*
X92824060Y-55775109D01*
X92811030Y-55635909D01*
X92797881Y-55498137D01*
X92785294Y-55369049D01*
X92773949Y-55255905D01*
X92764526Y-55165963D01*
X92757706Y-55106481D01*
X92756965Y-55100750D01*
X92698303Y-54756081D01*
X92618518Y-54447930D01*
X92517504Y-54176069D01*
X92395156Y-53940267D01*
X92251367Y-53740295D01*
X92086031Y-53575925D01*
X92033944Y-53534813D01*
X91970351Y-53486017D01*
X91923328Y-53447511D01*
X91900361Y-53425526D01*
X91899404Y-53422873D01*
X91921495Y-53424102D01*
X91921495Y-53424102D01*
G37*
X91921495Y-53424102D02*
X91976168Y-53432502D01*
X92054563Y-53446600D01*
X92125579Y-53460427D01*
X92368937Y-53527458D01*
X92587305Y-53626841D01*
X92785564Y-53760932D01*
X92836355Y-53803459D01*
X93083830Y-54047381D01*
X93299511Y-54318316D01*
X93481915Y-54613727D01*
X93629562Y-54931074D01*
X93740969Y-55267820D01*
X93776403Y-55413539D01*
X93798737Y-55508261D01*
X93822343Y-55596147D01*
X93843165Y-55662443D01*
X93849054Y-55677837D01*
X93867756Y-55726519D01*
X93875305Y-55754331D01*
X93874820Y-55756448D01*
X93854898Y-55767668D01*
X93807920Y-55793671D01*
X93743946Y-55828889D01*
X93742250Y-55829820D01*
X93656671Y-55879473D01*
X93568343Y-55934824D01*
X93514835Y-55970995D01*
X93465416Y-56001008D01*
X93390454Y-56040426D01*
X93298680Y-56085309D01*
X93198824Y-56131716D01*
X93099617Y-56175705D01*
X93009790Y-56213334D01*
X92938074Y-56240663D01*
X92893199Y-56253749D01*
X92887216Y-56254333D01*
X92864706Y-56243103D01*
X92863615Y-56238458D01*
X92861385Y-56201003D01*
X92855634Y-56128682D01*
X92847043Y-56028753D01*
X92836291Y-55908476D01*
X92824060Y-55775109D01*
X92811030Y-55635909D01*
X92797881Y-55498137D01*
X92785294Y-55369049D01*
X92773949Y-55255905D01*
X92764526Y-55165963D01*
X92757706Y-55106481D01*
X92756965Y-55100750D01*
X92698303Y-54756081D01*
X92618518Y-54447930D01*
X92517504Y-54176069D01*
X92395156Y-53940267D01*
X92251367Y-53740295D01*
X92086031Y-53575925D01*
X92033944Y-53534813D01*
X91970351Y-53486017D01*
X91923328Y-53447511D01*
X91900361Y-53425526D01*
X91899404Y-53422873D01*
X91921495Y-53424102D01*
G36*
X85383838Y-51270790D02*
X85464055Y-51292175D01*
X85556285Y-51321863D01*
X85651541Y-51357119D01*
X85740832Y-51395205D01*
X85765557Y-51406992D01*
X85858602Y-51456114D01*
X85953899Y-51513901D01*
X86055262Y-51583377D01*
X86166505Y-51667566D01*
X86291444Y-51769490D01*
X86433891Y-51892173D01*
X86597663Y-52038638D01*
X86786573Y-52211908D01*
X86819023Y-52241985D01*
X86968699Y-52385107D01*
X87129489Y-52546442D01*
X87297734Y-52721752D01*
X87469773Y-52906800D01*
X87641949Y-53097349D01*
X87810599Y-53289160D01*
X87972065Y-53477997D01*
X88122688Y-53659623D01*
X88258806Y-53829799D01*
X88376761Y-53984288D01*
X88472892Y-54118854D01*
X88543540Y-54229258D01*
X88558943Y-54256526D01*
X88575384Y-54289350D01*
X88580825Y-54317023D01*
X88572503Y-54349557D01*
X88547655Y-54396963D01*
X88503518Y-54469253D01*
X88497601Y-54478776D01*
X88389316Y-54679058D01*
X88291486Y-54912545D01*
X88207562Y-55170691D01*
X88185824Y-55250846D01*
X88136712Y-55461452D01*
X88104210Y-55656487D01*
X88086494Y-55852358D01*
X88081737Y-56065475D01*
X88083346Y-56171695D01*
X88085862Y-56281795D01*
X88087671Y-56375153D01*
X88088658Y-56444434D01*
X88088706Y-56482301D01*
X88088354Y-56487166D01*
X88080080Y-56468344D01*
X88058011Y-56415141D01*
X88024143Y-56332454D01*
X87980474Y-56225179D01*
X87929002Y-56098214D01*
X87871723Y-55956455D01*
X87857407Y-55920958D01*
X87688320Y-55508169D01*
X87527849Y-55130407D01*
X87373426Y-54781870D01*
X87222481Y-54456756D01*
X87077231Y-54158833D01*
X86996271Y-53998524D01*
X86918355Y-53848405D01*
X86840992Y-53704439D01*
X86761691Y-53562588D01*
X86677960Y-53418813D01*
X86587308Y-53269078D01*
X86487244Y-53109345D01*
X86375277Y-52935575D01*
X86248916Y-52743732D01*
X86105669Y-52529777D01*
X85943045Y-52289673D01*
X85758553Y-52019382D01*
X85745018Y-51999610D01*
X85656926Y-51869076D01*
X85571980Y-51739741D01*
X85493177Y-51616508D01*
X85423512Y-51504280D01*
X85365980Y-51407957D01*
X85323578Y-51332444D01*
X85299301Y-51282641D01*
X85295402Y-51263875D01*
X85324625Y-51260445D01*
X85383838Y-51270790D01*
X85383838Y-51270790D01*
G37*
X85383838Y-51270790D02*
X85464055Y-51292175D01*
X85556285Y-51321863D01*
X85651541Y-51357119D01*
X85740832Y-51395205D01*
X85765557Y-51406992D01*
X85858602Y-51456114D01*
X85953899Y-51513901D01*
X86055262Y-51583377D01*
X86166505Y-51667566D01*
X86291444Y-51769490D01*
X86433891Y-51892173D01*
X86597663Y-52038638D01*
X86786573Y-52211908D01*
X86819023Y-52241985D01*
X86968699Y-52385107D01*
X87129489Y-52546442D01*
X87297734Y-52721752D01*
X87469773Y-52906800D01*
X87641949Y-53097349D01*
X87810599Y-53289160D01*
X87972065Y-53477997D01*
X88122688Y-53659623D01*
X88258806Y-53829799D01*
X88376761Y-53984288D01*
X88472892Y-54118854D01*
X88543540Y-54229258D01*
X88558943Y-54256526D01*
X88575384Y-54289350D01*
X88580825Y-54317023D01*
X88572503Y-54349557D01*
X88547655Y-54396963D01*
X88503518Y-54469253D01*
X88497601Y-54478776D01*
X88389316Y-54679058D01*
X88291486Y-54912545D01*
X88207562Y-55170691D01*
X88185824Y-55250846D01*
X88136712Y-55461452D01*
X88104210Y-55656487D01*
X88086494Y-55852358D01*
X88081737Y-56065475D01*
X88083346Y-56171695D01*
X88085862Y-56281795D01*
X88087671Y-56375153D01*
X88088658Y-56444434D01*
X88088706Y-56482301D01*
X88088354Y-56487166D01*
X88080080Y-56468344D01*
X88058011Y-56415141D01*
X88024143Y-56332454D01*
X87980474Y-56225179D01*
X87929002Y-56098214D01*
X87871723Y-55956455D01*
X87857407Y-55920958D01*
X87688320Y-55508169D01*
X87527849Y-55130407D01*
X87373426Y-54781870D01*
X87222481Y-54456756D01*
X87077231Y-54158833D01*
X86996271Y-53998524D01*
X86918355Y-53848405D01*
X86840992Y-53704439D01*
X86761691Y-53562588D01*
X86677960Y-53418813D01*
X86587308Y-53269078D01*
X86487244Y-53109345D01*
X86375277Y-52935575D01*
X86248916Y-52743732D01*
X86105669Y-52529777D01*
X85943045Y-52289673D01*
X85758553Y-52019382D01*
X85745018Y-51999610D01*
X85656926Y-51869076D01*
X85571980Y-51739741D01*
X85493177Y-51616508D01*
X85423512Y-51504280D01*
X85365980Y-51407957D01*
X85323578Y-51332444D01*
X85299301Y-51282641D01*
X85295402Y-51263875D01*
X85324625Y-51260445D01*
X85383838Y-51270790D01*
G36*
X94584148Y-55775948D02*
X94586480Y-55776198D01*
X94672544Y-55795018D01*
X94778077Y-55831884D01*
X94887935Y-55880471D01*
X94986973Y-55934449D01*
X95024588Y-55959249D01*
X95087145Y-56003793D01*
X94990296Y-56113188D01*
X94850398Y-56257092D01*
X94684667Y-56404451D01*
X94506795Y-56543560D01*
X94398417Y-56619207D01*
X94189657Y-56747291D01*
X93941358Y-56881003D01*
X93655804Y-57019399D01*
X93335275Y-57161530D01*
X92982054Y-57306451D01*
X92598421Y-57453214D01*
X92186658Y-57600873D01*
X91749048Y-57748482D01*
X91429792Y-57850885D01*
X91393362Y-57858723D01*
X91382167Y-57855756D01*
X91399393Y-57841701D01*
X91445303Y-57813001D01*
X91511247Y-57774966D01*
X91537959Y-57760155D01*
X91652358Y-57693489D01*
X91799706Y-57601014D01*
X91979605Y-57482999D01*
X92191658Y-57339713D01*
X92435466Y-57171428D01*
X92710633Y-56978412D01*
X93016760Y-56760935D01*
X93122211Y-56685492D01*
X93292542Y-56564118D01*
X93464794Y-56442626D01*
X93633169Y-56325018D01*
X93791868Y-56215299D01*
X93935090Y-56117473D01*
X94057037Y-56035545D01*
X94151909Y-55973518D01*
X94169961Y-55962066D01*
X94283305Y-55891057D01*
X94367542Y-55839786D01*
X94429302Y-55805293D01*
X94475214Y-55784621D01*
X94511906Y-55774812D01*
X94546007Y-55772907D01*
X94584148Y-55775948D01*
X94584148Y-55775948D01*
G37*
X94584148Y-55775948D02*
X94586480Y-55776198D01*
X94672544Y-55795018D01*
X94778077Y-55831884D01*
X94887935Y-55880471D01*
X94986973Y-55934449D01*
X95024588Y-55959249D01*
X95087145Y-56003793D01*
X94990296Y-56113188D01*
X94850398Y-56257092D01*
X94684667Y-56404451D01*
X94506795Y-56543560D01*
X94398417Y-56619207D01*
X94189657Y-56747291D01*
X93941358Y-56881003D01*
X93655804Y-57019399D01*
X93335275Y-57161530D01*
X92982054Y-57306451D01*
X92598421Y-57453214D01*
X92186658Y-57600873D01*
X91749048Y-57748482D01*
X91429792Y-57850885D01*
X91393362Y-57858723D01*
X91382167Y-57855756D01*
X91399393Y-57841701D01*
X91445303Y-57813001D01*
X91511247Y-57774966D01*
X91537959Y-57760155D01*
X91652358Y-57693489D01*
X91799706Y-57601014D01*
X91979605Y-57482999D01*
X92191658Y-57339713D01*
X92435466Y-57171428D01*
X92710633Y-56978412D01*
X93016760Y-56760935D01*
X93122211Y-56685492D01*
X93292542Y-56564118D01*
X93464794Y-56442626D01*
X93633169Y-56325018D01*
X93791868Y-56215299D01*
X93935090Y-56117473D01*
X94057037Y-56035545D01*
X94151909Y-55973518D01*
X94169961Y-55962066D01*
X94283305Y-55891057D01*
X94367542Y-55839786D01*
X94429302Y-55805293D01*
X94475214Y-55784621D01*
X94511906Y-55774812D01*
X94546007Y-55772907D01*
X94584148Y-55775948D01*
G36*
X93076964Y-56329979D02*
X93058592Y-56354963D01*
X93014043Y-56397632D01*
X92947558Y-56454676D01*
X92863380Y-56522786D01*
X92765752Y-56598652D01*
X92658915Y-56678964D01*
X92547112Y-56760414D01*
X92434585Y-56839691D01*
X92325576Y-56913486D01*
X92245499Y-56965251D01*
X92108324Y-57046975D01*
X91943345Y-57137769D01*
X91762352Y-57231720D01*
X91577134Y-57322914D01*
X91399482Y-57405442D01*
X91241185Y-57473388D01*
X91198346Y-57490389D01*
X90768591Y-57636482D01*
X90329180Y-57746494D01*
X89885945Y-57819484D01*
X89444714Y-57854508D01*
X89011318Y-57850626D01*
X88979750Y-57848769D01*
X88883478Y-57841396D01*
X88779511Y-57831204D01*
X88676666Y-57819337D01*
X88583758Y-57806943D01*
X88509605Y-57795168D01*
X88463021Y-57785158D01*
X88451675Y-57780098D01*
X88446248Y-57756314D01*
X88436023Y-57698882D01*
X88422271Y-57616051D01*
X88406266Y-57516069D01*
X88389279Y-57407186D01*
X88372585Y-57297648D01*
X88357454Y-57195705D01*
X88345160Y-57109605D01*
X88336976Y-57047597D01*
X88334167Y-57018481D01*
X88352204Y-57008704D01*
X88402959Y-57018478D01*
X88451658Y-57030343D01*
X88530422Y-57046756D01*
X88627546Y-57065367D01*
X88711979Y-57080500D01*
X88979011Y-57113175D01*
X89278975Y-57125073D01*
X89608239Y-57116753D01*
X89963170Y-57088774D01*
X90340135Y-57041694D01*
X90735503Y-56976071D01*
X91145641Y-56892463D01*
X91566917Y-56791430D01*
X91995698Y-56673529D01*
X92428353Y-56539319D01*
X92594569Y-56483629D01*
X92723862Y-56439552D01*
X92841522Y-56399718D01*
X92940966Y-56366335D01*
X93015608Y-56341609D01*
X93058865Y-56327747D01*
X93064917Y-56325989D01*
X93076964Y-56329979D01*
X93076964Y-56329979D01*
G37*
X93076964Y-56329979D02*
X93058592Y-56354963D01*
X93014043Y-56397632D01*
X92947558Y-56454676D01*
X92863380Y-56522786D01*
X92765752Y-56598652D01*
X92658915Y-56678964D01*
X92547112Y-56760414D01*
X92434585Y-56839691D01*
X92325576Y-56913486D01*
X92245499Y-56965251D01*
X92108324Y-57046975D01*
X91943345Y-57137769D01*
X91762352Y-57231720D01*
X91577134Y-57322914D01*
X91399482Y-57405442D01*
X91241185Y-57473388D01*
X91198346Y-57490389D01*
X90768591Y-57636482D01*
X90329180Y-57746494D01*
X89885945Y-57819484D01*
X89444714Y-57854508D01*
X89011318Y-57850626D01*
X88979750Y-57848769D01*
X88883478Y-57841396D01*
X88779511Y-57831204D01*
X88676666Y-57819337D01*
X88583758Y-57806943D01*
X88509605Y-57795168D01*
X88463021Y-57785158D01*
X88451675Y-57780098D01*
X88446248Y-57756314D01*
X88436023Y-57698882D01*
X88422271Y-57616051D01*
X88406266Y-57516069D01*
X88389279Y-57407186D01*
X88372585Y-57297648D01*
X88357454Y-57195705D01*
X88345160Y-57109605D01*
X88336976Y-57047597D01*
X88334167Y-57018481D01*
X88352204Y-57008704D01*
X88402959Y-57018478D01*
X88451658Y-57030343D01*
X88530422Y-57046756D01*
X88627546Y-57065367D01*
X88711979Y-57080500D01*
X88979011Y-57113175D01*
X89278975Y-57125073D01*
X89608239Y-57116753D01*
X89963170Y-57088774D01*
X90340135Y-57041694D01*
X90735503Y-56976071D01*
X91145641Y-56892463D01*
X91566917Y-56791430D01*
X91995698Y-56673529D01*
X92428353Y-56539319D01*
X92594569Y-56483629D01*
X92723862Y-56439552D01*
X92841522Y-56399718D01*
X92940966Y-56366335D01*
X93015608Y-56341609D01*
X93058865Y-56327747D01*
X93064917Y-56325989D01*
X93076964Y-56329979D01*
G36*
X94367166Y-56823331D02*
X94384086Y-56872632D01*
X94405913Y-56942531D01*
X94409434Y-56954290D01*
X94430668Y-57021713D01*
X94456766Y-57096563D01*
X94489716Y-57183773D01*
X94531505Y-57288279D01*
X94584121Y-57415018D01*
X94649552Y-57568924D01*
X94729784Y-57754933D01*
X94758312Y-57820666D01*
X94894894Y-58145316D01*
X95022357Y-58468731D01*
X95139524Y-58786957D01*
X95245220Y-59096042D01*
X95338268Y-59392032D01*
X95417493Y-59670975D01*
X95481719Y-59928916D01*
X95529769Y-60161903D01*
X95560469Y-60365982D01*
X95572641Y-60537202D01*
X95572799Y-60558796D01*
X95562412Y-60740378D01*
X95530447Y-60914415D01*
X95474500Y-61086155D01*
X95392168Y-61260843D01*
X95281047Y-61443727D01*
X95138733Y-61640052D01*
X94997740Y-61813957D01*
X94940402Y-61877628D01*
X94860664Y-61960203D01*
X94765122Y-62055424D01*
X94660368Y-62157032D01*
X94552999Y-62258769D01*
X94449608Y-62354379D01*
X94356790Y-62437602D01*
X94281139Y-62502181D01*
X94234365Y-62538368D01*
X94197819Y-62565659D01*
X94138103Y-62612118D01*
X94064872Y-62670183D01*
X94017417Y-62708291D01*
X93677102Y-62956087D01*
X93315790Y-63168141D01*
X92936528Y-63343549D01*
X92542367Y-63481409D01*
X92136357Y-63580817D01*
X91721546Y-63640871D01*
X91300984Y-63660668D01*
X90877720Y-63639304D01*
X90874167Y-63638948D01*
X90470596Y-63579260D01*
X90085264Y-63483620D01*
X89720029Y-63352849D01*
X89376748Y-63187767D01*
X89057277Y-62989193D01*
X88787690Y-62777008D01*
X91629817Y-62777008D01*
X91744117Y-62842853D01*
X91871674Y-62912682D01*
X91976123Y-62960036D01*
X92067965Y-62988182D01*
X92157699Y-63000386D01*
X92250000Y-63000216D01*
X92377649Y-62986069D01*
X92476767Y-62956361D01*
X92500813Y-62945002D01*
X92622988Y-62864810D01*
X92752879Y-62747649D01*
X92887672Y-62597553D01*
X93024553Y-62418557D01*
X93160710Y-62214694D01*
X93293329Y-61990000D01*
X93419596Y-61748508D01*
X93536698Y-61494252D01*
X93573323Y-61407084D01*
X93614021Y-61311875D01*
X93656125Y-61219998D01*
X93692638Y-61146511D01*
X93704060Y-61125726D01*
X93757234Y-61033535D01*
X93665076Y-61048256D01*
X93557122Y-61066152D01*
X93482107Y-61083126D01*
X93431199Y-61105144D01*
X93395567Y-61138174D01*
X93366380Y-61188180D01*
X93334807Y-61261129D01*
X93328936Y-61275348D01*
X93208612Y-61524099D01*
X93057035Y-61768489D01*
X92881285Y-61999339D01*
X92688440Y-62207470D01*
X92485580Y-62383704D01*
X92458473Y-62404064D01*
X92271424Y-62525086D01*
X92061786Y-62632090D01*
X91847048Y-62716769D01*
X91722950Y-62753426D01*
X91629817Y-62777008D01*
X88787690Y-62777008D01*
X88763475Y-62757949D01*
X88656783Y-62659599D01*
X88576982Y-62579013D01*
X88489262Y-62484245D01*
X88399135Y-62381939D01*
X88312112Y-62278741D01*
X88233706Y-62181294D01*
X88169426Y-62096243D01*
X88124784Y-62030234D01*
X88107611Y-61997494D01*
X88113022Y-61962719D01*
X88141661Y-61902450D01*
X88189394Y-61823492D01*
X88252086Y-61732651D01*
X88325600Y-61636732D01*
X88330506Y-61630666D01*
X88433245Y-61484899D01*
X88499968Y-61341819D01*
X88534951Y-61191124D01*
X88541208Y-61123085D01*
X88543568Y-61067161D01*
X88542621Y-61017463D01*
X88536719Y-60966741D01*
X88524216Y-60907745D01*
X88503467Y-60833222D01*
X88472824Y-60735923D01*
X88430643Y-60608597D01*
X88411358Y-60551166D01*
X88346036Y-60354131D01*
X88293713Y-60188898D01*
X88252373Y-60047688D01*
X88220003Y-59922723D01*
X88194587Y-59806221D01*
X88175339Y-59697342D01*
X88610687Y-59697342D01*
X88618168Y-59953681D01*
X88663816Y-60206429D01*
X88746791Y-60450488D01*
X88866253Y-60680763D01*
X88986412Y-60850250D01*
X89116680Y-61011750D01*
X89323382Y-61027243D01*
X89443176Y-61038914D01*
X89575628Y-61055980D01*
X89696200Y-61075198D01*
X89720584Y-61079759D01*
X89805930Y-61095165D01*
X89875132Y-61105453D01*
X89918032Y-61109215D01*
X89926384Y-61108246D01*
X89939985Y-61085074D01*
X89960714Y-61032726D01*
X89983215Y-60965252D01*
X90007722Y-60881096D01*
X90028752Y-60800537D01*
X90039480Y-60752251D01*
X90047525Y-60701960D01*
X90042014Y-60685039D01*
X90017694Y-60693346D01*
X90005600Y-60699725D01*
X89927936Y-60719921D01*
X89827547Y-60714528D01*
X89713047Y-60686424D01*
X89593046Y-60638485D01*
X89476157Y-60573586D01*
X89370991Y-60494604D01*
X89358973Y-60483768D01*
X89272141Y-60382611D01*
X89197993Y-60256805D01*
X89145141Y-60123127D01*
X89124576Y-60027104D01*
X89111437Y-59916166D01*
X89189520Y-59916166D01*
X89293565Y-59898825D01*
X89374841Y-59846022D01*
X89432666Y-59761894D01*
X89463879Y-59666944D01*
X89476628Y-59559791D01*
X89469971Y-59458271D01*
X89451879Y-59396991D01*
X89414923Y-59347777D01*
X89362606Y-59308403D01*
X89298620Y-59275315D01*
X89358359Y-59220384D01*
X91692638Y-59220384D01*
X91699481Y-59307115D01*
X91744967Y-59588714D01*
X91823610Y-59865543D01*
X91932104Y-60129971D01*
X92067141Y-60374369D01*
X92225416Y-60591108D01*
X92285257Y-60658559D01*
X92383247Y-60763318D01*
X92504777Y-60647398D01*
X92577524Y-60584021D01*
X92671364Y-60510632D01*
X92771035Y-60438911D01*
X92819281Y-60406684D01*
X92927888Y-60340446D01*
X93052369Y-60270618D01*
X93171674Y-60208834D01*
X93213214Y-60188986D01*
X93414174Y-60096083D01*
X93458194Y-59979666D01*
X93505259Y-59830171D01*
X93531291Y-59679750D01*
X93538405Y-59513057D01*
X93535526Y-59418750D01*
X93510112Y-59212234D01*
X93456801Y-59000251D01*
X93380597Y-58800110D01*
X93325420Y-58691951D01*
X93236884Y-58562823D01*
X93123068Y-58435395D01*
X92992499Y-58316537D01*
X92853701Y-58213122D01*
X92715201Y-58132023D01*
X92585523Y-58080111D01*
X92557495Y-58072945D01*
X92483651Y-58060406D01*
X92419550Y-58062031D01*
X92343187Y-58078913D01*
X92323260Y-58084578D01*
X92260974Y-58105740D01*
X92207330Y-58133257D01*
X92152070Y-58174243D01*
X92084938Y-58235815D01*
X92037352Y-58282926D01*
X91897739Y-58444534D01*
X91795159Y-58613934D01*
X91727915Y-58796276D01*
X91694308Y-58996709D01*
X91692638Y-59220384D01*
X89358359Y-59220384D01*
X89409879Y-59173011D01*
X89479303Y-59116663D01*
X89551002Y-59070279D01*
X89604986Y-59045587D01*
X89657047Y-59026472D01*
X89686423Y-59008863D01*
X89688834Y-59004296D01*
X89672085Y-58977140D01*
X89627594Y-58934880D01*
X89563991Y-58884070D01*
X89489905Y-58831265D01*
X89413968Y-58783018D01*
X89355075Y-58750815D01*
X89281039Y-58716354D01*
X89230638Y-58700026D01*
X89190692Y-58699066D01*
X89153992Y-58708648D01*
X89029027Y-58771935D01*
X88912983Y-58871222D01*
X88811485Y-59000308D01*
X88730160Y-59152989D01*
X88713582Y-59194271D01*
X88642212Y-59442506D01*
X88610687Y-59697342D01*
X88175339Y-59697342D01*
X88174112Y-59690404D01*
X88156562Y-59567493D01*
X88156487Y-59566916D01*
X88138006Y-59451635D01*
X88113406Y-59335166D01*
X88086514Y-59234521D01*
X88072155Y-59192129D01*
X88015759Y-58987391D01*
X88001113Y-58777456D01*
X88016042Y-58623435D01*
X88037789Y-58518797D01*
X88066357Y-58421785D01*
X88098544Y-58339934D01*
X88131151Y-58280773D01*
X88160976Y-58251837D01*
X88174219Y-58251194D01*
X88264221Y-58277192D01*
X88388750Y-58300914D01*
X88540027Y-58321708D01*
X88710276Y-58338922D01*
X88891721Y-58351901D01*
X89076584Y-58359995D01*
X89257090Y-58362550D01*
X89425461Y-58358913D01*
X89446253Y-58357942D01*
X89583302Y-58353194D01*
X89685666Y-58355815D01*
X89760620Y-58367574D01*
X89815441Y-58390240D01*
X89857405Y-58425583D01*
X89887262Y-58465168D01*
X89923209Y-58503839D01*
X89958386Y-58518544D01*
X89981572Y-58506547D01*
X89985167Y-58489040D01*
X89972350Y-58454317D01*
X89940629Y-58406420D01*
X89931548Y-58395192D01*
X89877930Y-58331471D01*
X89979173Y-58317940D01*
X90345687Y-58258032D01*
X90738633Y-58173150D01*
X91151404Y-58064786D01*
X91323959Y-58014181D01*
X91409791Y-57988873D01*
X91478162Y-57969885D01*
X91520597Y-57959499D01*
X91530334Y-57958604D01*
X91521615Y-57979556D01*
X91498994Y-58027042D01*
X91473894Y-58077724D01*
X91446100Y-58148928D01*
X91425964Y-58230859D01*
X91414575Y-58312698D01*
X91413020Y-58383628D01*
X91422389Y-58432831D01*
X91436551Y-58448745D01*
X91453442Y-58433881D01*
X91479815Y-58387450D01*
X91511221Y-58317859D01*
X91527461Y-58276903D01*
X91581566Y-58152587D01*
X91642327Y-58053288D01*
X91701362Y-57981591D01*
X91740436Y-57939707D01*
X91775123Y-57907183D01*
X91812635Y-57880351D01*
X91860188Y-57855545D01*
X91924996Y-57829098D01*
X92014274Y-57797344D01*
X92135236Y-57756617D01*
X92160803Y-57748093D01*
X92311509Y-57699216D01*
X92430550Y-57664654D01*
X92525718Y-57643388D01*
X92604807Y-57634398D01*
X92675609Y-57636667D01*
X92745917Y-57649174D01*
X92801783Y-57664296D01*
X92898908Y-57696725D01*
X92991863Y-57736477D01*
X93087654Y-57787684D01*
X93193283Y-57854478D01*
X93315754Y-57940992D01*
X93462071Y-58051357D01*
X93475945Y-58062057D01*
X93494625Y-58071042D01*
X93498430Y-58051794D01*
X93492249Y-58011166D01*
X93462887Y-57944333D01*
X93401341Y-57866891D01*
X93314343Y-57784891D01*
X93208627Y-57704383D01*
X93090925Y-57631417D01*
X93039856Y-57604635D01*
X92964016Y-57566274D01*
X92905774Y-57535320D01*
X92873175Y-57516127D01*
X92869080Y-57512173D01*
X92889604Y-57503119D01*
X92942751Y-57481529D01*
X93021661Y-57450141D01*
X93119477Y-57411692D01*
X93181334Y-57387561D01*
X93428901Y-57286012D01*
X93673362Y-57175901D01*
X93903403Y-57062642D01*
X94107712Y-56951648D01*
X94174254Y-56912400D01*
X94250364Y-56866698D01*
X94311594Y-56830616D01*
X94349868Y-56808875D01*
X94358566Y-56804666D01*
X94367166Y-56823331D01*
X94367166Y-56823331D01*
G37*
X94367166Y-56823331D02*
X94384086Y-56872632D01*
X94405913Y-56942531D01*
X94409434Y-56954290D01*
X94430668Y-57021713D01*
X94456766Y-57096563D01*
X94489716Y-57183773D01*
X94531505Y-57288279D01*
X94584121Y-57415018D01*
X94649552Y-57568924D01*
X94729784Y-57754933D01*
X94758312Y-57820666D01*
X94894894Y-58145316D01*
X95022357Y-58468731D01*
X95139524Y-58786957D01*
X95245220Y-59096042D01*
X95338268Y-59392032D01*
X95417493Y-59670975D01*
X95481719Y-59928916D01*
X95529769Y-60161903D01*
X95560469Y-60365982D01*
X95572641Y-60537202D01*
X95572799Y-60558796D01*
X95562412Y-60740378D01*
X95530447Y-60914415D01*
X95474500Y-61086155D01*
X95392168Y-61260843D01*
X95281047Y-61443727D01*
X95138733Y-61640052D01*
X94997740Y-61813957D01*
X94940402Y-61877628D01*
X94860664Y-61960203D01*
X94765122Y-62055424D01*
X94660368Y-62157032D01*
X94552999Y-62258769D01*
X94449608Y-62354379D01*
X94356790Y-62437602D01*
X94281139Y-62502181D01*
X94234365Y-62538368D01*
X94197819Y-62565659D01*
X94138103Y-62612118D01*
X94064872Y-62670183D01*
X94017417Y-62708291D01*
X93677102Y-62956087D01*
X93315790Y-63168141D01*
X92936528Y-63343549D01*
X92542367Y-63481409D01*
X92136357Y-63580817D01*
X91721546Y-63640871D01*
X91300984Y-63660668D01*
X90877720Y-63639304D01*
X90874167Y-63638948D01*
X90470596Y-63579260D01*
X90085264Y-63483620D01*
X89720029Y-63352849D01*
X89376748Y-63187767D01*
X89057277Y-62989193D01*
X88787690Y-62777008D01*
X91629817Y-62777008D01*
X91744117Y-62842853D01*
X91871674Y-62912682D01*
X91976123Y-62960036D01*
X92067965Y-62988182D01*
X92157699Y-63000386D01*
X92250000Y-63000216D01*
X92377649Y-62986069D01*
X92476767Y-62956361D01*
X92500813Y-62945002D01*
X92622988Y-62864810D01*
X92752879Y-62747649D01*
X92887672Y-62597553D01*
X93024553Y-62418557D01*
X93160710Y-62214694D01*
X93293329Y-61990000D01*
X93419596Y-61748508D01*
X93536698Y-61494252D01*
X93573323Y-61407084D01*
X93614021Y-61311875D01*
X93656125Y-61219998D01*
X93692638Y-61146511D01*
X93704060Y-61125726D01*
X93757234Y-61033535D01*
X93665076Y-61048256D01*
X93557122Y-61066152D01*
X93482107Y-61083126D01*
X93431199Y-61105144D01*
X93395567Y-61138174D01*
X93366380Y-61188180D01*
X93334807Y-61261129D01*
X93328936Y-61275348D01*
X93208612Y-61524099D01*
X93057035Y-61768489D01*
X92881285Y-61999339D01*
X92688440Y-62207470D01*
X92485580Y-62383704D01*
X92458473Y-62404064D01*
X92271424Y-62525086D01*
X92061786Y-62632090D01*
X91847048Y-62716769D01*
X91722950Y-62753426D01*
X91629817Y-62777008D01*
X88787690Y-62777008D01*
X88763475Y-62757949D01*
X88656783Y-62659599D01*
X88576982Y-62579013D01*
X88489262Y-62484245D01*
X88399135Y-62381939D01*
X88312112Y-62278741D01*
X88233706Y-62181294D01*
X88169426Y-62096243D01*
X88124784Y-62030234D01*
X88107611Y-61997494D01*
X88113022Y-61962719D01*
X88141661Y-61902450D01*
X88189394Y-61823492D01*
X88252086Y-61732651D01*
X88325600Y-61636732D01*
X88330506Y-61630666D01*
X88433245Y-61484899D01*
X88499968Y-61341819D01*
X88534951Y-61191124D01*
X88541208Y-61123085D01*
X88543568Y-61067161D01*
X88542621Y-61017463D01*
X88536719Y-60966741D01*
X88524216Y-60907745D01*
X88503467Y-60833222D01*
X88472824Y-60735923D01*
X88430643Y-60608597D01*
X88411358Y-60551166D01*
X88346036Y-60354131D01*
X88293713Y-60188898D01*
X88252373Y-60047688D01*
X88220003Y-59922723D01*
X88194587Y-59806221D01*
X88175339Y-59697342D01*
X88610687Y-59697342D01*
X88618168Y-59953681D01*
X88663816Y-60206429D01*
X88746791Y-60450488D01*
X88866253Y-60680763D01*
X88986412Y-60850250D01*
X89116680Y-61011750D01*
X89323382Y-61027243D01*
X89443176Y-61038914D01*
X89575628Y-61055980D01*
X89696200Y-61075198D01*
X89720584Y-61079759D01*
X89805930Y-61095165D01*
X89875132Y-61105453D01*
X89918032Y-61109215D01*
X89926384Y-61108246D01*
X89939985Y-61085074D01*
X89960714Y-61032726D01*
X89983215Y-60965252D01*
X90007722Y-60881096D01*
X90028752Y-60800537D01*
X90039480Y-60752251D01*
X90047525Y-60701960D01*
X90042014Y-60685039D01*
X90017694Y-60693346D01*
X90005600Y-60699725D01*
X89927936Y-60719921D01*
X89827547Y-60714528D01*
X89713047Y-60686424D01*
X89593046Y-60638485D01*
X89476157Y-60573586D01*
X89370991Y-60494604D01*
X89358973Y-60483768D01*
X89272141Y-60382611D01*
X89197993Y-60256805D01*
X89145141Y-60123127D01*
X89124576Y-60027104D01*
X89111437Y-59916166D01*
X89189520Y-59916166D01*
X89293565Y-59898825D01*
X89374841Y-59846022D01*
X89432666Y-59761894D01*
X89463879Y-59666944D01*
X89476628Y-59559791D01*
X89469971Y-59458271D01*
X89451879Y-59396991D01*
X89414923Y-59347777D01*
X89362606Y-59308403D01*
X89298620Y-59275315D01*
X89358359Y-59220384D01*
X91692638Y-59220384D01*
X91699481Y-59307115D01*
X91744967Y-59588714D01*
X91823610Y-59865543D01*
X91932104Y-60129971D01*
X92067141Y-60374369D01*
X92225416Y-60591108D01*
X92285257Y-60658559D01*
X92383247Y-60763318D01*
X92504777Y-60647398D01*
X92577524Y-60584021D01*
X92671364Y-60510632D01*
X92771035Y-60438911D01*
X92819281Y-60406684D01*
X92927888Y-60340446D01*
X93052369Y-60270618D01*
X93171674Y-60208834D01*
X93213214Y-60188986D01*
X93414174Y-60096083D01*
X93458194Y-59979666D01*
X93505259Y-59830171D01*
X93531291Y-59679750D01*
X93538405Y-59513057D01*
X93535526Y-59418750D01*
X93510112Y-59212234D01*
X93456801Y-59000251D01*
X93380597Y-58800110D01*
X93325420Y-58691951D01*
X93236884Y-58562823D01*
X93123068Y-58435395D01*
X92992499Y-58316537D01*
X92853701Y-58213122D01*
X92715201Y-58132023D01*
X92585523Y-58080111D01*
X92557495Y-58072945D01*
X92483651Y-58060406D01*
X92419550Y-58062031D01*
X92343187Y-58078913D01*
X92323260Y-58084578D01*
X92260974Y-58105740D01*
X92207330Y-58133257D01*
X92152070Y-58174243D01*
X92084938Y-58235815D01*
X92037352Y-58282926D01*
X91897739Y-58444534D01*
X91795159Y-58613934D01*
X91727915Y-58796276D01*
X91694308Y-58996709D01*
X91692638Y-59220384D01*
X89358359Y-59220384D01*
X89409879Y-59173011D01*
X89479303Y-59116663D01*
X89551002Y-59070279D01*
X89604986Y-59045587D01*
X89657047Y-59026472D01*
X89686423Y-59008863D01*
X89688834Y-59004296D01*
X89672085Y-58977140D01*
X89627594Y-58934880D01*
X89563991Y-58884070D01*
X89489905Y-58831265D01*
X89413968Y-58783018D01*
X89355075Y-58750815D01*
X89281039Y-58716354D01*
X89230638Y-58700026D01*
X89190692Y-58699066D01*
X89153992Y-58708648D01*
X89029027Y-58771935D01*
X88912983Y-58871222D01*
X88811485Y-59000308D01*
X88730160Y-59152989D01*
X88713582Y-59194271D01*
X88642212Y-59442506D01*
X88610687Y-59697342D01*
X88175339Y-59697342D01*
X88174112Y-59690404D01*
X88156562Y-59567493D01*
X88156487Y-59566916D01*
X88138006Y-59451635D01*
X88113406Y-59335166D01*
X88086514Y-59234521D01*
X88072155Y-59192129D01*
X88015759Y-58987391D01*
X88001113Y-58777456D01*
X88016042Y-58623435D01*
X88037789Y-58518797D01*
X88066357Y-58421785D01*
X88098544Y-58339934D01*
X88131151Y-58280773D01*
X88160976Y-58251837D01*
X88174219Y-58251194D01*
X88264221Y-58277192D01*
X88388750Y-58300914D01*
X88540027Y-58321708D01*
X88710276Y-58338922D01*
X88891721Y-58351901D01*
X89076584Y-58359995D01*
X89257090Y-58362550D01*
X89425461Y-58358913D01*
X89446253Y-58357942D01*
X89583302Y-58353194D01*
X89685666Y-58355815D01*
X89760620Y-58367574D01*
X89815441Y-58390240D01*
X89857405Y-58425583D01*
X89887262Y-58465168D01*
X89923209Y-58503839D01*
X89958386Y-58518544D01*
X89981572Y-58506547D01*
X89985167Y-58489040D01*
X89972350Y-58454317D01*
X89940629Y-58406420D01*
X89931548Y-58395192D01*
X89877930Y-58331471D01*
X89979173Y-58317940D01*
X90345687Y-58258032D01*
X90738633Y-58173150D01*
X91151404Y-58064786D01*
X91323959Y-58014181D01*
X91409791Y-57988873D01*
X91478162Y-57969885D01*
X91520597Y-57959499D01*
X91530334Y-57958604D01*
X91521615Y-57979556D01*
X91498994Y-58027042D01*
X91473894Y-58077724D01*
X91446100Y-58148928D01*
X91425964Y-58230859D01*
X91414575Y-58312698D01*
X91413020Y-58383628D01*
X91422389Y-58432831D01*
X91436551Y-58448745D01*
X91453442Y-58433881D01*
X91479815Y-58387450D01*
X91511221Y-58317859D01*
X91527461Y-58276903D01*
X91581566Y-58152587D01*
X91642327Y-58053288D01*
X91701362Y-57981591D01*
X91740436Y-57939707D01*
X91775123Y-57907183D01*
X91812635Y-57880351D01*
X91860188Y-57855545D01*
X91924996Y-57829098D01*
X92014274Y-57797344D01*
X92135236Y-57756617D01*
X92160803Y-57748093D01*
X92311509Y-57699216D01*
X92430550Y-57664654D01*
X92525718Y-57643388D01*
X92604807Y-57634398D01*
X92675609Y-57636667D01*
X92745917Y-57649174D01*
X92801783Y-57664296D01*
X92898908Y-57696725D01*
X92991863Y-57736477D01*
X93087654Y-57787684D01*
X93193283Y-57854478D01*
X93315754Y-57940992D01*
X93462071Y-58051357D01*
X93475945Y-58062057D01*
X93494625Y-58071042D01*
X93498430Y-58051794D01*
X93492249Y-58011166D01*
X93462887Y-57944333D01*
X93401341Y-57866891D01*
X93314343Y-57784891D01*
X93208627Y-57704383D01*
X93090925Y-57631417D01*
X93039856Y-57604635D01*
X92964016Y-57566274D01*
X92905774Y-57535320D01*
X92873175Y-57516127D01*
X92869080Y-57512173D01*
X92889604Y-57503119D01*
X92942751Y-57481529D01*
X93021661Y-57450141D01*
X93119477Y-57411692D01*
X93181334Y-57387561D01*
X93428901Y-57286012D01*
X93673362Y-57175901D01*
X93903403Y-57062642D01*
X94107712Y-56951648D01*
X94174254Y-56912400D01*
X94250364Y-56866698D01*
X94311594Y-56830616D01*
X94349868Y-56808875D01*
X94358566Y-56804666D01*
X94367166Y-56823331D01*
G36*
X96574864Y-64185492D02*
X96593219Y-64210366D01*
X96625318Y-64267788D01*
X96668189Y-64351413D01*
X96718862Y-64454896D01*
X96774363Y-64571890D01*
X96831722Y-64696052D01*
X96887968Y-64821034D01*
X96940128Y-64940493D01*
X96985232Y-65048082D01*
X97018925Y-65133750D01*
X97065603Y-65263179D01*
X97115823Y-65410070D01*
X97162471Y-65553277D01*
X97188777Y-65638618D01*
X97263565Y-65889486D01*
X97026907Y-66000777D01*
X96898174Y-66059716D01*
X96764363Y-66118198D01*
X96634038Y-66172727D01*
X96515762Y-66219810D01*
X96418096Y-66255952D01*
X96349603Y-66277658D01*
X96346606Y-66278426D01*
X96288188Y-66293088D01*
X96302343Y-65999169D01*
X96311287Y-65841139D01*
X96322740Y-65712917D01*
X96339226Y-65601975D01*
X96363267Y-65495787D01*
X96397385Y-65381826D01*
X96444102Y-65247566D01*
X96465413Y-65189350D01*
X96520043Y-65034204D01*
X96567841Y-64884572D01*
X96606775Y-64747870D01*
X96634810Y-64631515D01*
X96649911Y-64542921D01*
X96651972Y-64509333D01*
X96645037Y-64462701D01*
X96627269Y-64391943D01*
X96603319Y-64314836D01*
X96582412Y-64247699D01*
X96571866Y-64201463D01*
X96573629Y-64184986D01*
X96574864Y-64185492D01*
X96574864Y-64185492D01*
G37*
X96574864Y-64185492D02*
X96593219Y-64210366D01*
X96625318Y-64267788D01*
X96668189Y-64351413D01*
X96718862Y-64454896D01*
X96774363Y-64571890D01*
X96831722Y-64696052D01*
X96887968Y-64821034D01*
X96940128Y-64940493D01*
X96985232Y-65048082D01*
X97018925Y-65133750D01*
X97065603Y-65263179D01*
X97115823Y-65410070D01*
X97162471Y-65553277D01*
X97188777Y-65638618D01*
X97263565Y-65889486D01*
X97026907Y-66000777D01*
X96898174Y-66059716D01*
X96764363Y-66118198D01*
X96634038Y-66172727D01*
X96515762Y-66219810D01*
X96418096Y-66255952D01*
X96349603Y-66277658D01*
X96346606Y-66278426D01*
X96288188Y-66293088D01*
X96302343Y-65999169D01*
X96311287Y-65841139D01*
X96322740Y-65712917D01*
X96339226Y-65601975D01*
X96363267Y-65495787D01*
X96397385Y-65381826D01*
X96444102Y-65247566D01*
X96465413Y-65189350D01*
X96520043Y-65034204D01*
X96567841Y-64884572D01*
X96606775Y-64747870D01*
X96634810Y-64631515D01*
X96649911Y-64542921D01*
X96651972Y-64509333D01*
X96645037Y-64462701D01*
X96627269Y-64391943D01*
X96603319Y-64314836D01*
X96582412Y-64247699D01*
X96571866Y-64201463D01*
X96573629Y-64184986D01*
X96574864Y-64185492D01*
G36*
X95464078Y-66713676D02*
X95464974Y-66745726D01*
X95459182Y-66813142D01*
X95447617Y-66909645D01*
X95431195Y-67028955D01*
X95410829Y-67164792D01*
X95387434Y-67310878D01*
X95361926Y-67460933D01*
X95335219Y-67608678D01*
X95328496Y-67644338D01*
X95301852Y-67789743D01*
X95275232Y-67944414D01*
X95251004Y-68093944D01*
X95231538Y-68223926D01*
X95224043Y-68279338D01*
X95205491Y-68423586D01*
X95191014Y-68530621D01*
X95179272Y-68605220D01*
X95168926Y-68652155D01*
X95158637Y-68676202D01*
X95147065Y-68682135D01*
X95132871Y-68674728D01*
X95117025Y-68660854D01*
X95092768Y-68645668D01*
X95035549Y-68613150D01*
X94949859Y-68565707D01*
X94840188Y-68505742D01*
X94711025Y-68435660D01*
X94566861Y-68357866D01*
X94412185Y-68274764D01*
X94251488Y-68188760D01*
X94089260Y-68102258D01*
X93929990Y-68017662D01*
X93778168Y-67937378D01*
X93638285Y-67863811D01*
X93514831Y-67799364D01*
X93412295Y-67746443D01*
X93361250Y-67720502D01*
X93208002Y-67644968D01*
X93082745Y-67587786D01*
X92976881Y-67546019D01*
X92881810Y-67516728D01*
X92788934Y-67496976D01*
X92689655Y-67483822D01*
X92660388Y-67480999D01*
X92579256Y-67472809D01*
X92529131Y-67462949D01*
X92498836Y-67446193D01*
X92477194Y-67417319D01*
X92461753Y-67388169D01*
X92424721Y-67324501D01*
X92375368Y-67250465D01*
X92348853Y-67214240D01*
X92275978Y-67118769D01*
X92405864Y-67162946D01*
X92451169Y-67177191D01*
X92496673Y-67187997D01*
X92548910Y-67195809D01*
X92614413Y-67201076D01*
X92699713Y-67204247D01*
X92811344Y-67205768D01*
X92955838Y-67206089D01*
X93033167Y-67205961D01*
X93269602Y-67203285D01*
X93476710Y-67195561D01*
X93667335Y-67181458D01*
X93854320Y-67159645D01*
X94050509Y-67128790D01*
X94268744Y-67087562D01*
X94364839Y-67067920D01*
X94684204Y-66990594D01*
X94983037Y-66894121D01*
X95266250Y-66778816D01*
X95347387Y-66744812D01*
X95412891Y-66721455D01*
X95454221Y-66711556D01*
X95464078Y-66713676D01*
X95464078Y-66713676D01*
G37*
X95464078Y-66713676D02*
X95464974Y-66745726D01*
X95459182Y-66813142D01*
X95447617Y-66909645D01*
X95431195Y-67028955D01*
X95410829Y-67164792D01*
X95387434Y-67310878D01*
X95361926Y-67460933D01*
X95335219Y-67608678D01*
X95328496Y-67644338D01*
X95301852Y-67789743D01*
X95275232Y-67944414D01*
X95251004Y-68093944D01*
X95231538Y-68223926D01*
X95224043Y-68279338D01*
X95205491Y-68423586D01*
X95191014Y-68530621D01*
X95179272Y-68605220D01*
X95168926Y-68652155D01*
X95158637Y-68676202D01*
X95147065Y-68682135D01*
X95132871Y-68674728D01*
X95117025Y-68660854D01*
X95092768Y-68645668D01*
X95035549Y-68613150D01*
X94949859Y-68565707D01*
X94840188Y-68505742D01*
X94711025Y-68435660D01*
X94566861Y-68357866D01*
X94412185Y-68274764D01*
X94251488Y-68188760D01*
X94089260Y-68102258D01*
X93929990Y-68017662D01*
X93778168Y-67937378D01*
X93638285Y-67863811D01*
X93514831Y-67799364D01*
X93412295Y-67746443D01*
X93361250Y-67720502D01*
X93208002Y-67644968D01*
X93082745Y-67587786D01*
X92976881Y-67546019D01*
X92881810Y-67516728D01*
X92788934Y-67496976D01*
X92689655Y-67483822D01*
X92660388Y-67480999D01*
X92579256Y-67472809D01*
X92529131Y-67462949D01*
X92498836Y-67446193D01*
X92477194Y-67417319D01*
X92461753Y-67388169D01*
X92424721Y-67324501D01*
X92375368Y-67250465D01*
X92348853Y-67214240D01*
X92275978Y-67118769D01*
X92405864Y-67162946D01*
X92451169Y-67177191D01*
X92496673Y-67187997D01*
X92548910Y-67195809D01*
X92614413Y-67201076D01*
X92699713Y-67204247D01*
X92811344Y-67205768D01*
X92955838Y-67206089D01*
X93033167Y-67205961D01*
X93269602Y-67203285D01*
X93476710Y-67195561D01*
X93667335Y-67181458D01*
X93854320Y-67159645D01*
X94050509Y-67128790D01*
X94268744Y-67087562D01*
X94364839Y-67067920D01*
X94684204Y-66990594D01*
X94983037Y-66894121D01*
X95266250Y-66778816D01*
X95347387Y-66744812D01*
X95412891Y-66721455D01*
X95454221Y-66711556D01*
X95464078Y-66713676D01*
G36*
X94940105Y-62300574D02*
X94980449Y-62339904D01*
X95045821Y-62400265D01*
X95129062Y-62475192D01*
X95223014Y-62558220D01*
X95289227Y-62615885D01*
X95597582Y-62898928D01*
X95871689Y-63186001D01*
X96119365Y-63485882D01*
X96343077Y-63799298D01*
X96412834Y-63905883D01*
X96458422Y-63980620D01*
X96480554Y-64025909D01*
X96479944Y-64044154D01*
X96457302Y-64037756D01*
X96413341Y-64009117D01*
X96403101Y-64001699D01*
X96350440Y-63971176D01*
X96276941Y-63937959D01*
X96227042Y-63919205D01*
X96111803Y-63893680D01*
X95996278Y-63898742D01*
X95870524Y-63935565D01*
X95791658Y-63970628D01*
X95724380Y-64012375D01*
X95648130Y-64073307D01*
X95571899Y-64144503D01*
X95504673Y-64217047D01*
X95455441Y-64282021D01*
X95434310Y-64325182D01*
X95407591Y-64356706D01*
X95344283Y-64396907D01*
X95248847Y-64444109D01*
X95125740Y-64496639D01*
X94979423Y-64552822D01*
X94814356Y-64610983D01*
X94634997Y-64669448D01*
X94445808Y-64726542D01*
X94251246Y-64780591D01*
X94155000Y-64805533D01*
X93698756Y-64906162D01*
X93236309Y-64979907D01*
X92773904Y-65026507D01*
X92317781Y-65045704D01*
X91874185Y-65037236D01*
X91449357Y-65000844D01*
X91049541Y-64936269D01*
X91043592Y-64935048D01*
X90957383Y-64917872D01*
X90888601Y-64905241D01*
X90846433Y-64898785D01*
X90837703Y-64898574D01*
X90841636Y-64920834D01*
X90872336Y-64956882D01*
X90920609Y-64998170D01*
X90977265Y-65036148D01*
X90997349Y-65047063D01*
X91200702Y-65129031D01*
X91435610Y-65185799D01*
X91699289Y-65216919D01*
X91988950Y-65221944D01*
X92067639Y-65218947D01*
X92512241Y-65192419D01*
X92921693Y-65157672D01*
X93302537Y-65113845D01*
X93661312Y-65060077D01*
X94004559Y-64995505D01*
X94334917Y-64920235D01*
X94579552Y-64855362D01*
X94786964Y-64790613D01*
X94962208Y-64723973D01*
X95110338Y-64653426D01*
X95236411Y-64576957D01*
X95286063Y-64541018D01*
X95341109Y-64502117D01*
X95382222Y-64478828D01*
X95398432Y-64475709D01*
X95405915Y-64500897D01*
X95415283Y-64557178D01*
X95424758Y-64633470D01*
X95426675Y-64651782D01*
X95437672Y-64757176D01*
X95450904Y-64879240D01*
X95463618Y-64992607D01*
X95464336Y-64998855D01*
X95481046Y-65179102D01*
X95493795Y-65388768D01*
X95502216Y-65615088D01*
X95505943Y-65845301D01*
X95504609Y-66066643D01*
X95499661Y-66228523D01*
X95484047Y-66582463D01*
X95301065Y-66637452D01*
X95194798Y-66671734D01*
X95071344Y-66715084D01*
X94952385Y-66759801D01*
X94917000Y-66773872D01*
X94568026Y-66896366D01*
X94194302Y-66990913D01*
X93793934Y-67057808D01*
X93365028Y-67097345D01*
X92905692Y-67109821D01*
X92768584Y-67108455D01*
X92260584Y-67099444D01*
X92134770Y-67010471D01*
X92023463Y-66943412D01*
X91904102Y-66891083D01*
X91788292Y-66857363D01*
X91687637Y-66846128D01*
X91652042Y-66849154D01*
X91593706Y-66865968D01*
X91576062Y-66887785D01*
X91598217Y-66911670D01*
X91659281Y-66934684D01*
X91679521Y-66939727D01*
X91872317Y-67004797D01*
X92042094Y-67104514D01*
X92186478Y-67236563D01*
X92303095Y-67398635D01*
X92389571Y-67588416D01*
X92409308Y-67650503D01*
X92432629Y-67777088D01*
X92437990Y-67920394D01*
X92426218Y-68064271D01*
X92398140Y-68192567D01*
X92378917Y-68244318D01*
X92325640Y-68347735D01*
X92254193Y-68464006D01*
X92175637Y-68576380D01*
X92101033Y-68668111D01*
X92093971Y-68675765D01*
X91984277Y-68765460D01*
X91854417Y-68827530D01*
X91715597Y-68858455D01*
X91579020Y-68854716D01*
X91546122Y-68847848D01*
X91393578Y-68791307D01*
X91256446Y-68704959D01*
X91143373Y-68595545D01*
X91064012Y-68471961D01*
X91029044Y-68362826D01*
X91009906Y-68226181D01*
X91006186Y-68073609D01*
X91017476Y-67916694D01*
X91043366Y-67767022D01*
X91083445Y-67636175D01*
X91094496Y-67610250D01*
X91134285Y-67541910D01*
X91193445Y-67462232D01*
X91259567Y-67387840D01*
X91263274Y-67384119D01*
X91382575Y-67282494D01*
X91497421Y-67221841D01*
X91611311Y-67201550D01*
X91727743Y-67221011D01*
X91850215Y-67279617D01*
X91853172Y-67281446D01*
X91937000Y-67325945D01*
X91993790Y-67338514D01*
X92023271Y-67319132D01*
X92027750Y-67293843D01*
X92008651Y-67254055D01*
X91957728Y-67210313D01*
X91884540Y-67167578D01*
X91798647Y-67130809D01*
X91709610Y-67104965D01*
X91645785Y-67095687D01*
X91517820Y-67087285D01*
X91385971Y-66555017D01*
X91350333Y-66409933D01*
X91318363Y-66277448D01*
X91291423Y-66163398D01*
X91270876Y-66073619D01*
X91258083Y-66013946D01*
X91254320Y-65991000D01*
X91252834Y-65963594D01*
X91244736Y-65943623D01*
X91225148Y-65930974D01*
X91189196Y-65925537D01*
X91132001Y-65927201D01*
X91048688Y-65935854D01*
X90934380Y-65951385D01*
X90784200Y-65973684D01*
X90746241Y-65979430D01*
X90434887Y-66028928D01*
X90138216Y-66080626D01*
X89861999Y-66133379D01*
X89612008Y-66186046D01*
X89394015Y-66237481D01*
X89251801Y-66275470D01*
X88957259Y-66366234D01*
X88648438Y-66473944D01*
X88330448Y-66596090D01*
X88008399Y-66730166D01*
X87687402Y-66873662D01*
X87372567Y-67024070D01*
X87069004Y-67178881D01*
X86781823Y-67335587D01*
X86516136Y-67491679D01*
X86277051Y-67644648D01*
X86069680Y-67791987D01*
X85924878Y-67908577D01*
X85848821Y-67974323D01*
X85991410Y-68202277D01*
X86049905Y-68296736D01*
X86088097Y-68362119D01*
X86108644Y-68404919D01*
X86114201Y-68431628D01*
X86107425Y-68448737D01*
X86096374Y-68458776D01*
X86056237Y-68482154D01*
X86035362Y-68487993D01*
X86018401Y-68470341D01*
X85989399Y-68423000D01*
X85952961Y-68355203D01*
X85913692Y-68276181D01*
X85876201Y-68195169D01*
X85845093Y-68121398D01*
X85826551Y-68069459D01*
X85808691Y-68034605D01*
X85793088Y-68027126D01*
X85770918Y-68043246D01*
X85724646Y-68082221D01*
X85661181Y-68138087D01*
X85592174Y-68200534D01*
X85515186Y-68270220D01*
X85455777Y-68318953D01*
X85411756Y-68343970D01*
X85380933Y-68342506D01*
X85361116Y-68311799D01*
X85350113Y-68249084D01*
X85345733Y-68151598D01*
X85345785Y-68016579D01*
X85347376Y-67891812D01*
X85353084Y-67484386D01*
X85440980Y-67409734D01*
X85525812Y-67337890D01*
X85583560Y-67287165D01*
X85618623Y-67250379D01*
X85635400Y-67220351D01*
X85638291Y-67189903D01*
X85631697Y-67151854D01*
X85622918Y-67112833D01*
X85607458Y-66991022D01*
X85605298Y-66853050D01*
X85794167Y-66853050D01*
X85794167Y-67116889D01*
X85894709Y-67040039D01*
X85947778Y-67001128D01*
X86027148Y-66945015D01*
X86123867Y-66877936D01*
X86228981Y-66806126D01*
X86281000Y-66770992D01*
X86447600Y-66664883D01*
X86635227Y-66556967D01*
X86847854Y-66445234D01*
X87089456Y-66327673D01*
X87364007Y-66202273D01*
X87656834Y-66074961D01*
X87780251Y-66022047D01*
X87890544Y-65974146D01*
X87981726Y-65933909D01*
X88047807Y-65903987D01*
X88082801Y-65887029D01*
X88086462Y-65884768D01*
X88085624Y-65861342D01*
X88074612Y-65802666D01*
X88054719Y-65714239D01*
X88027238Y-65601562D01*
X87993463Y-65470136D01*
X87956682Y-65332771D01*
X87913106Y-65171421D01*
X87869726Y-65007918D01*
X87828939Y-64851507D01*
X87793142Y-64711437D01*
X87764731Y-64596953D01*
X87751463Y-64541083D01*
X87727692Y-64441966D01*
X87705793Y-64357850D01*
X87688141Y-64297400D01*
X87677114Y-64269281D01*
X87676842Y-64268948D01*
X87646587Y-64264523D01*
X87586494Y-64279153D01*
X87502900Y-64309912D01*
X87402147Y-64353876D01*
X87290574Y-64408117D01*
X87174521Y-64469711D01*
X87060327Y-64535730D01*
X86958334Y-64600558D01*
X86879623Y-64658880D01*
X86784458Y-64737696D01*
X86685141Y-64826431D01*
X86598500Y-64909928D01*
X86377005Y-65159962D01*
X86191955Y-65427716D01*
X86040311Y-65718152D01*
X85931493Y-65998193D01*
X85858407Y-66253884D01*
X85813939Y-66504320D01*
X85795202Y-66767481D01*
X85794167Y-66853050D01*
X85605298Y-66853050D01*
X85605060Y-66837862D01*
X85614740Y-66661943D01*
X85635511Y-66471849D01*
X85666389Y-66276170D01*
X85706390Y-66083491D01*
X85754529Y-65902400D01*
X85766008Y-65865297D01*
X85874403Y-65588791D01*
X86020209Y-65317111D01*
X86198542Y-65056924D01*
X86404519Y-64814898D01*
X86633259Y-64597701D01*
X86778417Y-64482795D01*
X86870225Y-64420604D01*
X86984682Y-64351048D01*
X87111764Y-64279446D01*
X87202629Y-64231573D01*
X87805364Y-64231573D01*
X87811447Y-64279710D01*
X87827994Y-64359219D01*
X87853427Y-64464757D01*
X87886170Y-64590981D01*
X87924645Y-64732550D01*
X87967274Y-64884120D01*
X88012481Y-65040350D01*
X88058688Y-65195898D01*
X88104317Y-65345420D01*
X88147792Y-65483575D01*
X88187536Y-65605020D01*
X88221970Y-65704414D01*
X88249518Y-65776412D01*
X88268602Y-65815674D01*
X88274748Y-65821383D01*
X88300327Y-65814730D01*
X88354826Y-65796852D01*
X88427496Y-65771309D01*
X88444081Y-65765296D01*
X88517544Y-65738405D01*
X88573297Y-65717775D01*
X88601435Y-65707076D01*
X88602960Y-65706406D01*
X88598770Y-65686410D01*
X88584385Y-65633210D01*
X88561861Y-65554123D01*
X88533258Y-65456465D01*
X88522061Y-65418818D01*
X88491132Y-65311860D01*
X88452964Y-65174627D01*
X88410481Y-65017940D01*
X88366607Y-64852621D01*
X88324263Y-64689490D01*
X88311044Y-64637663D01*
X88275592Y-64499145D01*
X88243179Y-64374708D01*
X88215349Y-64270095D01*
X88193642Y-64191049D01*
X88179602Y-64143314D01*
X88175165Y-64131609D01*
X88151369Y-64131185D01*
X88096336Y-64138577D01*
X88020132Y-64152311D01*
X87985098Y-64159435D01*
X87892839Y-64180845D01*
X87836437Y-64199615D01*
X87809725Y-64218220D01*
X87805364Y-64231573D01*
X87202629Y-64231573D01*
X87241449Y-64211121D01*
X87363711Y-64151392D01*
X87440684Y-64117750D01*
X88340767Y-64117750D01*
X88450046Y-64562250D01*
X88489786Y-64720863D01*
X88533676Y-64890976D01*
X88578185Y-65059222D01*
X88619779Y-65212235D01*
X88653121Y-65330440D01*
X88688868Y-65452200D01*
X88715868Y-65538690D01*
X88736551Y-65595472D01*
X88753346Y-65628110D01*
X88768682Y-65642165D01*
X88784989Y-65643199D01*
X88789250Y-65642147D01*
X88824614Y-65632809D01*
X88892232Y-65615515D01*
X88983272Y-65592504D01*
X89088901Y-65566017D01*
X89120701Y-65558080D01*
X89483114Y-65478039D01*
X89871763Y-65411088D01*
X90271989Y-65359387D01*
X90669130Y-65325092D01*
X90727360Y-65321592D01*
X90982445Y-65307176D01*
X90899554Y-65220463D01*
X90836661Y-65148804D01*
X90773688Y-65068107D01*
X90750904Y-65035761D01*
X90655099Y-64916723D01*
X90525231Y-64791123D01*
X90367950Y-64663996D01*
X90189907Y-64540378D01*
X89997752Y-64425302D01*
X89830620Y-64339075D01*
X89576872Y-64232996D01*
X89321323Y-64158181D01*
X89052414Y-64111891D01*
X88789250Y-64092349D01*
X88672074Y-64089564D01*
X88565057Y-64089507D01*
X88477650Y-64092003D01*
X88419304Y-64096876D01*
X88406259Y-64099442D01*
X88340767Y-64117750D01*
X87440684Y-64117750D01*
X87468529Y-64105580D01*
X87531720Y-64082933D01*
X87587731Y-64061302D01*
X87623630Y-64038389D01*
X87628666Y-64031380D01*
X87627098Y-64001631D01*
X87615328Y-63931329D01*
X87593462Y-63820979D01*
X87561608Y-63671086D01*
X87519875Y-63482157D01*
X87468370Y-63254696D01*
X87407202Y-62989209D01*
X87391548Y-62921833D01*
X87359625Y-62779975D01*
X87338572Y-62672739D01*
X87328696Y-62599673D01*
X87419199Y-62599673D01*
X87429165Y-62662201D01*
X87451985Y-62750979D01*
X87487352Y-62872594D01*
X87494585Y-62896987D01*
X87523987Y-63002918D01*
X87558531Y-63138302D01*
X87595299Y-63291037D01*
X87631371Y-63449017D01*
X87661997Y-63591290D01*
X87692297Y-63735924D01*
X87715899Y-63844081D01*
X87734385Y-63920798D01*
X87749337Y-63971115D01*
X87762339Y-64000069D01*
X87774972Y-64012698D01*
X87788820Y-64014041D01*
X87794382Y-64012739D01*
X87835817Y-64003524D01*
X87904585Y-63990623D01*
X87986171Y-63976752D01*
X87990209Y-63976100D01*
X88064320Y-63962660D01*
X88118724Y-63949902D01*
X88143072Y-63940309D01*
X88143493Y-63939330D01*
X88138814Y-63915763D01*
X88125945Y-63857900D01*
X88106460Y-63772636D01*
X88081932Y-63666866D01*
X88058629Y-63567416D01*
X88012307Y-63369391D01*
X87968305Y-63178970D01*
X87927950Y-63002041D01*
X87892567Y-62844494D01*
X87863483Y-62712218D01*
X87842023Y-62611103D01*
X87832260Y-62562084D01*
X87819080Y-62504302D01*
X87799376Y-62473742D01*
X87760045Y-62457791D01*
X87714456Y-62448681D01*
X87645710Y-62440534D01*
X87589156Y-62448550D01*
X87522280Y-62476286D01*
X87514025Y-62480347D01*
X87469501Y-62503733D01*
X87439060Y-62527025D01*
X87422395Y-62556810D01*
X87419199Y-62599673D01*
X87328696Y-62599673D01*
X87327923Y-62593958D01*
X87327212Y-62537465D01*
X87335973Y-62497094D01*
X87353741Y-62466680D01*
X87356890Y-62462902D01*
X87399902Y-62421652D01*
X87458534Y-62375212D01*
X87476802Y-62362361D01*
X87570324Y-62320574D01*
X87676448Y-62306769D01*
X87779095Y-62321624D01*
X87836750Y-62347221D01*
X87848787Y-62353972D01*
X87859230Y-62359999D01*
X87868918Y-62368168D01*
X87878690Y-62381341D01*
X87889385Y-62402382D01*
X87901841Y-62434156D01*
X87916896Y-62479525D01*
X87935389Y-62541355D01*
X87958159Y-62622508D01*
X87986045Y-62725849D01*
X88019884Y-62854241D01*
X88060516Y-63010548D01*
X88108779Y-63197634D01*
X88165512Y-63418362D01*
X88231553Y-63675597D01*
X88273076Y-63837291D01*
X88293465Y-63916666D01*
X88502073Y-63916666D01*
X88754770Y-63924289D01*
X89006267Y-63946182D01*
X89246253Y-63980884D01*
X89464417Y-64026934D01*
X89634315Y-64077129D01*
X89714180Y-64105050D01*
X89762013Y-64120529D01*
X89785959Y-64124472D01*
X89794158Y-64117786D01*
X89794754Y-64101378D01*
X89794667Y-64094988D01*
X89802067Y-64062522D01*
X89822108Y-64000370D01*
X89851547Y-63918088D01*
X89880090Y-63843157D01*
X89965514Y-63624672D01*
X90097049Y-63664539D01*
X90440314Y-63749669D01*
X90804452Y-63804975D01*
X91179916Y-63830076D01*
X91557159Y-63824589D01*
X91926636Y-63788135D01*
X92161055Y-63747039D01*
X92450047Y-63672179D01*
X92756530Y-63565978D01*
X93074005Y-63431975D01*
X93395973Y-63273708D01*
X93715938Y-63094716D01*
X94027401Y-62898539D01*
X94323864Y-62688715D01*
X94598829Y-62468784D01*
X94742630Y-62341016D01*
X94867961Y-62224982D01*
X94940105Y-62300574D01*
X94940105Y-62300574D01*
G37*
X94940105Y-62300574D02*
X94980449Y-62339904D01*
X95045821Y-62400265D01*
X95129062Y-62475192D01*
X95223014Y-62558220D01*
X95289227Y-62615885D01*
X95597582Y-62898928D01*
X95871689Y-63186001D01*
X96119365Y-63485882D01*
X96343077Y-63799298D01*
X96412834Y-63905883D01*
X96458422Y-63980620D01*
X96480554Y-64025909D01*
X96479944Y-64044154D01*
X96457302Y-64037756D01*
X96413341Y-64009117D01*
X96403101Y-64001699D01*
X96350440Y-63971176D01*
X96276941Y-63937959D01*
X96227042Y-63919205D01*
X96111803Y-63893680D01*
X95996278Y-63898742D01*
X95870524Y-63935565D01*
X95791658Y-63970628D01*
X95724380Y-64012375D01*
X95648130Y-64073307D01*
X95571899Y-64144503D01*
X95504673Y-64217047D01*
X95455441Y-64282021D01*
X95434310Y-64325182D01*
X95407591Y-64356706D01*
X95344283Y-64396907D01*
X95248847Y-64444109D01*
X95125740Y-64496639D01*
X94979423Y-64552822D01*
X94814356Y-64610983D01*
X94634997Y-64669448D01*
X94445808Y-64726542D01*
X94251246Y-64780591D01*
X94155000Y-64805533D01*
X93698756Y-64906162D01*
X93236309Y-64979907D01*
X92773904Y-65026507D01*
X92317781Y-65045704D01*
X91874185Y-65037236D01*
X91449357Y-65000844D01*
X91049541Y-64936269D01*
X91043592Y-64935048D01*
X90957383Y-64917872D01*
X90888601Y-64905241D01*
X90846433Y-64898785D01*
X90837703Y-64898574D01*
X90841636Y-64920834D01*
X90872336Y-64956882D01*
X90920609Y-64998170D01*
X90977265Y-65036148D01*
X90997349Y-65047063D01*
X91200702Y-65129031D01*
X91435610Y-65185799D01*
X91699289Y-65216919D01*
X91988950Y-65221944D01*
X92067639Y-65218947D01*
X92512241Y-65192419D01*
X92921693Y-65157672D01*
X93302537Y-65113845D01*
X93661312Y-65060077D01*
X94004559Y-64995505D01*
X94334917Y-64920235D01*
X94579552Y-64855362D01*
X94786964Y-64790613D01*
X94962208Y-64723973D01*
X95110338Y-64653426D01*
X95236411Y-64576957D01*
X95286063Y-64541018D01*
X95341109Y-64502117D01*
X95382222Y-64478828D01*
X95398432Y-64475709D01*
X95405915Y-64500897D01*
X95415283Y-64557178D01*
X95424758Y-64633470D01*
X95426675Y-64651782D01*
X95437672Y-64757176D01*
X95450904Y-64879240D01*
X95463618Y-64992607D01*
X95464336Y-64998855D01*
X95481046Y-65179102D01*
X95493795Y-65388768D01*
X95502216Y-65615088D01*
X95505943Y-65845301D01*
X95504609Y-66066643D01*
X95499661Y-66228523D01*
X95484047Y-66582463D01*
X95301065Y-66637452D01*
X95194798Y-66671734D01*
X95071344Y-66715084D01*
X94952385Y-66759801D01*
X94917000Y-66773872D01*
X94568026Y-66896366D01*
X94194302Y-66990913D01*
X93793934Y-67057808D01*
X93365028Y-67097345D01*
X92905692Y-67109821D01*
X92768584Y-67108455D01*
X92260584Y-67099444D01*
X92134770Y-67010471D01*
X92023463Y-66943412D01*
X91904102Y-66891083D01*
X91788292Y-66857363D01*
X91687637Y-66846128D01*
X91652042Y-66849154D01*
X91593706Y-66865968D01*
X91576062Y-66887785D01*
X91598217Y-66911670D01*
X91659281Y-66934684D01*
X91679521Y-66939727D01*
X91872317Y-67004797D01*
X92042094Y-67104514D01*
X92186478Y-67236563D01*
X92303095Y-67398635D01*
X92389571Y-67588416D01*
X92409308Y-67650503D01*
X92432629Y-67777088D01*
X92437990Y-67920394D01*
X92426218Y-68064271D01*
X92398140Y-68192567D01*
X92378917Y-68244318D01*
X92325640Y-68347735D01*
X92254193Y-68464006D01*
X92175637Y-68576380D01*
X92101033Y-68668111D01*
X92093971Y-68675765D01*
X91984277Y-68765460D01*
X91854417Y-68827530D01*
X91715597Y-68858455D01*
X91579020Y-68854716D01*
X91546122Y-68847848D01*
X91393578Y-68791307D01*
X91256446Y-68704959D01*
X91143373Y-68595545D01*
X91064012Y-68471961D01*
X91029044Y-68362826D01*
X91009906Y-68226181D01*
X91006186Y-68073609D01*
X91017476Y-67916694D01*
X91043366Y-67767022D01*
X91083445Y-67636175D01*
X91094496Y-67610250D01*
X91134285Y-67541910D01*
X91193445Y-67462232D01*
X91259567Y-67387840D01*
X91263274Y-67384119D01*
X91382575Y-67282494D01*
X91497421Y-67221841D01*
X91611311Y-67201550D01*
X91727743Y-67221011D01*
X91850215Y-67279617D01*
X91853172Y-67281446D01*
X91937000Y-67325945D01*
X91993790Y-67338514D01*
X92023271Y-67319132D01*
X92027750Y-67293843D01*
X92008651Y-67254055D01*
X91957728Y-67210313D01*
X91884540Y-67167578D01*
X91798647Y-67130809D01*
X91709610Y-67104965D01*
X91645785Y-67095687D01*
X91517820Y-67087285D01*
X91385971Y-66555017D01*
X91350333Y-66409933D01*
X91318363Y-66277448D01*
X91291423Y-66163398D01*
X91270876Y-66073619D01*
X91258083Y-66013946D01*
X91254320Y-65991000D01*
X91252834Y-65963594D01*
X91244736Y-65943623D01*
X91225148Y-65930974D01*
X91189196Y-65925537D01*
X91132001Y-65927201D01*
X91048688Y-65935854D01*
X90934380Y-65951385D01*
X90784200Y-65973684D01*
X90746241Y-65979430D01*
X90434887Y-66028928D01*
X90138216Y-66080626D01*
X89861999Y-66133379D01*
X89612008Y-66186046D01*
X89394015Y-66237481D01*
X89251801Y-66275470D01*
X88957259Y-66366234D01*
X88648438Y-66473944D01*
X88330448Y-66596090D01*
X88008399Y-66730166D01*
X87687402Y-66873662D01*
X87372567Y-67024070D01*
X87069004Y-67178881D01*
X86781823Y-67335587D01*
X86516136Y-67491679D01*
X86277051Y-67644648D01*
X86069680Y-67791987D01*
X85924878Y-67908577D01*
X85848821Y-67974323D01*
X85991410Y-68202277D01*
X86049905Y-68296736D01*
X86088097Y-68362119D01*
X86108644Y-68404919D01*
X86114201Y-68431628D01*
X86107425Y-68448737D01*
X86096374Y-68458776D01*
X86056237Y-68482154D01*
X86035362Y-68487993D01*
X86018401Y-68470341D01*
X85989399Y-68423000D01*
X85952961Y-68355203D01*
X85913692Y-68276181D01*
X85876201Y-68195169D01*
X85845093Y-68121398D01*
X85826551Y-68069459D01*
X85808691Y-68034605D01*
X85793088Y-68027126D01*
X85770918Y-68043246D01*
X85724646Y-68082221D01*
X85661181Y-68138087D01*
X85592174Y-68200534D01*
X85515186Y-68270220D01*
X85455777Y-68318953D01*
X85411756Y-68343970D01*
X85380933Y-68342506D01*
X85361116Y-68311799D01*
X85350113Y-68249084D01*
X85345733Y-68151598D01*
X85345785Y-68016579D01*
X85347376Y-67891812D01*
X85353084Y-67484386D01*
X85440980Y-67409734D01*
X85525812Y-67337890D01*
X85583560Y-67287165D01*
X85618623Y-67250379D01*
X85635400Y-67220351D01*
X85638291Y-67189903D01*
X85631697Y-67151854D01*
X85622918Y-67112833D01*
X85607458Y-66991022D01*
X85605298Y-66853050D01*
X85794167Y-66853050D01*
X85794167Y-67116889D01*
X85894709Y-67040039D01*
X85947778Y-67001128D01*
X86027148Y-66945015D01*
X86123867Y-66877936D01*
X86228981Y-66806126D01*
X86281000Y-66770992D01*
X86447600Y-66664883D01*
X86635227Y-66556967D01*
X86847854Y-66445234D01*
X87089456Y-66327673D01*
X87364007Y-66202273D01*
X87656834Y-66074961D01*
X87780251Y-66022047D01*
X87890544Y-65974146D01*
X87981726Y-65933909D01*
X88047807Y-65903987D01*
X88082801Y-65887029D01*
X88086462Y-65884768D01*
X88085624Y-65861342D01*
X88074612Y-65802666D01*
X88054719Y-65714239D01*
X88027238Y-65601562D01*
X87993463Y-65470136D01*
X87956682Y-65332771D01*
X87913106Y-65171421D01*
X87869726Y-65007918D01*
X87828939Y-64851507D01*
X87793142Y-64711437D01*
X87764731Y-64596953D01*
X87751463Y-64541083D01*
X87727692Y-64441966D01*
X87705793Y-64357850D01*
X87688141Y-64297400D01*
X87677114Y-64269281D01*
X87676842Y-64268948D01*
X87646587Y-64264523D01*
X87586494Y-64279153D01*
X87502900Y-64309912D01*
X87402147Y-64353876D01*
X87290574Y-64408117D01*
X87174521Y-64469711D01*
X87060327Y-64535730D01*
X86958334Y-64600558D01*
X86879623Y-64658880D01*
X86784458Y-64737696D01*
X86685141Y-64826431D01*
X86598500Y-64909928D01*
X86377005Y-65159962D01*
X86191955Y-65427716D01*
X86040311Y-65718152D01*
X85931493Y-65998193D01*
X85858407Y-66253884D01*
X85813939Y-66504320D01*
X85795202Y-66767481D01*
X85794167Y-66853050D01*
X85605298Y-66853050D01*
X85605060Y-66837862D01*
X85614740Y-66661943D01*
X85635511Y-66471849D01*
X85666389Y-66276170D01*
X85706390Y-66083491D01*
X85754529Y-65902400D01*
X85766008Y-65865297D01*
X85874403Y-65588791D01*
X86020209Y-65317111D01*
X86198542Y-65056924D01*
X86404519Y-64814898D01*
X86633259Y-64597701D01*
X86778417Y-64482795D01*
X86870225Y-64420604D01*
X86984682Y-64351048D01*
X87111764Y-64279446D01*
X87202629Y-64231573D01*
X87805364Y-64231573D01*
X87811447Y-64279710D01*
X87827994Y-64359219D01*
X87853427Y-64464757D01*
X87886170Y-64590981D01*
X87924645Y-64732550D01*
X87967274Y-64884120D01*
X88012481Y-65040350D01*
X88058688Y-65195898D01*
X88104317Y-65345420D01*
X88147792Y-65483575D01*
X88187536Y-65605020D01*
X88221970Y-65704414D01*
X88249518Y-65776412D01*
X88268602Y-65815674D01*
X88274748Y-65821383D01*
X88300327Y-65814730D01*
X88354826Y-65796852D01*
X88427496Y-65771309D01*
X88444081Y-65765296D01*
X88517544Y-65738405D01*
X88573297Y-65717775D01*
X88601435Y-65707076D01*
X88602960Y-65706406D01*
X88598770Y-65686410D01*
X88584385Y-65633210D01*
X88561861Y-65554123D01*
X88533258Y-65456465D01*
X88522061Y-65418818D01*
X88491132Y-65311860D01*
X88452964Y-65174627D01*
X88410481Y-65017940D01*
X88366607Y-64852621D01*
X88324263Y-64689490D01*
X88311044Y-64637663D01*
X88275592Y-64499145D01*
X88243179Y-64374708D01*
X88215349Y-64270095D01*
X88193642Y-64191049D01*
X88179602Y-64143314D01*
X88175165Y-64131609D01*
X88151369Y-64131185D01*
X88096336Y-64138577D01*
X88020132Y-64152311D01*
X87985098Y-64159435D01*
X87892839Y-64180845D01*
X87836437Y-64199615D01*
X87809725Y-64218220D01*
X87805364Y-64231573D01*
X87202629Y-64231573D01*
X87241449Y-64211121D01*
X87363711Y-64151392D01*
X87440684Y-64117750D01*
X88340767Y-64117750D01*
X88450046Y-64562250D01*
X88489786Y-64720863D01*
X88533676Y-64890976D01*
X88578185Y-65059222D01*
X88619779Y-65212235D01*
X88653121Y-65330440D01*
X88688868Y-65452200D01*
X88715868Y-65538690D01*
X88736551Y-65595472D01*
X88753346Y-65628110D01*
X88768682Y-65642165D01*
X88784989Y-65643199D01*
X88789250Y-65642147D01*
X88824614Y-65632809D01*
X88892232Y-65615515D01*
X88983272Y-65592504D01*
X89088901Y-65566017D01*
X89120701Y-65558080D01*
X89483114Y-65478039D01*
X89871763Y-65411088D01*
X90271989Y-65359387D01*
X90669130Y-65325092D01*
X90727360Y-65321592D01*
X90982445Y-65307176D01*
X90899554Y-65220463D01*
X90836661Y-65148804D01*
X90773688Y-65068107D01*
X90750904Y-65035761D01*
X90655099Y-64916723D01*
X90525231Y-64791123D01*
X90367950Y-64663996D01*
X90189907Y-64540378D01*
X89997752Y-64425302D01*
X89830620Y-64339075D01*
X89576872Y-64232996D01*
X89321323Y-64158181D01*
X89052414Y-64111891D01*
X88789250Y-64092349D01*
X88672074Y-64089564D01*
X88565057Y-64089507D01*
X88477650Y-64092003D01*
X88419304Y-64096876D01*
X88406259Y-64099442D01*
X88340767Y-64117750D01*
X87440684Y-64117750D01*
X87468529Y-64105580D01*
X87531720Y-64082933D01*
X87587731Y-64061302D01*
X87623630Y-64038389D01*
X87628666Y-64031380D01*
X87627098Y-64001631D01*
X87615328Y-63931329D01*
X87593462Y-63820979D01*
X87561608Y-63671086D01*
X87519875Y-63482157D01*
X87468370Y-63254696D01*
X87407202Y-62989209D01*
X87391548Y-62921833D01*
X87359625Y-62779975D01*
X87338572Y-62672739D01*
X87328696Y-62599673D01*
X87419199Y-62599673D01*
X87429165Y-62662201D01*
X87451985Y-62750979D01*
X87487352Y-62872594D01*
X87494585Y-62896987D01*
X87523987Y-63002918D01*
X87558531Y-63138302D01*
X87595299Y-63291037D01*
X87631371Y-63449017D01*
X87661997Y-63591290D01*
X87692297Y-63735924D01*
X87715899Y-63844081D01*
X87734385Y-63920798D01*
X87749337Y-63971115D01*
X87762339Y-64000069D01*
X87774972Y-64012698D01*
X87788820Y-64014041D01*
X87794382Y-64012739D01*
X87835817Y-64003524D01*
X87904585Y-63990623D01*
X87986171Y-63976752D01*
X87990209Y-63976100D01*
X88064320Y-63962660D01*
X88118724Y-63949902D01*
X88143072Y-63940309D01*
X88143493Y-63939330D01*
X88138814Y-63915763D01*
X88125945Y-63857900D01*
X88106460Y-63772636D01*
X88081932Y-63666866D01*
X88058629Y-63567416D01*
X88012307Y-63369391D01*
X87968305Y-63178970D01*
X87927950Y-63002041D01*
X87892567Y-62844494D01*
X87863483Y-62712218D01*
X87842023Y-62611103D01*
X87832260Y-62562084D01*
X87819080Y-62504302D01*
X87799376Y-62473742D01*
X87760045Y-62457791D01*
X87714456Y-62448681D01*
X87645710Y-62440534D01*
X87589156Y-62448550D01*
X87522280Y-62476286D01*
X87514025Y-62480347D01*
X87469501Y-62503733D01*
X87439060Y-62527025D01*
X87422395Y-62556810D01*
X87419199Y-62599673D01*
X87328696Y-62599673D01*
X87327923Y-62593958D01*
X87327212Y-62537465D01*
X87335973Y-62497094D01*
X87353741Y-62466680D01*
X87356890Y-62462902D01*
X87399902Y-62421652D01*
X87458534Y-62375212D01*
X87476802Y-62362361D01*
X87570324Y-62320574D01*
X87676448Y-62306769D01*
X87779095Y-62321624D01*
X87836750Y-62347221D01*
X87848787Y-62353972D01*
X87859230Y-62359999D01*
X87868918Y-62368168D01*
X87878690Y-62381341D01*
X87889385Y-62402382D01*
X87901841Y-62434156D01*
X87916896Y-62479525D01*
X87935389Y-62541355D01*
X87958159Y-62622508D01*
X87986045Y-62725849D01*
X88019884Y-62854241D01*
X88060516Y-63010548D01*
X88108779Y-63197634D01*
X88165512Y-63418362D01*
X88231553Y-63675597D01*
X88273076Y-63837291D01*
X88293465Y-63916666D01*
X88502073Y-63916666D01*
X88754770Y-63924289D01*
X89006267Y-63946182D01*
X89246253Y-63980884D01*
X89464417Y-64026934D01*
X89634315Y-64077129D01*
X89714180Y-64105050D01*
X89762013Y-64120529D01*
X89785959Y-64124472D01*
X89794158Y-64117786D01*
X89794754Y-64101378D01*
X89794667Y-64094988D01*
X89802067Y-64062522D01*
X89822108Y-64000370D01*
X89851547Y-63918088D01*
X89880090Y-63843157D01*
X89965514Y-63624672D01*
X90097049Y-63664539D01*
X90440314Y-63749669D01*
X90804452Y-63804975D01*
X91179916Y-63830076D01*
X91557159Y-63824589D01*
X91926636Y-63788135D01*
X92161055Y-63747039D01*
X92450047Y-63672179D01*
X92756530Y-63565978D01*
X93074005Y-63431975D01*
X93395973Y-63273708D01*
X93715938Y-63094716D01*
X94027401Y-62898539D01*
X94323864Y-62688715D01*
X94598829Y-62468784D01*
X94742630Y-62341016D01*
X94867961Y-62224982D01*
X94940105Y-62300574D01*
G36*
X96186267Y-64035587D02*
X96282356Y-64092116D01*
X96366971Y-64175599D01*
X96435214Y-64280948D01*
X96482188Y-64403079D01*
X96502997Y-64536905D01*
X96503571Y-64568335D01*
X96502451Y-64618344D01*
X96498362Y-64662009D01*
X96488923Y-64707324D01*
X96471750Y-64762287D01*
X96444463Y-64834894D01*
X96404679Y-64933141D01*
X96369831Y-65017333D01*
X96320526Y-65142478D01*
X96278837Y-65264360D01*
X96243906Y-65388436D01*
X96214878Y-65520162D01*
X96190897Y-65664994D01*
X96171107Y-65828388D01*
X96154654Y-66015801D01*
X96140680Y-66232689D01*
X96128330Y-66484508D01*
X96124162Y-66583666D01*
X96118405Y-66711687D01*
X96110629Y-66863821D01*
X96101131Y-67035670D01*
X96090209Y-67222838D01*
X96078161Y-67420928D01*
X96065285Y-67625543D01*
X96051879Y-67832287D01*
X96038241Y-68036764D01*
X96024668Y-68234575D01*
X96011458Y-68421325D01*
X95998908Y-68592617D01*
X95987318Y-68744053D01*
X95976984Y-68871239D01*
X95968205Y-68969775D01*
X95961277Y-69035267D01*
X95956500Y-69063316D01*
X95956166Y-69063878D01*
X95933494Y-69061268D01*
X95892886Y-69036966D01*
X95880841Y-69027718D01*
X95830676Y-68995106D01*
X95755843Y-68955344D01*
X95671262Y-68916272D01*
X95658591Y-68910928D01*
X95522338Y-68853923D01*
X95420524Y-68810025D01*
X95348355Y-68776443D01*
X95301036Y-68750385D01*
X95273772Y-68729057D01*
X95261769Y-68709669D01*
X95260232Y-68689428D01*
X95261598Y-68679748D01*
X95268932Y-68641892D01*
X95283377Y-68570623D01*
X95303285Y-68473945D01*
X95327011Y-68359862D01*
X95347015Y-68264386D01*
X95462150Y-67662692D01*
X95554677Y-67063185D01*
X95622657Y-66478942D01*
X95638862Y-66297916D01*
X95650945Y-66066467D01*
X95651316Y-65819358D01*
X95640723Y-65567504D01*
X95619910Y-65321824D01*
X95589626Y-65093234D01*
X95550616Y-64892650D01*
X95539766Y-64848844D01*
X95511853Y-64681569D01*
X95516351Y-64525135D01*
X95552321Y-64385824D01*
X95618827Y-64269920D01*
X95627753Y-64259119D01*
X95717553Y-64173512D01*
X95828807Y-64095312D01*
X95943055Y-64036882D01*
X95979247Y-64023733D01*
X96083598Y-64011098D01*
X96186267Y-64035587D01*
X96186267Y-64035587D01*
G37*
X96186267Y-64035587D02*
X96282356Y-64092116D01*
X96366971Y-64175599D01*
X96435214Y-64280948D01*
X96482188Y-64403079D01*
X96502997Y-64536905D01*
X96503571Y-64568335D01*
X96502451Y-64618344D01*
X96498362Y-64662009D01*
X96488923Y-64707324D01*
X96471750Y-64762287D01*
X96444463Y-64834894D01*
X96404679Y-64933141D01*
X96369831Y-65017333D01*
X96320526Y-65142478D01*
X96278837Y-65264360D01*
X96243906Y-65388436D01*
X96214878Y-65520162D01*
X96190897Y-65664994D01*
X96171107Y-65828388D01*
X96154654Y-66015801D01*
X96140680Y-66232689D01*
X96128330Y-66484508D01*
X96124162Y-66583666D01*
X96118405Y-66711687D01*
X96110629Y-66863821D01*
X96101131Y-67035670D01*
X96090209Y-67222838D01*
X96078161Y-67420928D01*
X96065285Y-67625543D01*
X96051879Y-67832287D01*
X96038241Y-68036764D01*
X96024668Y-68234575D01*
X96011458Y-68421325D01*
X95998908Y-68592617D01*
X95987318Y-68744053D01*
X95976984Y-68871239D01*
X95968205Y-68969775D01*
X95961277Y-69035267D01*
X95956500Y-69063316D01*
X95956166Y-69063878D01*
X95933494Y-69061268D01*
X95892886Y-69036966D01*
X95880841Y-69027718D01*
X95830676Y-68995106D01*
X95755843Y-68955344D01*
X95671262Y-68916272D01*
X95658591Y-68910928D01*
X95522338Y-68853923D01*
X95420524Y-68810025D01*
X95348355Y-68776443D01*
X95301036Y-68750385D01*
X95273772Y-68729057D01*
X95261769Y-68709669D01*
X95260232Y-68689428D01*
X95261598Y-68679748D01*
X95268932Y-68641892D01*
X95283377Y-68570623D01*
X95303285Y-68473945D01*
X95327011Y-68359862D01*
X95347015Y-68264386D01*
X95462150Y-67662692D01*
X95554677Y-67063185D01*
X95622657Y-66478942D01*
X95638862Y-66297916D01*
X95650945Y-66066467D01*
X95651316Y-65819358D01*
X95640723Y-65567504D01*
X95619910Y-65321824D01*
X95589626Y-65093234D01*
X95550616Y-64892650D01*
X95539766Y-64848844D01*
X95511853Y-64681569D01*
X95516351Y-64525135D01*
X95552321Y-64385824D01*
X95618827Y-64269920D01*
X95627753Y-64259119D01*
X95717553Y-64173512D01*
X95828807Y-64095312D01*
X95943055Y-64036882D01*
X95979247Y-64023733D01*
X96083598Y-64011098D01*
X96186267Y-64035587D01*
G36*
X97288682Y-66005631D02*
X97300608Y-66034035D01*
X97318957Y-66097499D01*
X97342277Y-66189488D01*
X97369114Y-66303467D01*
X97398017Y-66432903D01*
X97427532Y-66571260D01*
X97456207Y-66712005D01*
X97482589Y-66848601D01*
X97505226Y-66974516D01*
X97508937Y-66996416D01*
X97556958Y-67322549D01*
X97593368Y-67654072D01*
X97616886Y-67976633D01*
X97626226Y-68275882D01*
X97626334Y-68308819D01*
X97626334Y-68630173D01*
X97430542Y-68738468D01*
X97320440Y-68797417D01*
X97192934Y-68862734D01*
X97069307Y-68923604D01*
X97023084Y-68945510D01*
X96925405Y-68992948D01*
X96832013Y-69041553D01*
X96755860Y-69084426D01*
X96721459Y-69106146D01*
X96671197Y-69138017D01*
X96638546Y-69153528D01*
X96631500Y-69152281D01*
X96638207Y-69120147D01*
X96656541Y-69056155D01*
X96683825Y-68968286D01*
X96717379Y-68864525D01*
X96754527Y-68752856D01*
X96792589Y-68641262D01*
X96828887Y-68537726D01*
X96860744Y-68450233D01*
X96885480Y-68386765D01*
X96896731Y-68361666D01*
X96930439Y-68301305D01*
X96979698Y-68219577D01*
X97036206Y-68130087D01*
X97063554Y-68088239D01*
X97151059Y-67940327D01*
X97227554Y-67780538D01*
X97290145Y-67617628D01*
X97335943Y-67460348D01*
X97362056Y-67317452D01*
X97365591Y-67197693D01*
X97363666Y-67179706D01*
X97323300Y-67026637D01*
X97246894Y-66894742D01*
X97136594Y-66786927D01*
X97023084Y-66718866D01*
X96942468Y-66684963D01*
X96876874Y-66671733D01*
X96809583Y-66678779D01*
X96723878Y-66705702D01*
X96708556Y-66711372D01*
X96571011Y-66783746D01*
X96450622Y-66887682D01*
X96358256Y-67013352D01*
X96343421Y-67041615D01*
X96321287Y-67090112D01*
X96304922Y-67137107D01*
X96292934Y-67191124D01*
X96283926Y-67260689D01*
X96276502Y-67354326D01*
X96269269Y-67480559D01*
X96268196Y-67501237D01*
X96260532Y-67616316D01*
X96249145Y-67743896D01*
X96234998Y-67876790D01*
X96219057Y-68007811D01*
X96202285Y-68129773D01*
X96185649Y-68235489D01*
X96170112Y-68317773D01*
X96156639Y-68369437D01*
X96149862Y-68382833D01*
X96145940Y-68369264D01*
X96146348Y-68323515D01*
X96150972Y-68255833D01*
X96155759Y-68199725D01*
X96163371Y-68107842D01*
X96173292Y-67986609D01*
X96185006Y-67842453D01*
X96197997Y-67681800D01*
X96211748Y-67511076D01*
X96225744Y-67336707D01*
X96239468Y-67165118D01*
X96252404Y-67002737D01*
X96264036Y-66855988D01*
X96273849Y-66731298D01*
X96281325Y-66635092D01*
X96284598Y-66592062D01*
X96295864Y-66441707D01*
X96648890Y-66288121D01*
X96773822Y-66232962D01*
X96895926Y-66177606D01*
X97005519Y-66126547D01*
X97092919Y-66084278D01*
X97137199Y-66061524D01*
X97205110Y-66028165D01*
X97258680Y-66007936D01*
X97287416Y-66004709D01*
X97288682Y-66005631D01*
X97288682Y-66005631D01*
G37*
X97288682Y-66005631D02*
X97300608Y-66034035D01*
X97318957Y-66097499D01*
X97342277Y-66189488D01*
X97369114Y-66303467D01*
X97398017Y-66432903D01*
X97427532Y-66571260D01*
X97456207Y-66712005D01*
X97482589Y-66848601D01*
X97505226Y-66974516D01*
X97508937Y-66996416D01*
X97556958Y-67322549D01*
X97593368Y-67654072D01*
X97616886Y-67976633D01*
X97626226Y-68275882D01*
X97626334Y-68308819D01*
X97626334Y-68630173D01*
X97430542Y-68738468D01*
X97320440Y-68797417D01*
X97192934Y-68862734D01*
X97069307Y-68923604D01*
X97023084Y-68945510D01*
X96925405Y-68992948D01*
X96832013Y-69041553D01*
X96755860Y-69084426D01*
X96721459Y-69106146D01*
X96671197Y-69138017D01*
X96638546Y-69153528D01*
X96631500Y-69152281D01*
X96638207Y-69120147D01*
X96656541Y-69056155D01*
X96683825Y-68968286D01*
X96717379Y-68864525D01*
X96754527Y-68752856D01*
X96792589Y-68641262D01*
X96828887Y-68537726D01*
X96860744Y-68450233D01*
X96885480Y-68386765D01*
X96896731Y-68361666D01*
X96930439Y-68301305D01*
X96979698Y-68219577D01*
X97036206Y-68130087D01*
X97063554Y-68088239D01*
X97151059Y-67940327D01*
X97227554Y-67780538D01*
X97290145Y-67617628D01*
X97335943Y-67460348D01*
X97362056Y-67317452D01*
X97365591Y-67197693D01*
X97363666Y-67179706D01*
X97323300Y-67026637D01*
X97246894Y-66894742D01*
X97136594Y-66786927D01*
X97023084Y-66718866D01*
X96942468Y-66684963D01*
X96876874Y-66671733D01*
X96809583Y-66678779D01*
X96723878Y-66705702D01*
X96708556Y-66711372D01*
X96571011Y-66783746D01*
X96450622Y-66887682D01*
X96358256Y-67013352D01*
X96343421Y-67041615D01*
X96321287Y-67090112D01*
X96304922Y-67137107D01*
X96292934Y-67191124D01*
X96283926Y-67260689D01*
X96276502Y-67354326D01*
X96269269Y-67480559D01*
X96268196Y-67501237D01*
X96260532Y-67616316D01*
X96249145Y-67743896D01*
X96234998Y-67876790D01*
X96219057Y-68007811D01*
X96202285Y-68129773D01*
X96185649Y-68235489D01*
X96170112Y-68317773D01*
X96156639Y-68369437D01*
X96149862Y-68382833D01*
X96145940Y-68369264D01*
X96146348Y-68323515D01*
X96150972Y-68255833D01*
X96155759Y-68199725D01*
X96163371Y-68107842D01*
X96173292Y-67986609D01*
X96185006Y-67842453D01*
X96197997Y-67681800D01*
X96211748Y-67511076D01*
X96225744Y-67336707D01*
X96239468Y-67165118D01*
X96252404Y-67002737D01*
X96264036Y-66855988D01*
X96273849Y-66731298D01*
X96281325Y-66635092D01*
X96284598Y-66592062D01*
X96295864Y-66441707D01*
X96648890Y-66288121D01*
X96773822Y-66232962D01*
X96895926Y-66177606D01*
X97005519Y-66126547D01*
X97092919Y-66084278D01*
X97137199Y-66061524D01*
X97205110Y-66028165D01*
X97258680Y-66007936D01*
X97287416Y-66004709D01*
X97288682Y-66005631D01*
G36*
X92659105Y-67571525D02*
X92774805Y-67604659D01*
X92842667Y-67627358D01*
X92940762Y-67666656D01*
X93073822Y-67728649D01*
X93241264Y-67813042D01*
X93442504Y-67919543D01*
X93668167Y-68042983D01*
X93975582Y-68212313D01*
X94250650Y-68361617D01*
X94497190Y-68492868D01*
X94719023Y-68608042D01*
X94919969Y-68709112D01*
X95103847Y-68798054D01*
X95274478Y-68876842D01*
X95325703Y-68899700D01*
X95511866Y-68985484D01*
X95660914Y-69062068D01*
X95776497Y-69131659D01*
X95862270Y-69196463D01*
X95921883Y-69258684D01*
X95923415Y-69260676D01*
X95963808Y-69325127D01*
X95968631Y-69371121D01*
X95935748Y-69403655D01*
X95863028Y-69427728D01*
X95850977Y-69430402D01*
X95804433Y-69437370D01*
X95791607Y-69429343D01*
X95796079Y-69418929D01*
X95799131Y-69401969D01*
X95770397Y-69405662D01*
X95761685Y-69408319D01*
X95706426Y-69419045D01*
X95625055Y-69427309D01*
X95533764Y-69432259D01*
X95448744Y-69433045D01*
X95386187Y-69428815D01*
X95382667Y-69428240D01*
X95338873Y-69420884D01*
X95265748Y-69408909D01*
X95175767Y-69394351D01*
X95128667Y-69386790D01*
X95031702Y-69370258D01*
X94935107Y-69351400D01*
X94834332Y-69328934D01*
X94724833Y-69301578D01*
X94602062Y-69268051D01*
X94461471Y-69227072D01*
X94298515Y-69177357D01*
X94108647Y-69117627D01*
X93887319Y-69046599D01*
X93660445Y-68972925D01*
X93400208Y-68887324D01*
X93178012Y-68812487D01*
X92991239Y-68747393D01*
X92837270Y-68691024D01*
X92713484Y-68642361D01*
X92617265Y-68600385D01*
X92545991Y-68564078D01*
X92497045Y-68532421D01*
X92473471Y-68511182D01*
X92457115Y-68488231D01*
X92453098Y-68460963D01*
X92462604Y-68418396D01*
X92486817Y-68349546D01*
X92492552Y-68334252D01*
X92555305Y-68120990D01*
X92578673Y-67919876D01*
X92568656Y-67767179D01*
X92555521Y-67689588D01*
X92542752Y-67625770D01*
X92533614Y-67591149D01*
X92538323Y-67564748D01*
X92580215Y-67558214D01*
X92659105Y-67571525D01*
X92659105Y-67571525D01*
G37*
X92659105Y-67571525D02*
X92774805Y-67604659D01*
X92842667Y-67627358D01*
X92940762Y-67666656D01*
X93073822Y-67728649D01*
X93241264Y-67813042D01*
X93442504Y-67919543D01*
X93668167Y-68042983D01*
X93975582Y-68212313D01*
X94250650Y-68361617D01*
X94497190Y-68492868D01*
X94719023Y-68608042D01*
X94919969Y-68709112D01*
X95103847Y-68798054D01*
X95274478Y-68876842D01*
X95325703Y-68899700D01*
X95511866Y-68985484D01*
X95660914Y-69062068D01*
X95776497Y-69131659D01*
X95862270Y-69196463D01*
X95921883Y-69258684D01*
X95923415Y-69260676D01*
X95963808Y-69325127D01*
X95968631Y-69371121D01*
X95935748Y-69403655D01*
X95863028Y-69427728D01*
X95850977Y-69430402D01*
X95804433Y-69437370D01*
X95791607Y-69429343D01*
X95796079Y-69418929D01*
X95799131Y-69401969D01*
X95770397Y-69405662D01*
X95761685Y-69408319D01*
X95706426Y-69419045D01*
X95625055Y-69427309D01*
X95533764Y-69432259D01*
X95448744Y-69433045D01*
X95386187Y-69428815D01*
X95382667Y-69428240D01*
X95338873Y-69420884D01*
X95265748Y-69408909D01*
X95175767Y-69394351D01*
X95128667Y-69386790D01*
X95031702Y-69370258D01*
X94935107Y-69351400D01*
X94834332Y-69328934D01*
X94724833Y-69301578D01*
X94602062Y-69268051D01*
X94461471Y-69227072D01*
X94298515Y-69177357D01*
X94108647Y-69117627D01*
X93887319Y-69046599D01*
X93660445Y-68972925D01*
X93400208Y-68887324D01*
X93178012Y-68812487D01*
X92991239Y-68747393D01*
X92837270Y-68691024D01*
X92713484Y-68642361D01*
X92617265Y-68600385D01*
X92545991Y-68564078D01*
X92497045Y-68532421D01*
X92473471Y-68511182D01*
X92457115Y-68488231D01*
X92453098Y-68460963D01*
X92462604Y-68418396D01*
X92486817Y-68349546D01*
X92492552Y-68334252D01*
X92555305Y-68120990D01*
X92578673Y-67919876D01*
X92568656Y-67767179D01*
X92555521Y-67689588D01*
X92542752Y-67625770D01*
X92533614Y-67591149D01*
X92538323Y-67564748D01*
X92580215Y-67558214D01*
X92659105Y-67571525D01*
G36*
X86150872Y-68625697D02*
X86281108Y-68662289D01*
X86406891Y-68738960D01*
X86525542Y-68853491D01*
X86634384Y-69003665D01*
X86660455Y-69047763D01*
X86723918Y-69181968D01*
X86765067Y-69317245D01*
X86783865Y-69447027D01*
X86780276Y-69564745D01*
X86754265Y-69663830D01*
X86705795Y-69737713D01*
X86664389Y-69768014D01*
X86582905Y-69795524D01*
X86481170Y-69809866D01*
X86379838Y-69808786D01*
X86342327Y-69803183D01*
X86204922Y-69754235D01*
X86087124Y-69669443D01*
X85991214Y-69551588D01*
X85919474Y-69403452D01*
X85875161Y-69233600D01*
X85862535Y-69142241D01*
X85862207Y-69068357D01*
X85875015Y-68988690D01*
X85885641Y-68943324D01*
X85912946Y-68852487D01*
X85947761Y-68762838D01*
X85976260Y-68705293D01*
X86031326Y-68611329D01*
X86150872Y-68625697D01*
X86150872Y-68625697D01*
G37*
X86150872Y-68625697D02*
X86281108Y-68662289D01*
X86406891Y-68738960D01*
X86525542Y-68853491D01*
X86634384Y-69003665D01*
X86660455Y-69047763D01*
X86723918Y-69181968D01*
X86765067Y-69317245D01*
X86783865Y-69447027D01*
X86780276Y-69564745D01*
X86754265Y-69663830D01*
X86705795Y-69737713D01*
X86664389Y-69768014D01*
X86582905Y-69795524D01*
X86481170Y-69809866D01*
X86379838Y-69808786D01*
X86342327Y-69803183D01*
X86204922Y-69754235D01*
X86087124Y-69669443D01*
X85991214Y-69551588D01*
X85919474Y-69403452D01*
X85875161Y-69233600D01*
X85862535Y-69142241D01*
X85862207Y-69068357D01*
X85875015Y-68988690D01*
X85885641Y-68943324D01*
X85912946Y-68852487D01*
X85947761Y-68762838D01*
X85976260Y-68705293D01*
X86031326Y-68611329D01*
X86150872Y-68625697D01*
G36*
X86987105Y-69822836D02*
X87029819Y-69900381D01*
X87045681Y-69950028D01*
X87033307Y-69977697D01*
X86991312Y-69989305D01*
X86947750Y-69991042D01*
X86894976Y-69980461D01*
X86856340Y-69941240D01*
X86847209Y-69926150D01*
X86817974Y-69866186D01*
X86815232Y-69821959D01*
X86840218Y-69775230D01*
X86859110Y-69750681D01*
X86907844Y-69689780D01*
X86987105Y-69822836D01*
X86987105Y-69822836D01*
G37*
X86987105Y-69822836D02*
X87029819Y-69900381D01*
X87045681Y-69950028D01*
X87033307Y-69977697D01*
X86991312Y-69989305D01*
X86947750Y-69991042D01*
X86894976Y-69980461D01*
X86856340Y-69941240D01*
X86847209Y-69926150D01*
X86817974Y-69866186D01*
X86815232Y-69821959D01*
X86840218Y-69775230D01*
X86859110Y-69750681D01*
X86907844Y-69689780D01*
X86987105Y-69822836D01*
G36*
X95740687Y-69550673D02*
X95742500Y-69555534D01*
X95735639Y-69580924D01*
X95717276Y-69636653D01*
X95690738Y-69713409D01*
X95659353Y-69801881D01*
X95626451Y-69892757D01*
X95595358Y-69976726D01*
X95569404Y-70044476D01*
X95555730Y-70078072D01*
X95526573Y-70157875D01*
X95499515Y-70250964D01*
X95489203Y-70295030D01*
X95470642Y-70367308D01*
X95450886Y-70404283D01*
X95428791Y-70413118D01*
X95395768Y-70408329D01*
X95330087Y-70396402D01*
X95240496Y-70379002D01*
X95135746Y-70357797D01*
X95107500Y-70351947D01*
X94975332Y-70322969D01*
X94820777Y-70286776D01*
X94662154Y-70247778D01*
X94517783Y-70210384D01*
X94504250Y-70206744D01*
X94285932Y-70148290D01*
X94088016Y-70096537D01*
X93900008Y-70048919D01*
X93711416Y-70002866D01*
X93511745Y-69955814D01*
X93290503Y-69905194D01*
X93064917Y-69854608D01*
X92886345Y-69814514D01*
X92745282Y-69781734D01*
X92637818Y-69754822D01*
X92560044Y-69732333D01*
X92508051Y-69712821D01*
X92477931Y-69694840D01*
X92465774Y-69676945D01*
X92467671Y-69657689D01*
X92478372Y-69637679D01*
X92498578Y-69624693D01*
X92538978Y-69627494D01*
X92600054Y-69643698D01*
X92651704Y-69654765D01*
X92737867Y-69668076D01*
X92850841Y-69682668D01*
X92982928Y-69697578D01*
X93126427Y-69711842D01*
X93191917Y-69717728D01*
X93343977Y-69731143D01*
X93493655Y-69744731D01*
X93631796Y-69757631D01*
X93749248Y-69768986D01*
X93836857Y-69777934D01*
X93858667Y-69780327D01*
X94000773Y-69791737D01*
X94171018Y-69798111D01*
X94356290Y-69799574D01*
X94543478Y-69796251D01*
X94719469Y-69788268D01*
X94871154Y-69775750D01*
X94917000Y-69770196D01*
X95144226Y-69729786D01*
X95348486Y-69673778D01*
X95521169Y-69604579D01*
X95535422Y-69597506D01*
X95599095Y-69570624D01*
X95662302Y-69552284D01*
X95713385Y-69544846D01*
X95740687Y-69550673D01*
X95740687Y-69550673D01*
G37*
X95740687Y-69550673D02*
X95742500Y-69555534D01*
X95735639Y-69580924D01*
X95717276Y-69636653D01*
X95690738Y-69713409D01*
X95659353Y-69801881D01*
X95626451Y-69892757D01*
X95595358Y-69976726D01*
X95569404Y-70044476D01*
X95555730Y-70078072D01*
X95526573Y-70157875D01*
X95499515Y-70250964D01*
X95489203Y-70295030D01*
X95470642Y-70367308D01*
X95450886Y-70404283D01*
X95428791Y-70413118D01*
X95395768Y-70408329D01*
X95330087Y-70396402D01*
X95240496Y-70379002D01*
X95135746Y-70357797D01*
X95107500Y-70351947D01*
X94975332Y-70322969D01*
X94820777Y-70286776D01*
X94662154Y-70247778D01*
X94517783Y-70210384D01*
X94504250Y-70206744D01*
X94285932Y-70148290D01*
X94088016Y-70096537D01*
X93900008Y-70048919D01*
X93711416Y-70002866D01*
X93511745Y-69955814D01*
X93290503Y-69905194D01*
X93064917Y-69854608D01*
X92886345Y-69814514D01*
X92745282Y-69781734D01*
X92637818Y-69754822D01*
X92560044Y-69732333D01*
X92508051Y-69712821D01*
X92477931Y-69694840D01*
X92465774Y-69676945D01*
X92467671Y-69657689D01*
X92478372Y-69637679D01*
X92498578Y-69624693D01*
X92538978Y-69627494D01*
X92600054Y-69643698D01*
X92651704Y-69654765D01*
X92737867Y-69668076D01*
X92850841Y-69682668D01*
X92982928Y-69697578D01*
X93126427Y-69711842D01*
X93191917Y-69717728D01*
X93343977Y-69731143D01*
X93493655Y-69744731D01*
X93631796Y-69757631D01*
X93749248Y-69768986D01*
X93836857Y-69777934D01*
X93858667Y-69780327D01*
X94000773Y-69791737D01*
X94171018Y-69798111D01*
X94356290Y-69799574D01*
X94543478Y-69796251D01*
X94719469Y-69788268D01*
X94871154Y-69775750D01*
X94917000Y-69770196D01*
X95144226Y-69729786D01*
X95348486Y-69673778D01*
X95521169Y-69604579D01*
X95535422Y-69597506D01*
X95599095Y-69570624D01*
X95662302Y-69552284D01*
X95713385Y-69544846D01*
X95740687Y-69550673D01*
G36*
X96927235Y-66798774D02*
X96969566Y-66814246D01*
X97013083Y-66849469D01*
X97054024Y-66892156D01*
X97143079Y-67004487D01*
X97196929Y-67114923D01*
X97220234Y-67235817D01*
X97220817Y-67334292D01*
X97211695Y-67431142D01*
X97191653Y-67512355D01*
X97154737Y-67599340D01*
X97137698Y-67633233D01*
X97032362Y-67837994D01*
X96944496Y-68009830D01*
X96871960Y-68153331D01*
X96812612Y-68273090D01*
X96764313Y-68373698D01*
X96724920Y-68459745D01*
X96692292Y-68535823D01*
X96664290Y-68606524D01*
X96638771Y-68676439D01*
X96613595Y-68750159D01*
X96605554Y-68774416D01*
X96565332Y-68901461D01*
X96519631Y-69054061D01*
X96472972Y-69216636D01*
X96429875Y-69373604D01*
X96411683Y-69442759D01*
X96370554Y-69597537D01*
X96322540Y-69771283D01*
X96272629Y-69946343D01*
X96225808Y-70105059D01*
X96208943Y-70160403D01*
X96173677Y-70276849D01*
X96143335Y-70381068D01*
X96120005Y-70465557D01*
X96105776Y-70522813D01*
X96102334Y-70543371D01*
X96095530Y-70593694D01*
X96079453Y-70633765D01*
X96063027Y-70646962D01*
X96038693Y-70634223D01*
X95999812Y-70604924D01*
X95961574Y-70583040D01*
X95895461Y-70553953D01*
X95814083Y-70522276D01*
X95730051Y-70492620D01*
X95655974Y-70469597D01*
X95604464Y-70457820D01*
X95595809Y-70457166D01*
X95576596Y-70474639D01*
X95553504Y-70517126D01*
X95551719Y-70521345D01*
X95531417Y-70562245D01*
X95517070Y-70577060D01*
X95516107Y-70576495D01*
X95520907Y-70555117D01*
X95539094Y-70499586D01*
X95568762Y-70415225D01*
X95608007Y-70307357D01*
X95654924Y-70181303D01*
X95701793Y-70057600D01*
X95761819Y-69901152D01*
X95809441Y-69779493D01*
X95847016Y-69687735D01*
X95876897Y-69620991D01*
X95901441Y-69574372D01*
X95923002Y-69542990D01*
X95943935Y-69521957D01*
X95966595Y-69506385D01*
X95967671Y-69505748D01*
X96006579Y-69480369D01*
X96027877Y-69453937D01*
X96036860Y-69413429D01*
X96038827Y-69345825D01*
X96038844Y-69330755D01*
X96050431Y-69202598D01*
X96081098Y-69086606D01*
X96103137Y-69019279D01*
X96131436Y-68918952D01*
X96163982Y-68794147D01*
X96198766Y-68653382D01*
X96233776Y-68505176D01*
X96267002Y-68358050D01*
X96296434Y-68220521D01*
X96320060Y-68101110D01*
X96335869Y-68008336D01*
X96336309Y-68005308D01*
X96347010Y-67906277D01*
X96351829Y-67807423D01*
X96349906Y-67728098D01*
X96349038Y-67719558D01*
X96344458Y-67616498D01*
X96350049Y-67493067D01*
X96364100Y-67363470D01*
X96384897Y-67241913D01*
X96410727Y-67142604D01*
X96422323Y-67111738D01*
X96493478Y-66992778D01*
X96590845Y-66896867D01*
X96706177Y-66829813D01*
X96831224Y-66797426D01*
X96871541Y-66795333D01*
X96927235Y-66798774D01*
X96927235Y-66798774D01*
G37*
X96927235Y-66798774D02*
X96969566Y-66814246D01*
X97013083Y-66849469D01*
X97054024Y-66892156D01*
X97143079Y-67004487D01*
X97196929Y-67114923D01*
X97220234Y-67235817D01*
X97220817Y-67334292D01*
X97211695Y-67431142D01*
X97191653Y-67512355D01*
X97154737Y-67599340D01*
X97137698Y-67633233D01*
X97032362Y-67837994D01*
X96944496Y-68009830D01*
X96871960Y-68153331D01*
X96812612Y-68273090D01*
X96764313Y-68373698D01*
X96724920Y-68459745D01*
X96692292Y-68535823D01*
X96664290Y-68606524D01*
X96638771Y-68676439D01*
X96613595Y-68750159D01*
X96605554Y-68774416D01*
X96565332Y-68901461D01*
X96519631Y-69054061D01*
X96472972Y-69216636D01*
X96429875Y-69373604D01*
X96411683Y-69442759D01*
X96370554Y-69597537D01*
X96322540Y-69771283D01*
X96272629Y-69946343D01*
X96225808Y-70105059D01*
X96208943Y-70160403D01*
X96173677Y-70276849D01*
X96143335Y-70381068D01*
X96120005Y-70465557D01*
X96105776Y-70522813D01*
X96102334Y-70543371D01*
X96095530Y-70593694D01*
X96079453Y-70633765D01*
X96063027Y-70646962D01*
X96038693Y-70634223D01*
X95999812Y-70604924D01*
X95961574Y-70583040D01*
X95895461Y-70553953D01*
X95814083Y-70522276D01*
X95730051Y-70492620D01*
X95655974Y-70469597D01*
X95604464Y-70457820D01*
X95595809Y-70457166D01*
X95576596Y-70474639D01*
X95553504Y-70517126D01*
X95551719Y-70521345D01*
X95531417Y-70562245D01*
X95517070Y-70577060D01*
X95516107Y-70576495D01*
X95520907Y-70555117D01*
X95539094Y-70499586D01*
X95568762Y-70415225D01*
X95608007Y-70307357D01*
X95654924Y-70181303D01*
X95701793Y-70057600D01*
X95761819Y-69901152D01*
X95809441Y-69779493D01*
X95847016Y-69687735D01*
X95876897Y-69620991D01*
X95901441Y-69574372D01*
X95923002Y-69542990D01*
X95943935Y-69521957D01*
X95966595Y-69506385D01*
X95967671Y-69505748D01*
X96006579Y-69480369D01*
X96027877Y-69453937D01*
X96036860Y-69413429D01*
X96038827Y-69345825D01*
X96038844Y-69330755D01*
X96050431Y-69202598D01*
X96081098Y-69086606D01*
X96103137Y-69019279D01*
X96131436Y-68918952D01*
X96163982Y-68794147D01*
X96198766Y-68653382D01*
X96233776Y-68505176D01*
X96267002Y-68358050D01*
X96296434Y-68220521D01*
X96320060Y-68101110D01*
X96335869Y-68008336D01*
X96336309Y-68005308D01*
X96347010Y-67906277D01*
X96351829Y-67807423D01*
X96349906Y-67728098D01*
X96349038Y-67719558D01*
X96344458Y-67616498D01*
X96350049Y-67493067D01*
X96364100Y-67363470D01*
X96384897Y-67241913D01*
X96410727Y-67142604D01*
X96422323Y-67111738D01*
X96493478Y-66992778D01*
X96590845Y-66896867D01*
X96706177Y-66829813D01*
X96831224Y-66797426D01*
X96871541Y-66795333D01*
X96927235Y-66798774D01*
G36*
X92452469Y-68647038D02*
X92537038Y-68700527D01*
X92658179Y-68761312D01*
X92811064Y-68827853D01*
X92990864Y-68898609D01*
X93192750Y-68972041D01*
X93411894Y-69046609D01*
X93643468Y-69120773D01*
X93882641Y-69192994D01*
X94124587Y-69261731D01*
X94364476Y-69325444D01*
X94597479Y-69382594D01*
X94818768Y-69431641D01*
X95023515Y-69471045D01*
X95051426Y-69475847D01*
X95141467Y-69491822D01*
X95212740Y-69505889D01*
X95257060Y-69516338D01*
X95267570Y-69520985D01*
X95237760Y-69531116D01*
X95171293Y-69542030D01*
X95073826Y-69553296D01*
X94951017Y-69564483D01*
X94808524Y-69575158D01*
X94652007Y-69584890D01*
X94487122Y-69593247D01*
X94319528Y-69599797D01*
X94186750Y-69603458D01*
X93913389Y-69607325D01*
X93670251Y-69605734D01*
X93445512Y-69598100D01*
X93227341Y-69583840D01*
X93003914Y-69562367D01*
X92763401Y-69533098D01*
X92763332Y-69533089D01*
X92504080Y-69498901D01*
X92481416Y-69414735D01*
X92440913Y-69327815D01*
X92372281Y-69241777D01*
X92287854Y-69169953D01*
X92220928Y-69133164D01*
X92138939Y-69099747D01*
X92153714Y-69180498D01*
X92182018Y-69256027D01*
X92233180Y-69329875D01*
X92238189Y-69335333D01*
X92309688Y-69432509D01*
X92347206Y-69532395D01*
X92349039Y-69627878D01*
X92324343Y-69695166D01*
X92210073Y-69914787D01*
X92124782Y-70136024D01*
X92063905Y-70372479D01*
X92031544Y-70567832D01*
X92005334Y-70764083D01*
X91847209Y-70810414D01*
X91720684Y-70837582D01*
X91575429Y-70853114D01*
X91426664Y-70856576D01*
X91289609Y-70847532D01*
X91191667Y-70829133D01*
X91012013Y-70761227D01*
X90852817Y-70664858D01*
X90720259Y-70544797D01*
X90620519Y-70405814D01*
X90605228Y-70376523D01*
X90577338Y-70315277D01*
X90559901Y-70260736D01*
X90550577Y-70199617D01*
X90547025Y-70118635D01*
X90546716Y-70044416D01*
X90554799Y-69889578D01*
X90580422Y-69764719D01*
X90627195Y-69659840D01*
X90698732Y-69564944D01*
X90732522Y-69530045D01*
X90860294Y-69430933D01*
X91001415Y-69371691D01*
X91158566Y-69351224D01*
X91170006Y-69351214D01*
X91241032Y-69354285D01*
X91304058Y-69364865D01*
X91372078Y-69386620D01*
X91458085Y-69423219D01*
X91509167Y-69446943D01*
X91695757Y-69529761D01*
X91850435Y-69586891D01*
X91974786Y-69618533D01*
X92070394Y-69624885D01*
X92138843Y-69606146D01*
X92181718Y-69562517D01*
X92193633Y-69532958D01*
X92201860Y-69451276D01*
X92192894Y-69384791D01*
X92173049Y-69303583D01*
X92119042Y-69408350D01*
X92095627Y-69453571D01*
X92078360Y-69480332D01*
X92064533Y-69484695D01*
X92051435Y-69462721D01*
X92036356Y-69410472D01*
X92016588Y-69324009D01*
X91996000Y-69229500D01*
X91976009Y-69139106D01*
X91958437Y-69062012D01*
X91945817Y-69009221D01*
X91941890Y-68994479D01*
X91952606Y-68958147D01*
X92002613Y-68913251D01*
X92011434Y-68907214D01*
X92064180Y-68867905D01*
X92134812Y-68809884D01*
X92210627Y-68743700D01*
X92234505Y-68721970D01*
X92377759Y-68590054D01*
X92452469Y-68647038D01*
X92452469Y-68647038D01*
G37*
X92452469Y-68647038D02*
X92537038Y-68700527D01*
X92658179Y-68761312D01*
X92811064Y-68827853D01*
X92990864Y-68898609D01*
X93192750Y-68972041D01*
X93411894Y-69046609D01*
X93643468Y-69120773D01*
X93882641Y-69192994D01*
X94124587Y-69261731D01*
X94364476Y-69325444D01*
X94597479Y-69382594D01*
X94818768Y-69431641D01*
X95023515Y-69471045D01*
X95051426Y-69475847D01*
X95141467Y-69491822D01*
X95212740Y-69505889D01*
X95257060Y-69516338D01*
X95267570Y-69520985D01*
X95237760Y-69531116D01*
X95171293Y-69542030D01*
X95073826Y-69553296D01*
X94951017Y-69564483D01*
X94808524Y-69575158D01*
X94652007Y-69584890D01*
X94487122Y-69593247D01*
X94319528Y-69599797D01*
X94186750Y-69603458D01*
X93913389Y-69607325D01*
X93670251Y-69605734D01*
X93445512Y-69598100D01*
X93227341Y-69583840D01*
X93003914Y-69562367D01*
X92763401Y-69533098D01*
X92763332Y-69533089D01*
X92504080Y-69498901D01*
X92481416Y-69414735D01*
X92440913Y-69327815D01*
X92372281Y-69241777D01*
X92287854Y-69169953D01*
X92220928Y-69133164D01*
X92138939Y-69099747D01*
X92153714Y-69180498D01*
X92182018Y-69256027D01*
X92233180Y-69329875D01*
X92238189Y-69335333D01*
X92309688Y-69432509D01*
X92347206Y-69532395D01*
X92349039Y-69627878D01*
X92324343Y-69695166D01*
X92210073Y-69914787D01*
X92124782Y-70136024D01*
X92063905Y-70372479D01*
X92031544Y-70567832D01*
X92005334Y-70764083D01*
X91847209Y-70810414D01*
X91720684Y-70837582D01*
X91575429Y-70853114D01*
X91426664Y-70856576D01*
X91289609Y-70847532D01*
X91191667Y-70829133D01*
X91012013Y-70761227D01*
X90852817Y-70664858D01*
X90720259Y-70544797D01*
X90620519Y-70405814D01*
X90605228Y-70376523D01*
X90577338Y-70315277D01*
X90559901Y-70260736D01*
X90550577Y-70199617D01*
X90547025Y-70118635D01*
X90546716Y-70044416D01*
X90554799Y-69889578D01*
X90580422Y-69764719D01*
X90627195Y-69659840D01*
X90698732Y-69564944D01*
X90732522Y-69530045D01*
X90860294Y-69430933D01*
X91001415Y-69371691D01*
X91158566Y-69351224D01*
X91170006Y-69351214D01*
X91241032Y-69354285D01*
X91304058Y-69364865D01*
X91372078Y-69386620D01*
X91458085Y-69423219D01*
X91509167Y-69446943D01*
X91695757Y-69529761D01*
X91850435Y-69586891D01*
X91974786Y-69618533D01*
X92070394Y-69624885D01*
X92138843Y-69606146D01*
X92181718Y-69562517D01*
X92193633Y-69532958D01*
X92201860Y-69451276D01*
X92192894Y-69384791D01*
X92173049Y-69303583D01*
X92119042Y-69408350D01*
X92095627Y-69453571D01*
X92078360Y-69480332D01*
X92064533Y-69484695D01*
X92051435Y-69462721D01*
X92036356Y-69410472D01*
X92016588Y-69324009D01*
X91996000Y-69229500D01*
X91976009Y-69139106D01*
X91958437Y-69062012D01*
X91945817Y-69009221D01*
X91941890Y-68994479D01*
X91952606Y-68958147D01*
X92002613Y-68913251D01*
X92011434Y-68907214D01*
X92064180Y-68867905D01*
X92134812Y-68809884D01*
X92210627Y-68743700D01*
X92234505Y-68721970D01*
X92377759Y-68590054D01*
X92452469Y-68647038D01*
G36*
X92456339Y-69856214D02*
X92526249Y-69867915D01*
X92623482Y-69886951D01*
X92753063Y-69913782D01*
X92885000Y-69941507D01*
X93050998Y-69977889D01*
X93251088Y-70024174D01*
X93478654Y-70078661D01*
X93727076Y-70139648D01*
X93989736Y-70205434D01*
X94260015Y-70274317D01*
X94531295Y-70344597D01*
X94796958Y-70414571D01*
X95050385Y-70482539D01*
X95284958Y-70546799D01*
X95494058Y-70605649D01*
X95671067Y-70657389D01*
X95678417Y-70659597D01*
X95796110Y-70713690D01*
X95892818Y-70795205D01*
X95959978Y-70896083D01*
X95976744Y-70940360D01*
X95989839Y-71040705D01*
X95964509Y-71123842D01*
X95901450Y-71188745D01*
X95801356Y-71234386D01*
X95772612Y-71242186D01*
X95729319Y-71247860D01*
X95651003Y-71253405D01*
X95544974Y-71258656D01*
X95418540Y-71263448D01*
X95279013Y-71267616D01*
X95133702Y-71270994D01*
X94989917Y-71273417D01*
X94854967Y-71274720D01*
X94736164Y-71274736D01*
X94640815Y-71273302D01*
X94576233Y-71270251D01*
X94567750Y-71269443D01*
X94525553Y-71265391D01*
X94447219Y-71258410D01*
X94338802Y-71249018D01*
X94206359Y-71237734D01*
X94055943Y-71225075D01*
X93893611Y-71211562D01*
X93840393Y-71207162D01*
X93532192Y-71179301D01*
X93252370Y-71149047D01*
X93002893Y-71116744D01*
X92785727Y-71082737D01*
X92602838Y-71047370D01*
X92456193Y-71010988D01*
X92347757Y-70973936D01*
X92279496Y-70936557D01*
X92275060Y-70932905D01*
X92250533Y-70910124D01*
X92234440Y-70886442D01*
X92225140Y-70853072D01*
X92220992Y-70801224D01*
X92220357Y-70722112D01*
X92221145Y-70644074D01*
X92226688Y-70523692D01*
X92239557Y-70388889D01*
X92258082Y-70250185D01*
X92280590Y-70118104D01*
X92305412Y-70003168D01*
X92330876Y-69915900D01*
X92340635Y-69891604D01*
X92349355Y-69873544D01*
X92360258Y-69860513D01*
X92378371Y-69852974D01*
X92408722Y-69851388D01*
X92456339Y-69856214D01*
X92456339Y-69856214D01*
G37*
X92456339Y-69856214D02*
X92526249Y-69867915D01*
X92623482Y-69886951D01*
X92753063Y-69913782D01*
X92885000Y-69941507D01*
X93050998Y-69977889D01*
X93251088Y-70024174D01*
X93478654Y-70078661D01*
X93727076Y-70139648D01*
X93989736Y-70205434D01*
X94260015Y-70274317D01*
X94531295Y-70344597D01*
X94796958Y-70414571D01*
X95050385Y-70482539D01*
X95284958Y-70546799D01*
X95494058Y-70605649D01*
X95671067Y-70657389D01*
X95678417Y-70659597D01*
X95796110Y-70713690D01*
X95892818Y-70795205D01*
X95959978Y-70896083D01*
X95976744Y-70940360D01*
X95989839Y-71040705D01*
X95964509Y-71123842D01*
X95901450Y-71188745D01*
X95801356Y-71234386D01*
X95772612Y-71242186D01*
X95729319Y-71247860D01*
X95651003Y-71253405D01*
X95544974Y-71258656D01*
X95418540Y-71263448D01*
X95279013Y-71267616D01*
X95133702Y-71270994D01*
X94989917Y-71273417D01*
X94854967Y-71274720D01*
X94736164Y-71274736D01*
X94640815Y-71273302D01*
X94576233Y-71270251D01*
X94567750Y-71269443D01*
X94525553Y-71265391D01*
X94447219Y-71258410D01*
X94338802Y-71249018D01*
X94206359Y-71237734D01*
X94055943Y-71225075D01*
X93893611Y-71211562D01*
X93840393Y-71207162D01*
X93532192Y-71179301D01*
X93252370Y-71149047D01*
X93002893Y-71116744D01*
X92785727Y-71082737D01*
X92602838Y-71047370D01*
X92456193Y-71010988D01*
X92347757Y-70973936D01*
X92279496Y-70936557D01*
X92275060Y-70932905D01*
X92250533Y-70910124D01*
X92234440Y-70886442D01*
X92225140Y-70853072D01*
X92220992Y-70801224D01*
X92220357Y-70722112D01*
X92221145Y-70644074D01*
X92226688Y-70523692D01*
X92239557Y-70388889D01*
X92258082Y-70250185D01*
X92280590Y-70118104D01*
X92305412Y-70003168D01*
X92330876Y-69915900D01*
X92340635Y-69891604D01*
X92349355Y-69873544D01*
X92360258Y-69860513D01*
X92378371Y-69852974D01*
X92408722Y-69851388D01*
X92456339Y-69856214D01*
G36*
X87067932Y-70150286D02*
X87160077Y-70191217D01*
X87267588Y-70270369D01*
X87358837Y-70355516D01*
X87497989Y-70519189D01*
X87596259Y-70688691D01*
X87653260Y-70862987D01*
X87668605Y-71041043D01*
X87657195Y-71151926D01*
X87637715Y-71249414D01*
X87616568Y-71314709D01*
X87588615Y-71357807D01*
X87548719Y-71388706D01*
X87530257Y-71398864D01*
X87453739Y-71422045D01*
X87354970Y-71430159D01*
X87251090Y-71423649D01*
X87159239Y-71402956D01*
X87125002Y-71388406D01*
X87008770Y-71310455D01*
X86897981Y-71206732D01*
X86805487Y-71090643D01*
X86755652Y-71003086D01*
X86725783Y-70932734D01*
X86707525Y-70871208D01*
X86698146Y-70803517D01*
X86694914Y-70714669D01*
X86694731Y-70668833D01*
X86696659Y-70564641D01*
X86703558Y-70490346D01*
X86717397Y-70433618D01*
X86740146Y-70382128D01*
X86740700Y-70381079D01*
X86794629Y-70301011D01*
X86864140Y-70227707D01*
X86937252Y-70172293D01*
X86991782Y-70147932D01*
X87067932Y-70150286D01*
X87067932Y-70150286D01*
G37*
X87067932Y-70150286D02*
X87160077Y-70191217D01*
X87267588Y-70270369D01*
X87358837Y-70355516D01*
X87497989Y-70519189D01*
X87596259Y-70688691D01*
X87653260Y-70862987D01*
X87668605Y-71041043D01*
X87657195Y-71151926D01*
X87637715Y-71249414D01*
X87616568Y-71314709D01*
X87588615Y-71357807D01*
X87548719Y-71388706D01*
X87530257Y-71398864D01*
X87453739Y-71422045D01*
X87354970Y-71430159D01*
X87251090Y-71423649D01*
X87159239Y-71402956D01*
X87125002Y-71388406D01*
X87008770Y-71310455D01*
X86897981Y-71206732D01*
X86805487Y-71090643D01*
X86755652Y-71003086D01*
X86725783Y-70932734D01*
X86707525Y-70871208D01*
X86698146Y-70803517D01*
X86694914Y-70714669D01*
X86694731Y-70668833D01*
X86696659Y-70564641D01*
X86703558Y-70490346D01*
X86717397Y-70433618D01*
X86740146Y-70382128D01*
X86740700Y-70381079D01*
X86794629Y-70301011D01*
X86864140Y-70227707D01*
X86937252Y-70172293D01*
X86991782Y-70147932D01*
X87067932Y-70150286D01*
G36*
X97339739Y-71140891D02*
X97328224Y-71197144D01*
X97308645Y-71278496D01*
X97283092Y-71377236D01*
X97253656Y-71485651D01*
X97222426Y-71596030D01*
X97191493Y-71700660D01*
X97162947Y-71791829D01*
X97140663Y-71856986D01*
X97109699Y-71935575D01*
X97067818Y-72033411D01*
X97018323Y-72143644D01*
X96964519Y-72259420D01*
X96909707Y-72373888D01*
X96857194Y-72480196D01*
X96810281Y-72571492D01*
X96772274Y-72640923D01*
X96746475Y-72681639D01*
X96739569Y-72688868D01*
X96718299Y-72698192D01*
X96716486Y-72696790D01*
X96723174Y-72674748D01*
X96739583Y-72627205D01*
X96747306Y-72605583D01*
X96772421Y-72490460D01*
X96776325Y-72354127D01*
X96759328Y-72211829D01*
X96737557Y-72124456D01*
X96676036Y-71986424D01*
X96584143Y-71876484D01*
X96458958Y-71791362D01*
X96426308Y-71775479D01*
X96358191Y-71740435D01*
X96329789Y-71714213D01*
X96340143Y-71693911D01*
X96388290Y-71676627D01*
X96393175Y-71675425D01*
X96472268Y-71648716D01*
X96576529Y-71602608D01*
X96696622Y-71542224D01*
X96823208Y-71472692D01*
X96946951Y-71399134D01*
X97058514Y-71326678D01*
X97147146Y-71261584D01*
X97221952Y-71202474D01*
X97283755Y-71155440D01*
X97325770Y-71125528D01*
X97341099Y-71117451D01*
X97339739Y-71140891D01*
X97339739Y-71140891D01*
G37*
X97339739Y-71140891D02*
X97328224Y-71197144D01*
X97308645Y-71278496D01*
X97283092Y-71377236D01*
X97253656Y-71485651D01*
X97222426Y-71596030D01*
X97191493Y-71700660D01*
X97162947Y-71791829D01*
X97140663Y-71856986D01*
X97109699Y-71935575D01*
X97067818Y-72033411D01*
X97018323Y-72143644D01*
X96964519Y-72259420D01*
X96909707Y-72373888D01*
X96857194Y-72480196D01*
X96810281Y-72571492D01*
X96772274Y-72640923D01*
X96746475Y-72681639D01*
X96739569Y-72688868D01*
X96718299Y-72698192D01*
X96716486Y-72696790D01*
X96723174Y-72674748D01*
X96739583Y-72627205D01*
X96747306Y-72605583D01*
X96772421Y-72490460D01*
X96776325Y-72354127D01*
X96759328Y-72211829D01*
X96737557Y-72124456D01*
X96676036Y-71986424D01*
X96584143Y-71876484D01*
X96458958Y-71791362D01*
X96426308Y-71775479D01*
X96358191Y-71740435D01*
X96329789Y-71714213D01*
X96340143Y-71693911D01*
X96388290Y-71676627D01*
X96393175Y-71675425D01*
X96472268Y-71648716D01*
X96576529Y-71602608D01*
X96696622Y-71542224D01*
X96823208Y-71472692D01*
X96946951Y-71399134D01*
X97058514Y-71326678D01*
X97147146Y-71261584D01*
X97221952Y-71202474D01*
X97283755Y-71155440D01*
X97325770Y-71125528D01*
X97341099Y-71117451D01*
X97339739Y-71140891D01*
G36*
X96620928Y-72905719D02*
X96564466Y-72999026D01*
X96488452Y-73117612D01*
X96398717Y-73252876D01*
X96301097Y-73396221D01*
X96201422Y-73539045D01*
X96105526Y-73672751D01*
X96045603Y-73753875D01*
X95969736Y-73854361D01*
X95915443Y-73924328D01*
X95879470Y-73967542D01*
X95858566Y-73987772D01*
X95849476Y-73988786D01*
X95848334Y-73982406D01*
X95857016Y-73961112D01*
X95881090Y-73908040D01*
X95917595Y-73829565D01*
X95963573Y-73732058D01*
X96006395Y-73642100D01*
X96117998Y-73422746D01*
X96228159Y-73233892D01*
X96335201Y-73077824D01*
X96437447Y-72956824D01*
X96533220Y-72873178D01*
X96597342Y-72837318D01*
X96679601Y-72803688D01*
X96620928Y-72905719D01*
X96620928Y-72905719D01*
G37*
X96620928Y-72905719D02*
X96564466Y-72999026D01*
X96488452Y-73117612D01*
X96398717Y-73252876D01*
X96301097Y-73396221D01*
X96201422Y-73539045D01*
X96105526Y-73672751D01*
X96045603Y-73753875D01*
X95969736Y-73854361D01*
X95915443Y-73924328D01*
X95879470Y-73967542D01*
X95858566Y-73987772D01*
X95849476Y-73988786D01*
X95848334Y-73982406D01*
X95857016Y-73961112D01*
X95881090Y-73908040D01*
X95917595Y-73829565D01*
X95963573Y-73732058D01*
X96006395Y-73642100D01*
X96117998Y-73422746D01*
X96228159Y-73233892D01*
X96335201Y-73077824D01*
X96437447Y-72956824D01*
X96533220Y-72873178D01*
X96597342Y-72837318D01*
X96679601Y-72803688D01*
X96620928Y-72905719D01*
G36*
X95427802Y-61702340D02*
X95471620Y-61758052D01*
X95536738Y-61828492D01*
X95611713Y-61901553D01*
X95641845Y-61928753D01*
X95853962Y-62121985D01*
X96070361Y-62331330D01*
X96283588Y-62548941D01*
X96486192Y-62766969D01*
X96670720Y-62977567D01*
X96829718Y-63172887D01*
X96856864Y-63208197D01*
X97071021Y-63508310D01*
X97265684Y-63818370D01*
X97436318Y-64130213D01*
X97578390Y-64435673D01*
X97668317Y-64669612D01*
X97716923Y-64826581D01*
X97768136Y-65021895D01*
X97821277Y-65251691D01*
X97875671Y-65512109D01*
X97930637Y-65799287D01*
X97985501Y-66109364D01*
X98039582Y-66438478D01*
X98092205Y-66782768D01*
X98142692Y-67138373D01*
X98190364Y-67501430D01*
X98234545Y-67868079D01*
X98243738Y-67948916D01*
X98266053Y-68189471D01*
X98281825Y-68449939D01*
X98291003Y-68720555D01*
X98293533Y-68991553D01*
X98289361Y-69253170D01*
X98278435Y-69495639D01*
X98260700Y-69709196D01*
X98253653Y-69769250D01*
X98171350Y-70298048D01*
X98059103Y-70835451D01*
X97919514Y-71372704D01*
X97755188Y-71901053D01*
X97568728Y-72411740D01*
X97362738Y-72896012D01*
X97259136Y-73113583D01*
X97008412Y-73586339D01*
X96737999Y-74027325D01*
X96442230Y-74444539D01*
X96115437Y-74845979D01*
X95753741Y-75237812D01*
X95609229Y-75383937D01*
X95492370Y-75498258D01*
X95403023Y-75580902D01*
X95341045Y-75631998D01*
X95306295Y-75651670D01*
X95298000Y-75645206D01*
X95305259Y-75612399D01*
X95323299Y-75558815D01*
X95329397Y-75542886D01*
X95346032Y-75496030D01*
X95372024Y-75417309D01*
X95404586Y-75315412D01*
X95440929Y-75199029D01*
X95467053Y-75113833D01*
X95510188Y-74974484D01*
X95557278Y-74826382D01*
X95603666Y-74683929D01*
X95644696Y-74561524D01*
X95659433Y-74518923D01*
X95745553Y-74273264D01*
X95925316Y-74130342D01*
X96113615Y-73962037D01*
X96303631Y-73756844D01*
X96492042Y-73519906D01*
X96675525Y-73256368D01*
X96850757Y-72971373D01*
X97014417Y-72670066D01*
X97163182Y-72357590D01*
X97293730Y-72039089D01*
X97317401Y-71975007D01*
X97463290Y-71522478D01*
X97584451Y-71040724D01*
X97680345Y-70535262D01*
X97750430Y-70011613D01*
X97794165Y-69475294D01*
X97811010Y-68931823D01*
X97800423Y-68386720D01*
X97761864Y-67845502D01*
X97741020Y-67652583D01*
X97684441Y-67239082D01*
X97612160Y-66818216D01*
X97526083Y-66397839D01*
X97428120Y-65985805D01*
X97320179Y-65589967D01*
X97204166Y-65218180D01*
X97081992Y-64878296D01*
X97043452Y-64781342D01*
X96841434Y-64337837D01*
X96608018Y-63922227D01*
X96342252Y-63533298D01*
X96043183Y-63169837D01*
X95709860Y-62830631D01*
X95341331Y-62514467D01*
X95151369Y-62370331D01*
X94903154Y-62189245D01*
X94996457Y-62084581D01*
X95050306Y-62021350D01*
X95118455Y-61937313D01*
X95190187Y-61845820D01*
X95228546Y-61795480D01*
X95367331Y-61611044D01*
X95427802Y-61702340D01*
X95427802Y-61702340D01*
G37*
X95427802Y-61702340D02*
X95471620Y-61758052D01*
X95536738Y-61828492D01*
X95611713Y-61901553D01*
X95641845Y-61928753D01*
X95853962Y-62121985D01*
X96070361Y-62331330D01*
X96283588Y-62548941D01*
X96486192Y-62766969D01*
X96670720Y-62977567D01*
X96829718Y-63172887D01*
X96856864Y-63208197D01*
X97071021Y-63508310D01*
X97265684Y-63818370D01*
X97436318Y-64130213D01*
X97578390Y-64435673D01*
X97668317Y-64669612D01*
X97716923Y-64826581D01*
X97768136Y-65021895D01*
X97821277Y-65251691D01*
X97875671Y-65512109D01*
X97930637Y-65799287D01*
X97985501Y-66109364D01*
X98039582Y-66438478D01*
X98092205Y-66782768D01*
X98142692Y-67138373D01*
X98190364Y-67501430D01*
X98234545Y-67868079D01*
X98243738Y-67948916D01*
X98266053Y-68189471D01*
X98281825Y-68449939D01*
X98291003Y-68720555D01*
X98293533Y-68991553D01*
X98289361Y-69253170D01*
X98278435Y-69495639D01*
X98260700Y-69709196D01*
X98253653Y-69769250D01*
X98171350Y-70298048D01*
X98059103Y-70835451D01*
X97919514Y-71372704D01*
X97755188Y-71901053D01*
X97568728Y-72411740D01*
X97362738Y-72896012D01*
X97259136Y-73113583D01*
X97008412Y-73586339D01*
X96737999Y-74027325D01*
X96442230Y-74444539D01*
X96115437Y-74845979D01*
X95753741Y-75237812D01*
X95609229Y-75383937D01*
X95492370Y-75498258D01*
X95403023Y-75580902D01*
X95341045Y-75631998D01*
X95306295Y-75651670D01*
X95298000Y-75645206D01*
X95305259Y-75612399D01*
X95323299Y-75558815D01*
X95329397Y-75542886D01*
X95346032Y-75496030D01*
X95372024Y-75417309D01*
X95404586Y-75315412D01*
X95440929Y-75199029D01*
X95467053Y-75113833D01*
X95510188Y-74974484D01*
X95557278Y-74826382D01*
X95603666Y-74683929D01*
X95644696Y-74561524D01*
X95659433Y-74518923D01*
X95745553Y-74273264D01*
X95925316Y-74130342D01*
X96113615Y-73962037D01*
X96303631Y-73756844D01*
X96492042Y-73519906D01*
X96675525Y-73256368D01*
X96850757Y-72971373D01*
X97014417Y-72670066D01*
X97163182Y-72357590D01*
X97293730Y-72039089D01*
X97317401Y-71975007D01*
X97463290Y-71522478D01*
X97584451Y-71040724D01*
X97680345Y-70535262D01*
X97750430Y-70011613D01*
X97794165Y-69475294D01*
X97811010Y-68931823D01*
X97800423Y-68386720D01*
X97761864Y-67845502D01*
X97741020Y-67652583D01*
X97684441Y-67239082D01*
X97612160Y-66818216D01*
X97526083Y-66397839D01*
X97428120Y-65985805D01*
X97320179Y-65589967D01*
X97204166Y-65218180D01*
X97081992Y-64878296D01*
X97043452Y-64781342D01*
X96841434Y-64337837D01*
X96608018Y-63922227D01*
X96342252Y-63533298D01*
X96043183Y-63169837D01*
X95709860Y-62830631D01*
X95341331Y-62514467D01*
X95151369Y-62370331D01*
X94903154Y-62189245D01*
X94996457Y-62084581D01*
X95050306Y-62021350D01*
X95118455Y-61937313D01*
X95190187Y-61845820D01*
X95228546Y-61795480D01*
X95367331Y-61611044D01*
X95427802Y-61702340D01*
G36*
X97625801Y-68817489D02*
X97626311Y-68821966D01*
X97624412Y-68871219D01*
X97619165Y-68955111D01*
X97611191Y-69066136D01*
X97601111Y-69196786D01*
X97589547Y-69339555D01*
X97577120Y-69486936D01*
X97564452Y-69631420D01*
X97552164Y-69765502D01*
X97540876Y-69881674D01*
X97531211Y-69972428D01*
X97530778Y-69976196D01*
X97515295Y-70101704D01*
X97496501Y-70240603D01*
X97475542Y-70385717D01*
X97453562Y-70529867D01*
X97431706Y-70665875D01*
X97411118Y-70786563D01*
X97392943Y-70884752D01*
X97378325Y-70953265D01*
X97370708Y-70980025D01*
X97349819Y-71017217D01*
X97333327Y-71028666D01*
X97307962Y-71039743D01*
X97257498Y-71069138D01*
X97191661Y-71111101D01*
X97173559Y-71123137D01*
X97022178Y-71215817D01*
X96837651Y-71314286D01*
X96628104Y-71414932D01*
X96401669Y-71514141D01*
X96166472Y-71608301D01*
X95930643Y-71693798D01*
X95774250Y-71745087D01*
X95370336Y-71862552D01*
X94986380Y-71954956D01*
X94611346Y-72023890D01*
X94234196Y-72070947D01*
X93843894Y-72097717D01*
X93429401Y-72105794D01*
X93281855Y-72104576D01*
X93119167Y-72102586D01*
X92994786Y-72102376D01*
X92904697Y-72104602D01*
X92844889Y-72109924D01*
X92811349Y-72119000D01*
X92800064Y-72132487D01*
X92807022Y-72151044D01*
X92828209Y-72175329D01*
X92831325Y-72178467D01*
X92877601Y-72201102D01*
X92962924Y-72217382D01*
X93084489Y-72227323D01*
X93239491Y-72230939D01*
X93425128Y-72228245D01*
X93638593Y-72219258D01*
X93877082Y-72203992D01*
X94137792Y-72182463D01*
X94262134Y-72170684D01*
X94466226Y-72149434D01*
X94639647Y-72128317D01*
X94794009Y-72105394D01*
X94940926Y-72078725D01*
X95092008Y-72046372D01*
X95258868Y-72006397D01*
X95284692Y-71999946D01*
X95381623Y-71976370D01*
X95462493Y-71958100D01*
X95519147Y-71946880D01*
X95543429Y-71944451D01*
X95543664Y-71944608D01*
X95539729Y-71966263D01*
X95520725Y-72011596D01*
X95510233Y-72032972D01*
X95465414Y-72158170D01*
X95451340Y-72301124D01*
X95464886Y-72453733D01*
X95475845Y-72536595D01*
X95477711Y-72604868D01*
X95469486Y-72675963D01*
X95450171Y-72767297D01*
X95445853Y-72785500D01*
X95421592Y-72882546D01*
X95396163Y-72977279D01*
X95374324Y-73052104D01*
X95370558Y-73063890D01*
X95338305Y-73162364D01*
X95185861Y-73196895D01*
X95037952Y-73229346D01*
X94909354Y-73254526D01*
X94790894Y-73273319D01*
X94673403Y-73286613D01*
X94547707Y-73295292D01*
X94404637Y-73300243D01*
X94235021Y-73302351D01*
X94091500Y-73302607D01*
X93887827Y-73301419D01*
X93720149Y-73298064D01*
X93582168Y-73292249D01*
X93467586Y-73283677D01*
X93370106Y-73272055D01*
X93340084Y-73267413D01*
X93191795Y-73244759D01*
X93059955Y-73227832D01*
X92949749Y-73217050D01*
X92866361Y-73212831D01*
X92814976Y-73215595D01*
X92800334Y-73223801D01*
X92820046Y-73241976D01*
X92874452Y-73264954D01*
X92956456Y-73290777D01*
X93058961Y-73317490D01*
X93174870Y-73343136D01*
X93297088Y-73365758D01*
X93340084Y-73372606D01*
X93446091Y-73386074D01*
X93567152Y-73396065D01*
X93709966Y-73402890D01*
X93881232Y-73406866D01*
X94087650Y-73408305D01*
X94102084Y-73408318D01*
X94343907Y-73406598D01*
X94549054Y-73400802D01*
X94723032Y-73390443D01*
X94871345Y-73375033D01*
X94999499Y-73354085D01*
X95113001Y-73327110D01*
X95153403Y-73315188D01*
X95222111Y-73295480D01*
X95273085Y-73284000D01*
X95294680Y-73283123D01*
X95292315Y-73307537D01*
X95275249Y-73367584D01*
X95244743Y-73459687D01*
X95202055Y-73580270D01*
X95148446Y-73725756D01*
X95085174Y-73892569D01*
X95028919Y-74037762D01*
X94891095Y-74390441D01*
X94726762Y-74465559D01*
X94564446Y-74533824D01*
X94414411Y-74582394D01*
X94263473Y-74613973D01*
X94098448Y-74631262D01*
X93906153Y-74636965D01*
X93890417Y-74637001D01*
X93730741Y-74635004D01*
X93602579Y-74628182D01*
X93495295Y-74615678D01*
X93403584Y-74597889D01*
X93107842Y-74507605D01*
X92826147Y-74377996D01*
X92560832Y-74210416D01*
X92314229Y-74006221D01*
X92213710Y-73906648D01*
X92138182Y-73829864D01*
X92084254Y-73780949D01*
X92046119Y-73755506D01*
X92017968Y-73749142D01*
X92008041Y-73751003D01*
X91974074Y-73763086D01*
X91960254Y-73778410D01*
X91967689Y-73805748D01*
X91997483Y-73853874D01*
X92026323Y-73896043D01*
X92157635Y-74056951D01*
X92325436Y-74214088D01*
X92523884Y-74363107D01*
X92747139Y-74499658D01*
X92989358Y-74619392D01*
X93009835Y-74628310D01*
X93191335Y-74700847D01*
X93354862Y-74752015D01*
X93516576Y-74785485D01*
X93692636Y-74804930D01*
X93816334Y-74811562D01*
X94038988Y-74812366D01*
X94237872Y-74795309D01*
X94428514Y-74758264D01*
X94618927Y-74701674D01*
X94696358Y-74676318D01*
X94741131Y-74665042D01*
X94760207Y-74667004D01*
X94760543Y-74681362D01*
X94759355Y-74684668D01*
X94726366Y-74768062D01*
X94684835Y-74869166D01*
X94637605Y-74981484D01*
X94587517Y-75098517D01*
X94537412Y-75213766D01*
X94490134Y-75320733D01*
X94448523Y-75412919D01*
X94415421Y-75483825D01*
X94393670Y-75526955D01*
X94386560Y-75537166D01*
X94361637Y-75520107D01*
X94321976Y-75474672D01*
X94273426Y-75409477D01*
X94221838Y-75333136D01*
X94173059Y-75254264D01*
X94132940Y-75181476D01*
X94109236Y-75128734D01*
X94059724Y-75026656D01*
X94000300Y-74957585D01*
X93934808Y-74925557D01*
X93914021Y-74923779D01*
X93889941Y-74932197D01*
X93861390Y-74960460D01*
X93824552Y-75013772D01*
X93775607Y-75097334D01*
X93742250Y-75157879D01*
X93649501Y-75322092D01*
X93568114Y-75450465D01*
X93494374Y-75546717D01*
X93424564Y-75614566D01*
X93354967Y-75657727D01*
X93281869Y-75679920D01*
X93215245Y-75685078D01*
X93142897Y-75678866D01*
X93071553Y-75658040D01*
X92993833Y-75618777D01*
X92902356Y-75557256D01*
X92789740Y-75469656D01*
X92773344Y-75456301D01*
X92602004Y-75306199D01*
X92427768Y-75135260D01*
X92256917Y-74950909D01*
X92095731Y-74760571D01*
X91950491Y-74571671D01*
X91827477Y-74391636D01*
X91732972Y-74227888D01*
X91731056Y-74224121D01*
X91679570Y-74122518D01*
X91719642Y-74006045D01*
X91759715Y-73889572D01*
X91701511Y-73909862D01*
X91678345Y-73921713D01*
X91655980Y-73943880D01*
X91631326Y-73982007D01*
X91601295Y-74041736D01*
X91562799Y-74128712D01*
X91512748Y-74248576D01*
X91502600Y-74273284D01*
X91421344Y-74472863D01*
X91340504Y-74674091D01*
X91262097Y-74871743D01*
X91188143Y-75060596D01*
X91120662Y-75235425D01*
X91061673Y-75391008D01*
X91013195Y-75522121D01*
X90977248Y-75623539D01*
X90958791Y-75680041D01*
X90936184Y-75753133D01*
X90918470Y-75807326D01*
X90908902Y-75832739D01*
X90908262Y-75833500D01*
X90892565Y-75819669D01*
X90855654Y-75783574D01*
X90810208Y-75737782D01*
X90700880Y-75648738D01*
X90567814Y-75574631D01*
X90425400Y-75521753D01*
X90288027Y-75496393D01*
X90255042Y-75495084D01*
X90212752Y-75492409D01*
X90196834Y-75486910D01*
X90205391Y-75456362D01*
X90229050Y-75394472D01*
X90264795Y-75308156D01*
X90309607Y-75204332D01*
X90360469Y-75089917D01*
X90414364Y-74971827D01*
X90468274Y-74856979D01*
X90503023Y-74785036D01*
X90566359Y-74651438D01*
X90618176Y-74533544D01*
X90656763Y-74435934D01*
X90680409Y-74363189D01*
X90687404Y-74319892D01*
X90680591Y-74309500D01*
X90657208Y-74314978D01*
X90609585Y-74328478D01*
X90598860Y-74331669D01*
X90425672Y-74372868D01*
X90215763Y-74403428D01*
X89967409Y-74423565D01*
X89814583Y-74430251D01*
X89442917Y-74442338D01*
X89272690Y-74180127D01*
X89192578Y-74055665D01*
X89114640Y-73932155D01*
X89036236Y-73805110D01*
X88954725Y-73670042D01*
X88867466Y-73522465D01*
X88771817Y-73357891D01*
X88665139Y-73171834D01*
X88544790Y-72959807D01*
X88408130Y-72717321D01*
X88333509Y-72584416D01*
X88234982Y-72408759D01*
X88139699Y-72238887D01*
X88050346Y-72079590D01*
X87969610Y-71935658D01*
X87900179Y-71811882D01*
X87844740Y-71713052D01*
X87805979Y-71643958D01*
X87793692Y-71622058D01*
X87705027Y-71464034D01*
X87746990Y-71339773D01*
X87788954Y-71215512D01*
X87838273Y-71302341D01*
X87863817Y-71348439D01*
X87905128Y-71424307D01*
X87958097Y-71522338D01*
X88018614Y-71634926D01*
X88082299Y-71753960D01*
X88220385Y-72012227D01*
X88341264Y-72237266D01*
X88447315Y-72433376D01*
X88540917Y-72604857D01*
X88624451Y-72756010D01*
X88700297Y-72891134D01*
X88770833Y-73014531D01*
X88838440Y-73130500D01*
X88905497Y-73243342D01*
X88918131Y-73264383D01*
X88979028Y-73364708D01*
X89049171Y-73478726D01*
X89124968Y-73600760D01*
X89202830Y-73725134D01*
X89279164Y-73846169D01*
X89350381Y-73958189D01*
X89412889Y-74055516D01*
X89463097Y-74132473D01*
X89497414Y-74183383D01*
X89510657Y-74201159D01*
X89528111Y-74191102D01*
X89569357Y-74157547D01*
X89627576Y-74106238D01*
X89674412Y-74063177D01*
X89840705Y-73920700D01*
X90024528Y-73789118D01*
X90235608Y-73661775D01*
X90356637Y-73596449D01*
X90533520Y-73508842D01*
X90734499Y-73417236D01*
X90945498Y-73327551D01*
X91152441Y-73245707D01*
X91341252Y-73177626D01*
X91392813Y-73160592D01*
X91565768Y-73109084D01*
X91752409Y-73060761D01*
X91944977Y-73017043D01*
X92135713Y-72979356D01*
X92316855Y-72949121D01*
X92480645Y-72927761D01*
X92619323Y-72916699D01*
X92720959Y-72917042D01*
X92786271Y-72920960D01*
X92830446Y-72922131D01*
X92842667Y-72920869D01*
X92837355Y-72899868D01*
X92822704Y-72845170D01*
X92800640Y-72763885D01*
X92773087Y-72663124D01*
X92756303Y-72602018D01*
X92715059Y-72446822D01*
X92667757Y-72259921D01*
X92616737Y-72051102D01*
X92564340Y-71830153D01*
X92512903Y-71606862D01*
X92464768Y-71391015D01*
X92444725Y-71298541D01*
X92426111Y-71203651D01*
X92419106Y-71144684D01*
X92423344Y-71116961D01*
X92430179Y-71113333D01*
X92460366Y-71118173D01*
X92521558Y-71131218D01*
X92603729Y-71150256D01*
X92664889Y-71165106D01*
X92844551Y-71206467D01*
X93044362Y-71246471D01*
X93270325Y-71286194D01*
X93528448Y-71326714D01*
X93725556Y-71355292D01*
X94070706Y-71399079D01*
X94393711Y-71429188D01*
X94712039Y-71446875D01*
X95043155Y-71453399D01*
X95089320Y-71453493D01*
X95317637Y-71450604D01*
X95508152Y-71441312D01*
X95665028Y-71424779D01*
X95792430Y-71400171D01*
X95894521Y-71366651D01*
X95975464Y-71323383D01*
X96039424Y-71269531D01*
X96047177Y-71261192D01*
X96137675Y-71141178D01*
X96191344Y-71023874D01*
X96207175Y-70912844D01*
X96184161Y-70811652D01*
X96177966Y-70798829D01*
X96167256Y-70773698D01*
X96163112Y-70745839D01*
X96166956Y-70708132D01*
X96180214Y-70653452D01*
X96204307Y-70574678D01*
X96240659Y-70464688D01*
X96250726Y-70434755D01*
X96296890Y-70293101D01*
X96347574Y-70130085D01*
X96396794Y-69965355D01*
X96438568Y-69818559D01*
X96440480Y-69811583D01*
X96472249Y-69696095D01*
X96501792Y-69590039D01*
X96526558Y-69502470D01*
X96543997Y-69442444D01*
X96548942Y-69426308D01*
X96563489Y-69394826D01*
X96589959Y-69363812D01*
X96634575Y-69328412D01*
X96703559Y-69283773D01*
X96803132Y-69225039D01*
X96817443Y-69216807D01*
X96934873Y-69150651D01*
X97073041Y-69074779D01*
X97214858Y-68998478D01*
X97343234Y-68931034D01*
X97345303Y-68929965D01*
X97456187Y-68873581D01*
X97534890Y-68835982D01*
X97586201Y-68815327D01*
X97614908Y-68809776D01*
X97625801Y-68817489D01*
X97625801Y-68817489D01*
G37*
X97625801Y-68817489D02*
X97626311Y-68821966D01*
X97624412Y-68871219D01*
X97619165Y-68955111D01*
X97611191Y-69066136D01*
X97601111Y-69196786D01*
X97589547Y-69339555D01*
X97577120Y-69486936D01*
X97564452Y-69631420D01*
X97552164Y-69765502D01*
X97540876Y-69881674D01*
X97531211Y-69972428D01*
X97530778Y-69976196D01*
X97515295Y-70101704D01*
X97496501Y-70240603D01*
X97475542Y-70385717D01*
X97453562Y-70529867D01*
X97431706Y-70665875D01*
X97411118Y-70786563D01*
X97392943Y-70884752D01*
X97378325Y-70953265D01*
X97370708Y-70980025D01*
X97349819Y-71017217D01*
X97333327Y-71028666D01*
X97307962Y-71039743D01*
X97257498Y-71069138D01*
X97191661Y-71111101D01*
X97173559Y-71123137D01*
X97022178Y-71215817D01*
X96837651Y-71314286D01*
X96628104Y-71414932D01*
X96401669Y-71514141D01*
X96166472Y-71608301D01*
X95930643Y-71693798D01*
X95774250Y-71745087D01*
X95370336Y-71862552D01*
X94986380Y-71954956D01*
X94611346Y-72023890D01*
X94234196Y-72070947D01*
X93843894Y-72097717D01*
X93429401Y-72105794D01*
X93281855Y-72104576D01*
X93119167Y-72102586D01*
X92994786Y-72102376D01*
X92904697Y-72104602D01*
X92844889Y-72109924D01*
X92811349Y-72119000D01*
X92800064Y-72132487D01*
X92807022Y-72151044D01*
X92828209Y-72175329D01*
X92831325Y-72178467D01*
X92877601Y-72201102D01*
X92962924Y-72217382D01*
X93084489Y-72227323D01*
X93239491Y-72230939D01*
X93425128Y-72228245D01*
X93638593Y-72219258D01*
X93877082Y-72203992D01*
X94137792Y-72182463D01*
X94262134Y-72170684D01*
X94466226Y-72149434D01*
X94639647Y-72128317D01*
X94794009Y-72105394D01*
X94940926Y-72078725D01*
X95092008Y-72046372D01*
X95258868Y-72006397D01*
X95284692Y-71999946D01*
X95381623Y-71976370D01*
X95462493Y-71958100D01*
X95519147Y-71946880D01*
X95543429Y-71944451D01*
X95543664Y-71944608D01*
X95539729Y-71966263D01*
X95520725Y-72011596D01*
X95510233Y-72032972D01*
X95465414Y-72158170D01*
X95451340Y-72301124D01*
X95464886Y-72453733D01*
X95475845Y-72536595D01*
X95477711Y-72604868D01*
X95469486Y-72675963D01*
X95450171Y-72767297D01*
X95445853Y-72785500D01*
X95421592Y-72882546D01*
X95396163Y-72977279D01*
X95374324Y-73052104D01*
X95370558Y-73063890D01*
X95338305Y-73162364D01*
X95185861Y-73196895D01*
X95037952Y-73229346D01*
X94909354Y-73254526D01*
X94790894Y-73273319D01*
X94673403Y-73286613D01*
X94547707Y-73295292D01*
X94404637Y-73300243D01*
X94235021Y-73302351D01*
X94091500Y-73302607D01*
X93887827Y-73301419D01*
X93720149Y-73298064D01*
X93582168Y-73292249D01*
X93467586Y-73283677D01*
X93370106Y-73272055D01*
X93340084Y-73267413D01*
X93191795Y-73244759D01*
X93059955Y-73227832D01*
X92949749Y-73217050D01*
X92866361Y-73212831D01*
X92814976Y-73215595D01*
X92800334Y-73223801D01*
X92820046Y-73241976D01*
X92874452Y-73264954D01*
X92956456Y-73290777D01*
X93058961Y-73317490D01*
X93174870Y-73343136D01*
X93297088Y-73365758D01*
X93340084Y-73372606D01*
X93446091Y-73386074D01*
X93567152Y-73396065D01*
X93709966Y-73402890D01*
X93881232Y-73406866D01*
X94087650Y-73408305D01*
X94102084Y-73408318D01*
X94343907Y-73406598D01*
X94549054Y-73400802D01*
X94723032Y-73390443D01*
X94871345Y-73375033D01*
X94999499Y-73354085D01*
X95113001Y-73327110D01*
X95153403Y-73315188D01*
X95222111Y-73295480D01*
X95273085Y-73284000D01*
X95294680Y-73283123D01*
X95292315Y-73307537D01*
X95275249Y-73367584D01*
X95244743Y-73459687D01*
X95202055Y-73580270D01*
X95148446Y-73725756D01*
X95085174Y-73892569D01*
X95028919Y-74037762D01*
X94891095Y-74390441D01*
X94726762Y-74465559D01*
X94564446Y-74533824D01*
X94414411Y-74582394D01*
X94263473Y-74613973D01*
X94098448Y-74631262D01*
X93906153Y-74636965D01*
X93890417Y-74637001D01*
X93730741Y-74635004D01*
X93602579Y-74628182D01*
X93495295Y-74615678D01*
X93403584Y-74597889D01*
X93107842Y-74507605D01*
X92826147Y-74377996D01*
X92560832Y-74210416D01*
X92314229Y-74006221D01*
X92213710Y-73906648D01*
X92138182Y-73829864D01*
X92084254Y-73780949D01*
X92046119Y-73755506D01*
X92017968Y-73749142D01*
X92008041Y-73751003D01*
X91974074Y-73763086D01*
X91960254Y-73778410D01*
X91967689Y-73805748D01*
X91997483Y-73853874D01*
X92026323Y-73896043D01*
X92157635Y-74056951D01*
X92325436Y-74214088D01*
X92523884Y-74363107D01*
X92747139Y-74499658D01*
X92989358Y-74619392D01*
X93009835Y-74628310D01*
X93191335Y-74700847D01*
X93354862Y-74752015D01*
X93516576Y-74785485D01*
X93692636Y-74804930D01*
X93816334Y-74811562D01*
X94038988Y-74812366D01*
X94237872Y-74795309D01*
X94428514Y-74758264D01*
X94618927Y-74701674D01*
X94696358Y-74676318D01*
X94741131Y-74665042D01*
X94760207Y-74667004D01*
X94760543Y-74681362D01*
X94759355Y-74684668D01*
X94726366Y-74768062D01*
X94684835Y-74869166D01*
X94637605Y-74981484D01*
X94587517Y-75098517D01*
X94537412Y-75213766D01*
X94490134Y-75320733D01*
X94448523Y-75412919D01*
X94415421Y-75483825D01*
X94393670Y-75526955D01*
X94386560Y-75537166D01*
X94361637Y-75520107D01*
X94321976Y-75474672D01*
X94273426Y-75409477D01*
X94221838Y-75333136D01*
X94173059Y-75254264D01*
X94132940Y-75181476D01*
X94109236Y-75128734D01*
X94059724Y-75026656D01*
X94000300Y-74957585D01*
X93934808Y-74925557D01*
X93914021Y-74923779D01*
X93889941Y-74932197D01*
X93861390Y-74960460D01*
X93824552Y-75013772D01*
X93775607Y-75097334D01*
X93742250Y-75157879D01*
X93649501Y-75322092D01*
X93568114Y-75450465D01*
X93494374Y-75546717D01*
X93424564Y-75614566D01*
X93354967Y-75657727D01*
X93281869Y-75679920D01*
X93215245Y-75685078D01*
X93142897Y-75678866D01*
X93071553Y-75658040D01*
X92993833Y-75618777D01*
X92902356Y-75557256D01*
X92789740Y-75469656D01*
X92773344Y-75456301D01*
X92602004Y-75306199D01*
X92427768Y-75135260D01*
X92256917Y-74950909D01*
X92095731Y-74760571D01*
X91950491Y-74571671D01*
X91827477Y-74391636D01*
X91732972Y-74227888D01*
X91731056Y-74224121D01*
X91679570Y-74122518D01*
X91719642Y-74006045D01*
X91759715Y-73889572D01*
X91701511Y-73909862D01*
X91678345Y-73921713D01*
X91655980Y-73943880D01*
X91631326Y-73982007D01*
X91601295Y-74041736D01*
X91562799Y-74128712D01*
X91512748Y-74248576D01*
X91502600Y-74273284D01*
X91421344Y-74472863D01*
X91340504Y-74674091D01*
X91262097Y-74871743D01*
X91188143Y-75060596D01*
X91120662Y-75235425D01*
X91061673Y-75391008D01*
X91013195Y-75522121D01*
X90977248Y-75623539D01*
X90958791Y-75680041D01*
X90936184Y-75753133D01*
X90918470Y-75807326D01*
X90908902Y-75832739D01*
X90908262Y-75833500D01*
X90892565Y-75819669D01*
X90855654Y-75783574D01*
X90810208Y-75737782D01*
X90700880Y-75648738D01*
X90567814Y-75574631D01*
X90425400Y-75521753D01*
X90288027Y-75496393D01*
X90255042Y-75495084D01*
X90212752Y-75492409D01*
X90196834Y-75486910D01*
X90205391Y-75456362D01*
X90229050Y-75394472D01*
X90264795Y-75308156D01*
X90309607Y-75204332D01*
X90360469Y-75089917D01*
X90414364Y-74971827D01*
X90468274Y-74856979D01*
X90503023Y-74785036D01*
X90566359Y-74651438D01*
X90618176Y-74533544D01*
X90656763Y-74435934D01*
X90680409Y-74363189D01*
X90687404Y-74319892D01*
X90680591Y-74309500D01*
X90657208Y-74314978D01*
X90609585Y-74328478D01*
X90598860Y-74331669D01*
X90425672Y-74372868D01*
X90215763Y-74403428D01*
X89967409Y-74423565D01*
X89814583Y-74430251D01*
X89442917Y-74442338D01*
X89272690Y-74180127D01*
X89192578Y-74055665D01*
X89114640Y-73932155D01*
X89036236Y-73805110D01*
X88954725Y-73670042D01*
X88867466Y-73522465D01*
X88771817Y-73357891D01*
X88665139Y-73171834D01*
X88544790Y-72959807D01*
X88408130Y-72717321D01*
X88333509Y-72584416D01*
X88234982Y-72408759D01*
X88139699Y-72238887D01*
X88050346Y-72079590D01*
X87969610Y-71935658D01*
X87900179Y-71811882D01*
X87844740Y-71713052D01*
X87805979Y-71643958D01*
X87793692Y-71622058D01*
X87705027Y-71464034D01*
X87746990Y-71339773D01*
X87788954Y-71215512D01*
X87838273Y-71302341D01*
X87863817Y-71348439D01*
X87905128Y-71424307D01*
X87958097Y-71522338D01*
X88018614Y-71634926D01*
X88082299Y-71753960D01*
X88220385Y-72012227D01*
X88341264Y-72237266D01*
X88447315Y-72433376D01*
X88540917Y-72604857D01*
X88624451Y-72756010D01*
X88700297Y-72891134D01*
X88770833Y-73014531D01*
X88838440Y-73130500D01*
X88905497Y-73243342D01*
X88918131Y-73264383D01*
X88979028Y-73364708D01*
X89049171Y-73478726D01*
X89124968Y-73600760D01*
X89202830Y-73725134D01*
X89279164Y-73846169D01*
X89350381Y-73958189D01*
X89412889Y-74055516D01*
X89463097Y-74132473D01*
X89497414Y-74183383D01*
X89510657Y-74201159D01*
X89528111Y-74191102D01*
X89569357Y-74157547D01*
X89627576Y-74106238D01*
X89674412Y-74063177D01*
X89840705Y-73920700D01*
X90024528Y-73789118D01*
X90235608Y-73661775D01*
X90356637Y-73596449D01*
X90533520Y-73508842D01*
X90734499Y-73417236D01*
X90945498Y-73327551D01*
X91152441Y-73245707D01*
X91341252Y-73177626D01*
X91392813Y-73160592D01*
X91565768Y-73109084D01*
X91752409Y-73060761D01*
X91944977Y-73017043D01*
X92135713Y-72979356D01*
X92316855Y-72949121D01*
X92480645Y-72927761D01*
X92619323Y-72916699D01*
X92720959Y-72917042D01*
X92786271Y-72920960D01*
X92830446Y-72922131D01*
X92842667Y-72920869D01*
X92837355Y-72899868D01*
X92822704Y-72845170D01*
X92800640Y-72763885D01*
X92773087Y-72663124D01*
X92756303Y-72602018D01*
X92715059Y-72446822D01*
X92667757Y-72259921D01*
X92616737Y-72051102D01*
X92564340Y-71830153D01*
X92512903Y-71606862D01*
X92464768Y-71391015D01*
X92444725Y-71298541D01*
X92426111Y-71203651D01*
X92419106Y-71144684D01*
X92423344Y-71116961D01*
X92430179Y-71113333D01*
X92460366Y-71118173D01*
X92521558Y-71131218D01*
X92603729Y-71150256D01*
X92664889Y-71165106D01*
X92844551Y-71206467D01*
X93044362Y-71246471D01*
X93270325Y-71286194D01*
X93528448Y-71326714D01*
X93725556Y-71355292D01*
X94070706Y-71399079D01*
X94393711Y-71429188D01*
X94712039Y-71446875D01*
X95043155Y-71453399D01*
X95089320Y-71453493D01*
X95317637Y-71450604D01*
X95508152Y-71441312D01*
X95665028Y-71424779D01*
X95792430Y-71400171D01*
X95894521Y-71366651D01*
X95975464Y-71323383D01*
X96039424Y-71269531D01*
X96047177Y-71261192D01*
X96137675Y-71141178D01*
X96191344Y-71023874D01*
X96207175Y-70912844D01*
X96184161Y-70811652D01*
X96177966Y-70798829D01*
X96167256Y-70773698D01*
X96163112Y-70745839D01*
X96166956Y-70708132D01*
X96180214Y-70653452D01*
X96204307Y-70574678D01*
X96240659Y-70464688D01*
X96250726Y-70434755D01*
X96296890Y-70293101D01*
X96347574Y-70130085D01*
X96396794Y-69965355D01*
X96438568Y-69818559D01*
X96440480Y-69811583D01*
X96472249Y-69696095D01*
X96501792Y-69590039D01*
X96526558Y-69502470D01*
X96543997Y-69442444D01*
X96548942Y-69426308D01*
X96563489Y-69394826D01*
X96589959Y-69363812D01*
X96634575Y-69328412D01*
X96703559Y-69283773D01*
X96803132Y-69225039D01*
X96817443Y-69216807D01*
X96934873Y-69150651D01*
X97073041Y-69074779D01*
X97214858Y-68998478D01*
X97343234Y-68931034D01*
X97345303Y-68929965D01*
X97456187Y-68873581D01*
X97534890Y-68835982D01*
X97586201Y-68815327D01*
X97614908Y-68809776D01*
X97625801Y-68817489D01*
G36*
X96264382Y-71845840D02*
X96378172Y-71916999D01*
X96450717Y-71989642D01*
X96552824Y-72131507D01*
X96612853Y-72268811D01*
X96630805Y-72401539D01*
X96606677Y-72529681D01*
X96540470Y-72653224D01*
X96500370Y-72703448D01*
X96461533Y-72741678D01*
X96399900Y-72795885D01*
X96326458Y-72856535D01*
X96297312Y-72879624D01*
X96215785Y-72949755D01*
X96138232Y-73027356D01*
X96078435Y-73098388D01*
X96068186Y-73113006D01*
X96018946Y-73198696D01*
X95959409Y-73322024D01*
X95890719Y-73479871D01*
X95814022Y-73669118D01*
X95730463Y-73886645D01*
X95641187Y-74129334D01*
X95547340Y-74394064D01*
X95450067Y-74677717D01*
X95350513Y-74977173D01*
X95249823Y-75289314D01*
X95149143Y-75611019D01*
X95139303Y-75643000D01*
X95092119Y-75795875D01*
X95048482Y-75935913D01*
X95010046Y-76057910D01*
X94978466Y-76156666D01*
X94955393Y-76226980D01*
X94942483Y-76263651D01*
X94940777Y-76267416D01*
X94919498Y-76266765D01*
X94879980Y-76240505D01*
X94855298Y-76218377D01*
X94735494Y-76127942D01*
X94586838Y-76057989D01*
X94467209Y-76023162D01*
X94402389Y-76007317D01*
X94358241Y-75993788D01*
X94345500Y-75986848D01*
X94354935Y-75965416D01*
X94380240Y-75915611D01*
X94416918Y-75846169D01*
X94439097Y-75805008D01*
X94481005Y-75720858D01*
X94535166Y-75601201D01*
X94599844Y-75450484D01*
X94673303Y-75273156D01*
X94753806Y-75073665D01*
X94839618Y-74856457D01*
X94929002Y-74625982D01*
X95020223Y-74386687D01*
X95111543Y-74143019D01*
X95201228Y-73899427D01*
X95287540Y-73660359D01*
X95368745Y-73430262D01*
X95390491Y-73367583D01*
X95461797Y-73152918D01*
X95515784Y-72970092D01*
X95553705Y-72812902D01*
X95576817Y-72675146D01*
X95586374Y-72550621D01*
X95583632Y-72433127D01*
X95582510Y-72418888D01*
X95581074Y-72259258D01*
X95607960Y-72128635D01*
X95665367Y-72022711D01*
X95755498Y-71937178D01*
X95859154Y-71877444D01*
X96005485Y-71826179D01*
X96140356Y-71815605D01*
X96264382Y-71845840D01*
X96264382Y-71845840D01*
G37*
X96264382Y-71845840D02*
X96378172Y-71916999D01*
X96450717Y-71989642D01*
X96552824Y-72131507D01*
X96612853Y-72268811D01*
X96630805Y-72401539D01*
X96606677Y-72529681D01*
X96540470Y-72653224D01*
X96500370Y-72703448D01*
X96461533Y-72741678D01*
X96399900Y-72795885D01*
X96326458Y-72856535D01*
X96297312Y-72879624D01*
X96215785Y-72949755D01*
X96138232Y-73027356D01*
X96078435Y-73098388D01*
X96068186Y-73113006D01*
X96018946Y-73198696D01*
X95959409Y-73322024D01*
X95890719Y-73479871D01*
X95814022Y-73669118D01*
X95730463Y-73886645D01*
X95641187Y-74129334D01*
X95547340Y-74394064D01*
X95450067Y-74677717D01*
X95350513Y-74977173D01*
X95249823Y-75289314D01*
X95149143Y-75611019D01*
X95139303Y-75643000D01*
X95092119Y-75795875D01*
X95048482Y-75935913D01*
X95010046Y-76057910D01*
X94978466Y-76156666D01*
X94955393Y-76226980D01*
X94942483Y-76263651D01*
X94940777Y-76267416D01*
X94919498Y-76266765D01*
X94879980Y-76240505D01*
X94855298Y-76218377D01*
X94735494Y-76127942D01*
X94586838Y-76057989D01*
X94467209Y-76023162D01*
X94402389Y-76007317D01*
X94358241Y-75993788D01*
X94345500Y-75986848D01*
X94354935Y-75965416D01*
X94380240Y-75915611D01*
X94416918Y-75846169D01*
X94439097Y-75805008D01*
X94481005Y-75720858D01*
X94535166Y-75601201D01*
X94599844Y-75450484D01*
X94673303Y-75273156D01*
X94753806Y-75073665D01*
X94839618Y-74856457D01*
X94929002Y-74625982D01*
X95020223Y-74386687D01*
X95111543Y-74143019D01*
X95201228Y-73899427D01*
X95287540Y-73660359D01*
X95368745Y-73430262D01*
X95390491Y-73367583D01*
X95461797Y-73152918D01*
X95515784Y-72970092D01*
X95553705Y-72812902D01*
X95576817Y-72675146D01*
X95586374Y-72550621D01*
X95583632Y-72433127D01*
X95582510Y-72418888D01*
X95581074Y-72259258D01*
X95607960Y-72128635D01*
X95665367Y-72022711D01*
X95755498Y-71937178D01*
X95859154Y-71877444D01*
X96005485Y-71826179D01*
X96140356Y-71815605D01*
X96264382Y-71845840D01*
G36*
X90472266Y-75722006D02*
X90505632Y-75736283D01*
X90652691Y-75821872D01*
X90764735Y-75929638D01*
X90844717Y-76063038D01*
X90884956Y-76180124D01*
X90915525Y-76280749D01*
X90962393Y-76409718D01*
X91026370Y-76569008D01*
X91108264Y-76760594D01*
X91208886Y-76986452D01*
X91271892Y-77124666D01*
X91352678Y-77302881D01*
X91429783Y-77477920D01*
X91505292Y-77655032D01*
X91581292Y-77839464D01*
X91659867Y-78036465D01*
X91743102Y-78251284D01*
X91833083Y-78489169D01*
X91931896Y-78755368D01*
X92041624Y-79055130D01*
X92070851Y-79135500D01*
X92181465Y-79441082D01*
X92278098Y-79710997D01*
X92361785Y-79949155D01*
X92433561Y-80159467D01*
X92494461Y-80345847D01*
X92545521Y-80512206D01*
X92587777Y-80662456D01*
X92622262Y-80800509D01*
X92650013Y-80930275D01*
X92672065Y-81055669D01*
X92689453Y-81180600D01*
X92703213Y-81308982D01*
X92714379Y-81444726D01*
X92723988Y-81591743D01*
X92724873Y-81606708D01*
X92728854Y-81708024D01*
X92725861Y-81770751D01*
X92714939Y-81798205D01*
X92695129Y-81793700D01*
X92676433Y-81774484D01*
X92643825Y-81749191D01*
X92580979Y-81711436D01*
X92496510Y-81665566D01*
X92399034Y-81615927D01*
X92297165Y-81566867D01*
X92199519Y-81522732D01*
X92114711Y-81487869D01*
X92091250Y-81479225D01*
X91943693Y-81432817D01*
X91768774Y-81387114D01*
X91581383Y-81345436D01*
X91396411Y-81311106D01*
X91234447Y-81288089D01*
X91012644Y-81262750D01*
X90954469Y-81019333D01*
X90921696Y-80877572D01*
X90882626Y-80700851D01*
X90838624Y-80495846D01*
X90791053Y-80269231D01*
X90741275Y-80027683D01*
X90690655Y-79777875D01*
X90640554Y-79526484D01*
X90592337Y-79280184D01*
X90547367Y-79045650D01*
X90507007Y-78829558D01*
X90504886Y-78818000D01*
X90472268Y-78642796D01*
X90438753Y-78467602D01*
X90405945Y-78300473D01*
X90375452Y-78149461D01*
X90348879Y-78022618D01*
X90327833Y-77927999D01*
X90324851Y-77915405D01*
X90240600Y-77621081D01*
X90132888Y-77337382D01*
X90005756Y-77073296D01*
X89863241Y-76837811D01*
X89802530Y-76753239D01*
X89724383Y-76645251D01*
X89671104Y-76557818D01*
X89638367Y-76480835D01*
X89621849Y-76404198D01*
X89617229Y-76320333D01*
X89621344Y-76228777D01*
X89638212Y-76155929D01*
X89673492Y-76078765D01*
X89679203Y-76068173D01*
X89780860Y-75915903D01*
X89898565Y-75799921D01*
X90029438Y-75721384D01*
X90170599Y-75681448D01*
X90319168Y-75681270D01*
X90472266Y-75722006D01*
X90472266Y-75722006D01*
G37*
X90472266Y-75722006D02*
X90505632Y-75736283D01*
X90652691Y-75821872D01*
X90764735Y-75929638D01*
X90844717Y-76063038D01*
X90884956Y-76180124D01*
X90915525Y-76280749D01*
X90962393Y-76409718D01*
X91026370Y-76569008D01*
X91108264Y-76760594D01*
X91208886Y-76986452D01*
X91271892Y-77124666D01*
X91352678Y-77302881D01*
X91429783Y-77477920D01*
X91505292Y-77655032D01*
X91581292Y-77839464D01*
X91659867Y-78036465D01*
X91743102Y-78251284D01*
X91833083Y-78489169D01*
X91931896Y-78755368D01*
X92041624Y-79055130D01*
X92070851Y-79135500D01*
X92181465Y-79441082D01*
X92278098Y-79710997D01*
X92361785Y-79949155D01*
X92433561Y-80159467D01*
X92494461Y-80345847D01*
X92545521Y-80512206D01*
X92587777Y-80662456D01*
X92622262Y-80800509D01*
X92650013Y-80930275D01*
X92672065Y-81055669D01*
X92689453Y-81180600D01*
X92703213Y-81308982D01*
X92714379Y-81444726D01*
X92723988Y-81591743D01*
X92724873Y-81606708D01*
X92728854Y-81708024D01*
X92725861Y-81770751D01*
X92714939Y-81798205D01*
X92695129Y-81793700D01*
X92676433Y-81774484D01*
X92643825Y-81749191D01*
X92580979Y-81711436D01*
X92496510Y-81665566D01*
X92399034Y-81615927D01*
X92297165Y-81566867D01*
X92199519Y-81522732D01*
X92114711Y-81487869D01*
X92091250Y-81479225D01*
X91943693Y-81432817D01*
X91768774Y-81387114D01*
X91581383Y-81345436D01*
X91396411Y-81311106D01*
X91234447Y-81288089D01*
X91012644Y-81262750D01*
X90954469Y-81019333D01*
X90921696Y-80877572D01*
X90882626Y-80700851D01*
X90838624Y-80495846D01*
X90791053Y-80269231D01*
X90741275Y-80027683D01*
X90690655Y-79777875D01*
X90640554Y-79526484D01*
X90592337Y-79280184D01*
X90547367Y-79045650D01*
X90507007Y-78829558D01*
X90504886Y-78818000D01*
X90472268Y-78642796D01*
X90438753Y-78467602D01*
X90405945Y-78300473D01*
X90375452Y-78149461D01*
X90348879Y-78022618D01*
X90327833Y-77927999D01*
X90324851Y-77915405D01*
X90240600Y-77621081D01*
X90132888Y-77337382D01*
X90005756Y-77073296D01*
X89863241Y-76837811D01*
X89802530Y-76753239D01*
X89724383Y-76645251D01*
X89671104Y-76557818D01*
X89638367Y-76480835D01*
X89621849Y-76404198D01*
X89617229Y-76320333D01*
X89621344Y-76228777D01*
X89638212Y-76155929D01*
X89673492Y-76078765D01*
X89679203Y-76068173D01*
X89780860Y-75915903D01*
X89898565Y-75799921D01*
X90029438Y-75721384D01*
X90170599Y-75681448D01*
X90319168Y-75681270D01*
X90472266Y-75722006D01*
G36*
X94406262Y-76150168D02*
X94504481Y-76177214D01*
X94515188Y-76182321D01*
X94564546Y-76211088D01*
X94631988Y-76255053D01*
X94707860Y-76307334D01*
X94782511Y-76361053D01*
X94846288Y-76409329D01*
X94889536Y-76445283D01*
X94901125Y-76457380D01*
X94911339Y-76480195D01*
X94930713Y-76533766D01*
X94959714Y-76619533D01*
X94998809Y-76738935D01*
X95048466Y-76893411D01*
X95109153Y-77084401D01*
X95181336Y-77313344D01*
X95244999Y-77516250D01*
X95300049Y-77687315D01*
X95354474Y-77845364D01*
X95411323Y-77997681D01*
X95473649Y-78151551D01*
X95544501Y-78314256D01*
X95626932Y-78493080D01*
X95723992Y-78695308D01*
X95824148Y-78898852D01*
X96012812Y-79285387D01*
X96179703Y-79641208D01*
X96326552Y-79970809D01*
X96455090Y-80278683D01*
X96567050Y-80569326D01*
X96664163Y-80847229D01*
X96748160Y-81116888D01*
X96820773Y-81382796D01*
X96883311Y-81647511D01*
X96906702Y-81755868D01*
X96926420Y-81850056D01*
X96940833Y-81922067D01*
X96948314Y-81963894D01*
X96949000Y-81970303D01*
X96937177Y-81991628D01*
X96908382Y-81982254D01*
X96882800Y-81957618D01*
X96838785Y-81917762D01*
X96766693Y-81866886D01*
X96677061Y-81811329D01*
X96580423Y-81757430D01*
X96487315Y-81711526D01*
X96441000Y-81691815D01*
X96355058Y-81661024D01*
X96237406Y-81623147D01*
X96097516Y-81580901D01*
X95944860Y-81537005D01*
X95788912Y-81494179D01*
X95639143Y-81455140D01*
X95505025Y-81422607D01*
X95494954Y-81420298D01*
X95300325Y-81375909D01*
X95276479Y-81255829D01*
X95260238Y-81184855D01*
X95233186Y-81079294D01*
X95197009Y-80945003D01*
X95153394Y-80787842D01*
X95104030Y-80613669D01*
X95050601Y-80428342D01*
X94994797Y-80237720D01*
X94938304Y-80047661D01*
X94882809Y-79864024D01*
X94830000Y-79692668D01*
X94787775Y-79558833D01*
X94716736Y-79336006D01*
X94657257Y-79147588D01*
X94607662Y-78987777D01*
X94566274Y-78850772D01*
X94531417Y-78730770D01*
X94501415Y-78621970D01*
X94474591Y-78518569D01*
X94449269Y-78414767D01*
X94423773Y-78304761D01*
X94417771Y-78278250D01*
X94360912Y-78049498D01*
X94299851Y-77854500D01*
X94230672Y-77684675D01*
X94149458Y-77531445D01*
X94052290Y-77386229D01*
X93953857Y-77262250D01*
X93835786Y-77104963D01*
X93748762Y-76950734D01*
X93694739Y-76804180D01*
X93675672Y-76669917D01*
X93679187Y-76613489D01*
X93716944Y-76491039D01*
X93793418Y-76378143D01*
X93905425Y-76278333D01*
X94049778Y-76195143D01*
X94060915Y-76190077D01*
X94168635Y-76156870D01*
X94289032Y-76143477D01*
X94406262Y-76150168D01*
X94406262Y-76150168D01*
G37*
X94406262Y-76150168D02*
X94504481Y-76177214D01*
X94515188Y-76182321D01*
X94564546Y-76211088D01*
X94631988Y-76255053D01*
X94707860Y-76307334D01*
X94782511Y-76361053D01*
X94846288Y-76409329D01*
X94889536Y-76445283D01*
X94901125Y-76457380D01*
X94911339Y-76480195D01*
X94930713Y-76533766D01*
X94959714Y-76619533D01*
X94998809Y-76738935D01*
X95048466Y-76893411D01*
X95109153Y-77084401D01*
X95181336Y-77313344D01*
X95244999Y-77516250D01*
X95300049Y-77687315D01*
X95354474Y-77845364D01*
X95411323Y-77997681D01*
X95473649Y-78151551D01*
X95544501Y-78314256D01*
X95626932Y-78493080D01*
X95723992Y-78695308D01*
X95824148Y-78898852D01*
X96012812Y-79285387D01*
X96179703Y-79641208D01*
X96326552Y-79970809D01*
X96455090Y-80278683D01*
X96567050Y-80569326D01*
X96664163Y-80847229D01*
X96748160Y-81116888D01*
X96820773Y-81382796D01*
X96883311Y-81647511D01*
X96906702Y-81755868D01*
X96926420Y-81850056D01*
X96940833Y-81922067D01*
X96948314Y-81963894D01*
X96949000Y-81970303D01*
X96937177Y-81991628D01*
X96908382Y-81982254D01*
X96882800Y-81957618D01*
X96838785Y-81917762D01*
X96766693Y-81866886D01*
X96677061Y-81811329D01*
X96580423Y-81757430D01*
X96487315Y-81711526D01*
X96441000Y-81691815D01*
X96355058Y-81661024D01*
X96237406Y-81623147D01*
X96097516Y-81580901D01*
X95944860Y-81537005D01*
X95788912Y-81494179D01*
X95639143Y-81455140D01*
X95505025Y-81422607D01*
X95494954Y-81420298D01*
X95300325Y-81375909D01*
X95276479Y-81255829D01*
X95260238Y-81184855D01*
X95233186Y-81079294D01*
X95197009Y-80945003D01*
X95153394Y-80787842D01*
X95104030Y-80613669D01*
X95050601Y-80428342D01*
X94994797Y-80237720D01*
X94938304Y-80047661D01*
X94882809Y-79864024D01*
X94830000Y-79692668D01*
X94787775Y-79558833D01*
X94716736Y-79336006D01*
X94657257Y-79147588D01*
X94607662Y-78987777D01*
X94566274Y-78850772D01*
X94531417Y-78730770D01*
X94501415Y-78621970D01*
X94474591Y-78518569D01*
X94449269Y-78414767D01*
X94423773Y-78304761D01*
X94417771Y-78278250D01*
X94360912Y-78049498D01*
X94299851Y-77854500D01*
X94230672Y-77684675D01*
X94149458Y-77531445D01*
X94052290Y-77386229D01*
X93953857Y-77262250D01*
X93835786Y-77104963D01*
X93748762Y-76950734D01*
X93694739Y-76804180D01*
X93675672Y-76669917D01*
X93679187Y-76613489D01*
X93716944Y-76491039D01*
X93793418Y-76378143D01*
X93905425Y-76278333D01*
X94049778Y-76195143D01*
X94060915Y-76190077D01*
X94168635Y-76156870D01*
X94289032Y-76143477D01*
X94406262Y-76150168D01*
G36*
X91449138Y-81505487D02*
X91620382Y-81547176D01*
X91758193Y-81582785D01*
X91870579Y-81614881D01*
X91965549Y-81646030D01*
X92051110Y-81678799D01*
X92135271Y-81715756D01*
X92197084Y-81745220D01*
X92265514Y-81778364D01*
X92356185Y-81821941D01*
X92453080Y-81868263D01*
X92486403Y-81884130D01*
X92626756Y-81962137D01*
X92726038Y-82042787D01*
X92784011Y-82125455D01*
X92800434Y-82209517D01*
X92775067Y-82294347D01*
X92707670Y-82379322D01*
X92684568Y-82400222D01*
X92626436Y-82442729D01*
X92537537Y-82498531D01*
X92425576Y-82563260D01*
X92298258Y-82632548D01*
X92163290Y-82702030D01*
X92080007Y-82742875D01*
X91791254Y-82866857D01*
X91473438Y-82976845D01*
X91138483Y-83069432D01*
X90798314Y-83141211D01*
X90556667Y-83178119D01*
X90467247Y-83186856D01*
X90348826Y-83194726D01*
X90211159Y-83201451D01*
X90064003Y-83206752D01*
X89917117Y-83210352D01*
X89780256Y-83211971D01*
X89663179Y-83211332D01*
X89575641Y-83208155D01*
X89556542Y-83206661D01*
X89456000Y-83197180D01*
X89456000Y-83058520D01*
X89476667Y-82848632D01*
X89536792Y-82639682D01*
X89633558Y-82434866D01*
X89764151Y-82237380D01*
X89925753Y-82050420D01*
X90115551Y-81877183D01*
X90330727Y-81720866D01*
X90568467Y-81584664D01*
X90825955Y-81471773D01*
X90867055Y-81456709D01*
X91018693Y-81402556D01*
X91449138Y-81505487D01*
X91449138Y-81505487D01*
G37*
X91449138Y-81505487D02*
X91620382Y-81547176D01*
X91758193Y-81582785D01*
X91870579Y-81614881D01*
X91965549Y-81646030D01*
X92051110Y-81678799D01*
X92135271Y-81715756D01*
X92197084Y-81745220D01*
X92265514Y-81778364D01*
X92356185Y-81821941D01*
X92453080Y-81868263D01*
X92486403Y-81884130D01*
X92626756Y-81962137D01*
X92726038Y-82042787D01*
X92784011Y-82125455D01*
X92800434Y-82209517D01*
X92775067Y-82294347D01*
X92707670Y-82379322D01*
X92684568Y-82400222D01*
X92626436Y-82442729D01*
X92537537Y-82498531D01*
X92425576Y-82563260D01*
X92298258Y-82632548D01*
X92163290Y-82702030D01*
X92080007Y-82742875D01*
X91791254Y-82866857D01*
X91473438Y-82976845D01*
X91138483Y-83069432D01*
X90798314Y-83141211D01*
X90556667Y-83178119D01*
X90467247Y-83186856D01*
X90348826Y-83194726D01*
X90211159Y-83201451D01*
X90064003Y-83206752D01*
X89917117Y-83210352D01*
X89780256Y-83211971D01*
X89663179Y-83211332D01*
X89575641Y-83208155D01*
X89556542Y-83206661D01*
X89456000Y-83197180D01*
X89456000Y-83058520D01*
X89476667Y-82848632D01*
X89536792Y-82639682D01*
X89633558Y-82434866D01*
X89764151Y-82237380D01*
X89925753Y-82050420D01*
X90115551Y-81877183D01*
X90330727Y-81720866D01*
X90568467Y-81584664D01*
X90825955Y-81471773D01*
X90867055Y-81456709D01*
X91018693Y-81402556D01*
X91449138Y-81505487D01*
G36*
X95240983Y-81560399D02*
X95365166Y-81581110D01*
X95406843Y-81589657D01*
X95674052Y-81648925D01*
X95904141Y-81706966D01*
X96102211Y-81765663D01*
X96273360Y-81826899D01*
X96422689Y-81892558D01*
X96555297Y-81964522D01*
X96676283Y-82044674D01*
X96712791Y-82071911D01*
X96784204Y-82132405D01*
X96856306Y-82203185D01*
X96922038Y-82276091D01*
X96974339Y-82342966D01*
X97006152Y-82395653D01*
X97012500Y-82418275D01*
X96995273Y-82438951D01*
X96948393Y-82475690D01*
X96879061Y-82523727D01*
X96794480Y-82578295D01*
X96701851Y-82634630D01*
X96608375Y-82687965D01*
X96589167Y-82698416D01*
X96435487Y-82778009D01*
X96253117Y-82867156D01*
X96050090Y-82962344D01*
X95834436Y-83060059D01*
X95614187Y-83156788D01*
X95397375Y-83249018D01*
X95192030Y-83333235D01*
X95006184Y-83405926D01*
X94847868Y-83463578D01*
X94812982Y-83475413D01*
X94632319Y-83529944D01*
X94436233Y-83579423D01*
X94235450Y-83621820D01*
X94040699Y-83655106D01*
X93862710Y-83677255D01*
X93712209Y-83686236D01*
X93697479Y-83686333D01*
X93642057Y-83683449D01*
X93609837Y-83667604D01*
X93585812Y-83628007D01*
X93572365Y-83596375D01*
X93546669Y-83495691D01*
X93537712Y-83367637D01*
X93545324Y-83223653D01*
X93569335Y-83075181D01*
X93580791Y-83027295D01*
X93659606Y-82802685D01*
X93776426Y-82580575D01*
X93926980Y-82365648D01*
X94106997Y-82162588D01*
X94312205Y-81976080D01*
X94538332Y-81810808D01*
X94781108Y-81671456D01*
X94845383Y-81640531D01*
X94955340Y-81593675D01*
X95049183Y-81565493D01*
X95140026Y-81554797D01*
X95240983Y-81560399D01*
X95240983Y-81560399D01*
G37*
X95240983Y-81560399D02*
X95365166Y-81581110D01*
X95406843Y-81589657D01*
X95674052Y-81648925D01*
X95904141Y-81706966D01*
X96102211Y-81765663D01*
X96273360Y-81826899D01*
X96422689Y-81892558D01*
X96555297Y-81964522D01*
X96676283Y-82044674D01*
X96712791Y-82071911D01*
X96784204Y-82132405D01*
X96856306Y-82203185D01*
X96922038Y-82276091D01*
X96974339Y-82342966D01*
X97006152Y-82395653D01*
X97012500Y-82418275D01*
X96995273Y-82438951D01*
X96948393Y-82475690D01*
X96879061Y-82523727D01*
X96794480Y-82578295D01*
X96701851Y-82634630D01*
X96608375Y-82687965D01*
X96589167Y-82698416D01*
X96435487Y-82778009D01*
X96253117Y-82867156D01*
X96050090Y-82962344D01*
X95834436Y-83060059D01*
X95614187Y-83156788D01*
X95397375Y-83249018D01*
X95192030Y-83333235D01*
X95006184Y-83405926D01*
X94847868Y-83463578D01*
X94812982Y-83475413D01*
X94632319Y-83529944D01*
X94436233Y-83579423D01*
X94235450Y-83621820D01*
X94040699Y-83655106D01*
X93862710Y-83677255D01*
X93712209Y-83686236D01*
X93697479Y-83686333D01*
X93642057Y-83683449D01*
X93609837Y-83667604D01*
X93585812Y-83628007D01*
X93572365Y-83596375D01*
X93546669Y-83495691D01*
X93537712Y-83367637D01*
X93545324Y-83223653D01*
X93569335Y-83075181D01*
X93580791Y-83027295D01*
X93659606Y-82802685D01*
X93776426Y-82580575D01*
X93926980Y-82365648D01*
X94106997Y-82162588D01*
X94312205Y-81976080D01*
X94538332Y-81810808D01*
X94781108Y-81671456D01*
X94845383Y-81640531D01*
X94955340Y-81593675D01*
X95049183Y-81565493D01*
X95140026Y-81554797D01*
X95240983Y-81560399D01*
D11*
X88500000Y-71050000D03*
D12*
X91040000Y-71050000D03*
M02*
